<svg xmlns="http://www.w3.org/2000/svg" xmlns:xlink="http://www.w3.org/1999/xlink" width="215" height="288" viewBox="0 0 215 288">
  <defs>
    <clipPath id="clip-path">
      <rect id="Rectángulo_91615" data-name="Rectángulo 91615" width="99.086" height="102" fill="none"/>
    </clipPath>
  </defs>
  <g id="Grupo_175442" data-name="Grupo 175442" transform="translate(-659.165 -6192.047)">
    <g id="Grupo_175437" data-name="Grupo 175437">
      <g id="Grupo_175436" data-name="Grupo 175436">
        <rect id="Rectángulo_92871" data-name="Rectángulo 92871" width="215" height="288" rx="21" transform="translate(659.165 6192.047)" fill="#c2c7df"/>
      </g>
      <text id="La_presentación" data-name="La presentación" transform="translate(685.165 6365.047)" fill="#12263f" font-size="16" font-family="Roboto-Bold, Roboto" font-weight="700"><tspan x="-57.566" y="17">La presentación</tspan></text>
      <g id="Grupo_170719" data-name="Grupo 170719" transform="translate(717.165 6247.045)">
        <g id="Grupo_144387" data-name="Grupo 144387" transform="translate(0 0.002)" clip-path="url(#clip-path)">
          <path id="Trazado_214163" data-name="Trazado 214163" d="M49.543,102C22.225,102,0,79.124,0,51S22.225,0,49.543,0,99.086,22.88,99.086,51s-22.225,51-49.543,51m0-98.792C23.943,3.21,3.116,24.649,3.116,51S23.943,98.794,49.543,98.794,95.97,77.355,95.97,51,75.143,3.21,49.543,3.21" transform="translate(0 -0.002)" fill="#0d2380"/>
          <path id="Trazado_214164" data-name="Trazado 214164" d="M131.821,89.758c23.232,0,42.065,19.387,42.065,43.3s-18.833,43.3-42.065,43.3-42.065-19.387-42.065-43.3,18.833-43.3,42.065-43.3" transform="translate(-82.278 -82.06)" fill="#0d2380"/>
          <path id="Trazado_214165" data-name="Trazado 214165" d="M530.092,350.713h-2.044c.048-.9.086-1.76.147-2.621a1.416,1.416,0,0,1,.179-.479q1.5-3.1,3-6.194a4.773,4.773,0,0,0-.359-5.148,4.447,4.447,0,0,0-7.343.226c-.722,1.207-1.287,2.514-1.922,3.776-.085.168-.168.338-.277.558-1.185-.6-2.359-1.2-3.521-1.81a.5.5,0,0,1-.177-.378c-.005-3.821-.052-7.643.023-11.463a4.711,4.711,0,0,1,4.788-4.7q11.337-.041,22.674,0a4.783,4.783,0,0,1,4.8,4.969q.043,9.145,0,18.29a4.82,4.82,0,0,1-4.911,4.971c-2.278.017-4.555,0-6.833,0h-.633c.063.215.1.389.164.555q2.742,7.69,5.478,15.383a2.884,2.884,0,0,1,.169,1.255,1.461,1.461,0,0,1-2.749.407c-.335-.755-.6-1.542-.883-2.322q-2.636-7.37-5.253-14.747a.674.674,0,0,0-.745-.55c-.42,0-.572.153-.706.536q-2.908,8.292-5.844,16.574a1.76,1.76,0,0,1-1.06,1.237,1.386,1.386,0,0,1-1.5-.336,1.455,1.455,0,0,1-.412-1.567c.552-1.619,1.121-3.232,1.69-4.846q1.939-5.5,3.884-11c.062-.176.11-.357.179-.586m3.775-18.423h1.113c2.36,0,4.72.008,7.081-.01a1.5,1.5,0,0,0,1.5-1.46,1.545,1.545,0,0,0-1.333-1.626,4.478,4.478,0,0,0-.656-.027q-6.853,0-13.706,0c-.674,0-1.349-.009-2.023,0a1.5,1.5,0,0,0-1.446.952,1.539,1.539,0,0,0,1.483,2.162c2.664.013,5.327,0,7.991,0m4.805,8.616c-1.1,0-2.193-.006-3.289,0a1.56,1.56,0,1,0-.043,3.116q3.289.023,6.578,0a1.56,1.56,0,0,0,1.642-1.6,1.538,1.538,0,0,0-1.65-1.52c-1.079-.008-2.159,0-3.238,0m-.021-2.775v.024c1.1,0,2.192.016,3.288,0a1.543,1.543,0,0,0,1.624-1.554,1.559,1.559,0,0,0-1.624-1.558c-.084,0-.169,0-.253,0-2.04,0-4.08,0-6.12,0a2.814,2.814,0,0,0-.847.1,1.505,1.505,0,0,0-.977,1.634,1.413,1.413,0,0,0,1.321,1.341c1.2.046,2.393.012,3.59.012" transform="translate(-474.615 -294.806)" fill="#fff"/>
          <path id="Trazado_214166" data-name="Trazado 214166" d="M299.541,383.429v.75q0,8.154,0,16.309c0,1.531-.517,2.056-2.017,2.056q-4.454,0-8.907,0c-1.315,0-1.882-.585-1.883-1.934,0-2.64-.008-5.28.009-7.92a.605.605,0,0,0-.416-.653,4.335,4.335,0,0,1-2.739-3.768,42.493,42.493,0,0,1,.126-7.531,9.446,9.446,0,0,1,8.04-8c.229-.034.455-.082.741-.134a6.843,6.843,0,0,1,.091-13.585,6.7,6.7,0,0,1,7.018,5.321,6.98,6.98,0,0,1-5.459,8.275c2.267-.15,4.217.8,6.159,1.813,2.452,1.273,4.915,2.522,7.374,3.781.119.061.239.117.389.19.081-.146.161-.275.226-.41q1.461-3,2.916-6a1.585,1.585,0,0,1,1.195-1.01,1.423,1.423,0,0,1,1.468.607,1.553,1.553,0,0,1,.117,1.671q-1.1,2.283-2.213,4.561c-.445.915-.9,1.823-1.325,2.75a1.456,1.456,0,0,0-.113.785,4.115,4.115,0,0,1-1.428,4,3.7,3.7,0,0,1-4.069.71c-1.6-.686-3.125-1.549-4.683-2.333-.176-.089-.355-.17-.614-.294" transform="translate(-259.863 -328.202)" fill="#fff"/>
        </g>
      </g>
    </g>
  </g>
</svg>
