<svg xmlns="http://www.w3.org/2000/svg" xmlns:xlink="http://www.w3.org/1999/xlink" width="76.448" height="137.104" viewBox="0 0 76.448 137.104">
  <defs>
    <clipPath id="clip-path">
      <rect id="Rectángulo_92652" data-name="Rectángulo 92652" width="76.448" height="137.103" fill="none"/>
    </clipPath>
  </defs>
  <g id="Grupo_175415" data-name="Grupo 175415" transform="translate(11508.333 11979.139)">
    <g id="Grupo_175414" data-name="Grupo 175414" transform="translate(-11508.333 -11979.139)">
      <g id="Grupo_146466" data-name="Grupo 146466" clip-path="url(#clip-path)">
        <path id="Trazado_217717" data-name="Trazado 217717" d="M76.449,84.749.041,56.254v56.668c-.249,1.84.725,3.634,2.982,4.937l51.669,29.923c4.476,2.584,12.294,2.26,17.462-.724,2.734-1.579,4.178-3.585,4.27-5.508l.026.009Z" transform="translate(0 -12.423)" fill="#72b5e8"/>
        <path id="Trazado_217718" data-name="Trazado 217718" d="M54.69,88.616,3.022,58.693c-4.475-2.584-3.914-7.1,1.254-10.081s12.986-3.308,17.462-.724L73.407,77.81c4.475,2.584,3.914,7.1-1.254,10.082S59.167,91.2,54.69,88.616" transform="translate(0 -10.19)" fill="#a8cff0"/>
        <path id="Trazado_217719" data-name="Trazado 217719" d="M72.153,89.4c-5.168,2.983-12.986,3.308-17.462.724L3.022,60.2A5.342,5.342,0,0,1,.032,56.2c-.215,1.815.763,3.579,2.99,4.866l51.67,29.923c4.475,2.584,12.294,2.26,17.462-.724,3.011-1.738,4.446-3.995,4.245-6.088-.217,1.833-1.649,3.717-4.245,5.216" transform="translate(-0.001 -12.412)" fill="#fff"/>
        <path id="Trazado_217720" data-name="Trazado 217720" d="M46.419,2.922h0a21.645,21.645,0,0,0-32.45,18.756V45.154h0a.2.2,0,0,1,0,.033c0,2.3,3.181,4.154,7.105,4.154s7.105-1.852,7.105-4.137c0-.027-.006-.054-.007-.081h.076V24.707a9.172,9.172,0,0,1,13.742-7.953A22.874,22.874,0,0,1,53.468,36.588v31.3h.076c.077,2.246,3.222,4.054,7.1,4.054,3.9,0,7.064-1.831,7.1-4.1h0V39.822a42.586,42.586,0,0,0-21.328-36.9" transform="translate(-3.085 0)" fill="#2672ab"/>
        <path id="Trazado_217721" data-name="Trazado 217721" d="M54.7,17.473a13.142,13.142,0,0,0-1.325-.663,24.937,24.937,0,0,1,11,20.641l0,36.732A8.654,8.654,0,0,0,67.156,75.2l0-36.18A24.933,24.933,0,0,0,54.7,17.473" transform="translate(-11.789 -3.712)" fill="#3f92d1"/>
        <path id="Trazado_217722" data-name="Trazado 217722" d="M33.241,12.827a11.642,11.642,0,0,0-11.629,11.63V48.974l-.074,2.544c-.054.213,3.978-.115,4.073-.489l.074-2.543V23.967A11.648,11.648,0,0,1,33.9,12.85c-.221-.013-.442-.023-.663-.023" transform="translate(-4.756 -2.833)" fill="#084c94"/>
        <path id="Trazado_217723" data-name="Trazado 217723" d="M39.242,5.661A22.471,22.471,0,0,1,49.808,8.312a39.923,39.923,0,0,0-3.916-2.581,18.929,18.929,0,0,0-9.552-2.6C27.089,3.136,17.1,10.49,17.1,22.37v.052c2.86-10.5,12.811-16.761,22.137-16.761" transform="translate(-3.778 -0.693)" fill="#3f92d1"/>
        <path id="Trazado_217724" data-name="Trazado 217724" d="M75.951,53.6l0,27.469A8.768,8.768,0,0,0,79.5,79.83a2.327,2.327,0,0,0,.244-.963l0-28.021c0-12.115-3.8-9.6-3.8,2.75" transform="translate(-16.773 -9.484)" fill="#084c94"/>
        <path id="Trazado_217725" data-name="Trazado 217725" d="M45.772,109.829a15.438,15.438,0,0,0-7.006-12.084c-3.869-2.235-7.006-.446-7.006,3.994a15.244,15.244,0,0,0,3.543,9.028v14.064l6.927,4V114.767c2.114-.164,3.542-1.945,3.542-4.937" transform="translate(-7.014 -21.374)" fill="#084c94"/>
        <path id="Trazado_217726" data-name="Trazado 217726" d="M36.512,124.337V110.273a15.243,15.243,0,0,1-3.542-9.028c0-2.088.7-3.58,1.837-4.352-1.839.387-3.046,2.118-3.046,4.87a15.243,15.243,0,0,0,3.542,9.028v14.064l6.927,4v-1.216Z" transform="translate(-7.014 -21.398)" fill="#001a46"/>
      </g>
    </g>
  </g>
</svg>
