<svg xmlns="http://www.w3.org/2000/svg" xmlns:xlink="http://www.w3.org/1999/xlink" width="85.757" height="71.171" viewBox="0 0 85.757 71.171">
  <defs>
    <clipPath id="clip-path">
      <rect id="Rect치ngulo_92655" data-name="Rect치ngulo 92655" width="85.757" height="71.171" fill="none"/>
    </clipPath>
    <clipPath id="clip-path-3">
      <rect id="Rect치ngulo_92653" data-name="Rect치ngulo 92653" width="72.754" height="69.571" fill="none"/>
    </clipPath>
  </defs>
  <g id="Grupo_175417" data-name="Grupo 175417" transform="translate(12208.313 11898.753)">
    <g id="Grupo_175416" data-name="Grupo 175416" transform="translate(-12208.313 -11898.753)">
      <g id="Grupo_146474" data-name="Grupo 146474" clip-path="url(#clip-path)">
        <g id="Grupo_146473" data-name="Grupo 146473" transform="translate(0 0)">
          <g id="Grupo_146472" data-name="Grupo 146472" clip-path="url(#clip-path)">
            <path id="Trazado_217727" data-name="Trazado 217727" d="M68.873,70.979,6.444,34.88C2.885,32.825,0,27.313,0,22.568V7.774C0,3.029,2.885.848,6.444,2.9L68.873,39c3.559,2.055,6.444,7.566,6.444,12.311V66.108c0,4.745-2.885,6.926-6.444,4.871" transform="translate(0 -0.582)" fill="#fc502d"/>
            <path id="Trazado_217728" data-name="Trazado 217728" d="M71.061,67.126,9.613,31.6a10.955,10.955,0,0,1-4.635-9.177v-10.6a1.142,1.142,0,0,1,1.72-.984l.2.118L68.421,46.529c3.409,1.965,4.635,5.457,4.635,9.179V66.142a1.234,1.234,0,0,1-1.844,1.07l-.15-.087" transform="translate(-1.359 -2.914)" fill="#084c94"/>
            <path id="Trazado_217729" data-name="Trazado 217729" d="M72.242,66.372l-.15-.086L10.644,30.759a10.953,10.953,0,0,1-4.635-9.178v-10.6a1.115,1.115,0,0,1,.039-.291,1.138,1.138,0,0,0-1.07,1.133v10.6A10.954,10.954,0,0,0,9.614,31.6L71.061,67.129l.151.086a1.232,1.232,0,0,0,1.783-.7,1.2,1.2,0,0,1-.753-.145" transform="translate(-1.359 -2.917)" fill="#001a46"/>
            <path id="Trazado_217730" data-name="Trazado 217730" d="M72.822,36.873,10.393.774A4.355,4.355,0,0,0,6.622.22c-.135.052-3.14,1.585-3.267,1.655l-.006,0a4.216,4.216,0,0,1,4.008.443l62.429,36.1c3.559,2.055,6.444,7.566,6.444,12.311V65.527c0,2.961-1.124,4.923-2.834,5.481a1.074,1.074,0,0,0,.564-.193c.081-.047,3.24-1.725,3.318-1.779,1.224-.858,1.986-2.619,1.986-5.058V49.185c0-4.745-2.885-10.257-6.444-12.312" transform="translate(-0.914 0)" fill="#ce3820"/>
            <path id="Trazado_217731" data-name="Trazado 217731" d="M72.822,36.873,10.393.774A4.355,4.355,0,0,0,6.622.22c-.135.052-3.14,1.585-3.267,1.655l-.006,0a4.216,4.216,0,0,1,4.008.443l62.429,36.1Z" transform="translate(-0.914 0)" fill="#e54a30"/>
            <g id="Grupo_146471" data-name="Grupo 146471" transform="translate(2.872 1.4)" opacity="0.7">
              <g id="Grupo_146470" data-name="Grupo 146470">
                <g id="Grupo_146469" data-name="Grupo 146469" clip-path="url(#clip-path-3)">
                  <path id="Trazado_217732" data-name="Trazado 217732" d="M70.26,38.793,7.831,2.693A4.275,4.275,0,0,0,3.95,2.2a4.757,4.757,0,0,1,3.108.728l62.429,36.1c3.558,2.055,6.443,7.566,6.443,12.312V66.13c0,2.8-1.008,4.7-2.562,5.368,1.988-.316,3.336-2.358,3.336-5.6V51.1c0-4.745-2.885-10.257-6.444-12.312" transform="translate(-3.95 -1.927)" fill="#fff"/>
                </g>
              </g>
            </g>
            <path id="Trazado_217733" data-name="Trazado 217733" d="M74.887,60.7a8.561,8.561,0,0,0,3.885,6.7c2.145,1.238,3.885.247,3.885-2.215a8.559,8.559,0,0,0-3.885-6.7c-2.145-1.239-3.885-.247-3.885,2.215" transform="translate(-20.441 -15.818)" fill="#001a46"/>
            <path id="Trazado_217734" data-name="Trazado 217734" d="M61.1,52.689a8.56,8.56,0,0,0,3.885,6.7c2.145,1.238,3.885.246,3.885-2.215a8.561,8.561,0,0,0-3.885-6.7c-2.146-1.238-3.885-.246-3.885,2.215" transform="translate(-16.679 -13.632)" fill="#001a46"/>
            <path id="Trazado_217735" data-name="Trazado 217735" d="M47.322,44.683a8.56,8.56,0,0,0,3.885,6.7c2.145,1.238,3.885.246,3.885-2.215a8.561,8.561,0,0,0-3.885-6.7c-2.146-1.238-3.885-.246-3.885,2.215" transform="translate(-12.917 -11.447)" fill="#001a46"/>
            <path id="Trazado_217736" data-name="Trazado 217736" d="M33.54,36.677a8.56,8.56,0,0,0,3.885,6.7c2.145,1.238,3.885.246,3.885-2.215a8.561,8.561,0,0,0-3.885-6.7c-2.146-1.238-3.885-.246-3.885,2.215" transform="translate(-9.155 -9.262)" fill="#001a46"/>
            <path id="Trazado_217737" data-name="Trazado 217737" d="M19.758,28.671a8.56,8.56,0,0,0,3.885,6.7c2.145,1.238,3.885.246,3.885-2.215a8.561,8.561,0,0,0-3.885-6.7c-2.146-1.238-3.885-.246-3.885,2.215" transform="translate(-5.393 -7.076)" fill="#001a46"/>
            <path id="Trazado_217738" data-name="Trazado 217738" d="M73.233,60.805a8.562,8.562,0,0,0,3.885,6.7C79.264,68.744,81,67.753,81,65.291a8.559,8.559,0,0,0-3.885-6.7c-2.145-1.239-3.885-.247-3.885,2.215" transform="translate(-19.99 -15.848)" fill="#fff2bf"/>
            <path id="Trazado_217739" data-name="Trazado 217739" d="M59.451,52.8a8.56,8.56,0,0,0,3.885,6.7c2.145,1.238,3.885.247,3.885-2.215a8.561,8.561,0,0,0-3.885-6.7c-2.146-1.238-3.885-.246-3.885,2.215" transform="translate(-16.228 -13.662)" fill="#fff2bf"/>
            <path id="Trazado_217740" data-name="Trazado 217740" d="M45.669,44.793a8.56,8.56,0,0,0,3.885,6.7c2.145,1.238,3.885.246,3.885-2.215a8.561,8.561,0,0,0-3.885-6.7c-2.146-1.238-3.885-.246-3.885,2.215" transform="translate(-12.466 -11.477)" fill="#fff2bf"/>
            <path id="Trazado_217741" data-name="Trazado 217741" d="M31.886,36.787a8.56,8.56,0,0,0,3.885,6.7c2.145,1.238,3.885.246,3.885-2.215a8.562,8.562,0,0,0-3.885-6.7c-2.146-1.238-3.885-.246-3.885,2.215" transform="translate(-8.704 -9.292)" fill="#fff2bf"/>
            <path id="Trazado_217742" data-name="Trazado 217742" d="M18.1,28.782a8.56,8.56,0,0,0,3.885,6.7c2.145,1.238,3.885.246,3.885-2.215a8.561,8.561,0,0,0-3.885-6.7c-2.146-1.238-3.885-.246-3.885,2.215" transform="translate(-4.942 -7.107)" fill="#fff2bf"/>
            <path id="Trazado_217743" data-name="Trazado 217743" d="M112.075,62.307a.8.8,0,0,1-.8-.8V58.29a.8.8,0,0,1,1.606,0V61.5a.8.8,0,0,1-.8.8m0-8.032a.8.8,0,0,1-.8-.788,11.249,11.249,0,0,0-.451-2.956.8.8,0,0,1,1.544-.45,13.016,13.016,0,0,1,.513,3.376.8.8,0,0,1-.787.818Zm-2.7-7.4a.8.8,0,0,1-.625-.3,11.276,11.276,0,0,0-2.175-2.051.8.8,0,0,1,.938-1.305,12.882,12.882,0,0,1,2.486,2.345.8.8,0,0,1-.624,1.309m-6.449-4.7a.8.8,0,0,1-.411-.113L99.75,40.413a.8.8,0,1,1,.822-1.381l2.761,1.644a.8.8,0,0,1-.411,1.493" transform="translate(-27.121 -10.624)" fill="#a8cff0"/>
          </g>
        </g>
      </g>
    </g>
  </g>
</svg>
