<svg xmlns="http://www.w3.org/2000/svg" xmlns:xlink="http://www.w3.org/1999/xlink" width="143.237" height="181.21" viewBox="0 0 143.237 181.21">
  <defs>
    <clipPath id="clip-path">
      <rect id="Rect치ngulo_92651" data-name="Rect치ngulo 92651" width="143.237" height="181.21" fill="none"/>
    </clipPath>
    <clipPath id="clip-path-3">
      <rect id="Rect치ngulo_92649" data-name="Rect치ngulo 92649" width="83.048" height="106.702" fill="none"/>
    </clipPath>
    <clipPath id="clip-path-4">
      <path id="Trazado_217697" data-name="Trazado 217697" d="M46.073,86.536c0,26.315,18.59,58.382,41.523,71.622s41.524,2.641,41.524-23.674S110.529,76.1,87.6,62.861,46.073,60.22,46.073,86.536" transform="translate(-46.073 -57.158)" fill="none"/>
    </clipPath>
    <radialGradient id="radial-gradient" cx="0.5" cy="0.5" r="0.167" gradientTransform="matrix(-2.344, 0.447, -1.165, -0.889, -0.264, 1.878)" gradientUnits="objectBoundingBox">
      <stop offset="0" stop-color="#92a3b0"/>
      <stop offset="0.056" stop-color="#92a3b0"/>
      <stop offset="1" stop-color="#fff"/>
    </radialGradient>
  </defs>
  <g id="Grupo_175413" data-name="Grupo 175413" transform="translate(11333.053 12249.329)">
    <g id="Grupo_175412" data-name="Grupo 175412" transform="translate(-12385.333 -12371)">
      <g id="Grupo_146464" data-name="Grupo 146464" transform="translate(1052.28 121.671)">
        <g id="Grupo_146463" data-name="Grupo 146463" clip-path="url(#clip-path)">
          <g id="Grupo_146462" data-name="Grupo 146462">
            <g id="Grupo_146461" data-name="Grupo 146461" clip-path="url(#clip-path)">
              <path id="Trazado_217691" data-name="Trazado 217691" d="M139.5,76.387c-19.76-11.18-39.08-30.251-55.273-54.549l-.219-.126c-16.193,5.6-35.512,2.363-55.273-9.275l-.755-.445L29.05,48.914c3.75,57.233,23.27,82.144,54.689,135.354l.764.441c31.418-16.931,50.939-19.3,54.689-72.205l1.067-35.69Z" transform="translate(-8.166 -3.499)" fill="#a8cff0"/>
              <path id="Trazado_217692" data-name="Trazado 217692" d="M150.736,64.395c-19.762-11.179-39.08-30.25-55.273-54.549l-.22-.127c-16.192,5.6-35.512,2.364-55.272-9.274L39.216,0,28.282,8.618l.544.319c19.76,11.638,39.08,14.876,55.271,9.275l.22.126c16.193,24.3,35.512,43.369,55.273,54.549l.756.427-1.067,35.691c-2.447,34.528-11.617,47.529-26.424,57.1,18.5-10.925,34.818-26.784,37.57-65.6l1.067-35.69Z" transform="translate(-8.253)" fill="#d1ebff"/>
              <path id="Trazado_217693" data-name="Trazado 217693" d="M174.49,68.827l-.755-.428c-19.762-11.179-39.081-30.25-55.273-54.549l-.22-.125L107.1,22.217l.22.126c16.193,24.3,35.511,43.369,55.273,54.549l.755.427Z" transform="translate(-31.253 -4.005)" fill="#d1ebff"/>
              <path id="Trazado_217694" data-name="Trazado 217694" d="M175.195,100.025l-1.067,35.691c-2.447,34.529-11.617,47.529-26.424,57.1,18.5-10.925,34.818-26.784,37.57-65.6l1.067-35.69Z" transform="translate(-43.103 -26.711)" fill="#72b5e8"/>
              <path id="Trazado_217695" data-name="Trazado 217695" d="M85.135,168.1C60.746,127.64,48.478,107.288,45.519,62.885l-.673-23.308c15.659,7.08,30.671,9.337,44.2,6.645,13.521,18.307,28.533,33.384,44.193,44.387l-.674,22.53c-2.959,40.99-15.227,47.177-39.619,59.473-1.276.646-2.574,1.3-3.9,1.973q-1.993-3.308-3.907-6.489" transform="translate(-13.087 -11.549)" fill="#0d2380"/>
              <g id="Grupo_146460" data-name="Grupo 146460" transform="translate(32.628 40.479)" style="mix-blend-mode: multiply;isolation: isolate">
                <g id="Grupo_146459" data-name="Grupo 146459">
                  <g id="Grupo_146458" data-name="Grupo 146458" clip-path="url(#clip-path-3)">
                    <g id="Grupo_146457" data-name="Grupo 146457" transform="translate(0 0)">
                      <g id="Grupo_146456" data-name="Grupo 146456" clip-path="url(#clip-path-4)">
                        <path id="Trazado_217696" data-name="Trazado 217696" d="M129.121,26.757,46.073-21.192V148.534l83.048,47.949Z" transform="translate(-46.073 -34.294)" fill="url(#radial-gradient)"/>
                      </g>
                    </g>
                  </g>
                </g>
              </g>
              <path id="Trazado_217698" data-name="Trazado 217698" d="M94.94,170.849c-1.276.646-2.574,1.3-3.9,1.973q-1.993-3.308-3.907-6.489c-24.389-40.456-36.657-60.808-39.616-105.21l-.6-20.646c-.69-.295-1.381-.586-2.075-.9l.674,23.308c2.959,44.4,15.227,64.755,39.616,105.21q1.914,3.178,3.907,6.489c1.325-.673,2.624-1.327,3.9-1.973,9.952-5.017,17.884-9.018,23.991-14.78-5.809,4.85-13.09,8.529-21.993,13.017" transform="translate(-13.087 -11.549)" fill="#001a46"/>
              <path id="Trazado_217699" data-name="Trazado 217699" d="M140.513,75.574c-19.761-11.18-39.08-30.251-55.273-54.549l-.219-.127c-16.193,5.6-35.512,2.364-55.273-9.274l-.72.763C48.753,23.975,68.034,27.2,84.2,21.6l.219.127c16.193,24.3,35.512,43.369,55.273,54.549l.756.427-1.067,35.69c-2.031,28.654-8.691,42.481-19.36,51.829,11.15-9.359,18.1-23.15,20.182-52.534L141.268,76Z" transform="translate(-8.471 -3.392)" fill="#fff"/>
              <path id="Trazado_217700" data-name="Trazado 217700" d="M.782,86.827A.782.782,0,0,1,0,86.044q0-1.611.074-3.163a.781.781,0,1,1,1.561.072q-.069,1.517-.07,3.092a.782.782,0,0,1-.783.783m.466-7.8a.754.754,0,0,1-.1-.006.783.783,0,0,1-.68-.872q.2-1.609.484-3.138a.782.782,0,1,1,1.537.286q-.274,1.483-.469,3.044a.781.781,0,0,1-.775.686M2.8,71.369a.783.783,0,0,1-.751-1c.3-1.031.638-2.049,1-3.024a.783.783,0,0,1,1.467.549c-.351.938-.677,1.918-.965,2.912a.785.785,0,0,1-.752.564m2.906-7.245a.782.782,0,0,1-.69-1.15c.5-.945,1.054-1.871,1.638-2.75a.783.783,0,0,1,1.3.865c-.556.838-1.081,1.719-1.562,2.62a.781.781,0,0,1-.69.415m4.5-6.362a.782.782,0,0,1-.571-1.317,26.781,26.781,0,0,1,2.336-2.216.782.782,0,1,1,1,1.2,25.406,25.406,0,0,0-2.2,2.087.781.781,0,0,1-.572.248m6.117-4.821a.783.783,0,0,1-.384-1.465,26.265,26.265,0,0,1,2.9-1.4.782.782,0,1,1,.593,1.448,24.5,24.5,0,0,0-2.727,1.318.783.783,0,0,1-.383.1m7.289-2.731a.783.783,0,0,1-.16-1.548,29.87,29.87,0,0,1,3.173-.491.808.808,0,0,1,.856.7.782.782,0,0,1-.7.857,28.165,28.165,0,0,0-3.006.466.8.8,0,0,1-.164.017" transform="translate(0 -14.056)" fill="#a8cff0"/>
              <path id="Trazado_217701" data-name="Trazado 217701" d="M35.559,191a.782.782,0,0,1-.576-.253q-1.061-1.157-2.1-2.348a.783.783,0,0,1,1.18-1.028q1.024,1.177,2.072,2.317A.783.783,0,0,1,35.559,191m-5.093-5.933a.78.78,0,0,1-.61-.292q-.984-1.226-1.94-2.48a.783.783,0,0,1,1.244-.95q.946,1.241,1.916,2.451a.783.783,0,0,1-.61,1.272m-4.7-6.253a.78.78,0,0,1-.64-.332q-.9-1.286-1.78-2.6a.783.783,0,0,1,1.3-.87q.865,1.295,1.759,2.566a.783.783,0,0,1-.191,1.09.774.774,0,0,1-.449.142m-4.3-6.534a.785.785,0,0,1-.666-.372q-.824-1.34-1.618-2.7a.783.783,0,0,1,1.354-.787q.78,1.343,1.6,2.667a.782.782,0,0,1-.666,1.193m-3.9-6.782a.784.784,0,0,1-.69-.414q-.74-1.391-1.45-2.794a.782.782,0,0,1,1.4-.7q.7,1.388,1.435,2.76a.784.784,0,0,1-.69,1.151m-3.479-7.008a.78.78,0,0,1-.71-.456q-.658-1.435-1.278-2.879a.783.783,0,0,1,1.44-.615q.609,1.424,1.258,2.843a.781.781,0,0,1-.385,1.037.771.771,0,0,1-.326.072" transform="translate(-3.513 -44.96)" fill="#a8cff0"/>
              <path id="Trazado_217702" data-name="Trazado 217702" d="M58.439,169.031c-21.9-12.647-39.727-43.387-39.727-68.526,0-12.295,4.2-21.49,11.825-25.893,7.69-4.441,17.877-3.45,28.684,2.788A64.3,64.3,0,0,1,69.85,85.182l-1.042,1.166a62.714,62.714,0,0,0-10.368-7.592c-10.3-5.947-19.93-6.937-27.12-2.787-7.12,4.111-11.042,12.826-11.042,24.537,0,24.64,17.47,54.772,38.944,67.17Z" transform="translate(-5.461 -20.975)" fill="#fff2bf"/>
              <path id="Trazado_217703" data-name="Trazado 217703" d="M77.571,208.555c-.061,1.287-.945,1.848-1.974,1.254a4.042,4.042,0,0,1-1.753-3.406c.062-1.287.945-1.848,1.974-1.254a4.041,4.041,0,0,1,1.752,3.406" transform="translate(-21.548 -59.797)" fill="#eb4680"/>
              <path id="Trazado_217704" data-name="Trazado 217704" d="M90.389,91.191l-6.051-1.513a.782.782,0,1,1,.379-1.518l3.175.794L86.761,85.9a.782.782,0,1,1,1.467-.544Z" transform="translate(-24.439 -24.758)" fill="#fff2bf"/>
              <path id="Trazado_217705" data-name="Trazado 217705" d="M41.9,112.483c.429-15.677,11.824-21.91,25.8-13.838,7.2,4.155,13.71,11.315,18.4,19.488l5.158-1.3C85.385,106.179,77,96.78,67.7,91.412,50.11,81.254,35.779,89.284,35.564,109.29l4.127,3.747Z" transform="translate(-10.378 -25.391)" fill="#dd452c"/>
              <path id="Trazado_217706" data-name="Trazado 217706" d="M79.865,172.409c-3.815.348-8.233-.716-12.958-3.444-13.242-7.645-24.175-25.448-25.659-41.052l-6.31-3.181c.01.114-2.109.545-2.1.658,1.825,19.421,17.581,41.29,34.067,50.808,5.987,3.457,10.04,5.275,14.844,4.764.2-.022,1.957-.521,2.156-.55Z" transform="translate(-9.583 -36.399)" fill="#dd452c"/>
              <path id="Trazado_217707" data-name="Trazado 217707" d="M108.42,137.118a49.367,49.367,0,0,1,5,20.351c0,9.371-3.818,15.521-9.75,17.535l4,7.911c7.344-2.526,12.057-10.183,12.057-21.806,0-8.112-2.3-16.942-6.181-25.279Z" transform="translate(-30.254 -39.638)" fill="#dd452c"/>
              <path id="Trazado_217708" data-name="Trazado 217708" d="M84.287,143.95a22.024,22.024,0,0,1-4.532-5.426c-.749-1.255-.722-2.615.006-3.04a5.8,5.8,0,0,0,2.314-2.581c.794.22,1.779-.073,1.779-1.162a4.3,4.3,0,0,0-1.147-2.933c-.194-4.755-1.819-9.642-7.289-12.8-1.911-1.1-3.354-1.454-4.428-1.249-.251.047-2.419.619-2.631.724-1.482.737-.118,2.33-.229,4.908-.656-.146-1.147.5-1.147,1.608a5.26,5.26,0,0,0,1.78,3.217,25.791,25.791,0,0,0,2.313,5.251c.729,1.267.756,2.658.006,3.047a5.973,5.973,0,0,1-4.532.193,3.4,3.4,0,0,0-1.894-.076c-.159.045-2.107.55-2.252.622-1.017.506.143,1.248.143,2.974v4.9a3.3,3.3,0,0,0,1.5,2.586L85.06,158.626c.364.21,2.426-.523,2.687-.621a.984.984,0,0,0,.542-1.011v-4.9a11.678,11.678,0,0,0-4-8.141" transform="translate(-18.089 -33.473)" fill="#dd452c"/>
              <path id="Trazado_217709" data-name="Trazado 217709" d="M39.9,113.053c.429-15.677,11.824-21.91,25.8-13.838,7.2,4.155,13.71,11.315,18.4,19.488l5.158-1.3C83.39,106.749,75.006,97.35,65.708,91.982,48.115,81.824,33.784,89.854,33.569,109.86Z" transform="translate(-9.796 -25.558)" fill="#fff"/>
              <path id="Trazado_217710" data-name="Trazado 217710" d="M78.734,172.979c-3.815.348-8.233-.716-12.958-3.444C52.535,161.89,41.6,144.086,40.118,128.483l-6.31-3.18c1.7,19.5,15.385,41.891,31.969,51.466,6.239,3.6,12.065,4.908,17,4.214Z" transform="translate(-9.866 -36.566)" fill="#fff"/>
              <path id="Trazado_217711" data-name="Trazado 217711" d="M106.425,137.688a49.367,49.367,0,0,1,5,20.351c0,9.371-3.818,15.521-9.75,17.535l4,7.911c7.344-2.526,12.057-10.183,12.057-21.806,0-8.111-2.3-16.942-6.181-25.279Z" transform="translate(-29.671 -39.804)" fill="#fff"/>
              <path id="Trazado_217712" data-name="Trazado 217712" d="M82.522,144.52a22.024,22.024,0,0,1-4.532-5.426c-.749-1.255-.722-2.615.006-3.04a5.8,5.8,0,0,0,2.314-2.581c.794.22,1.779-.073,1.779-1.162a4.307,4.307,0,0,0-1.147-2.933c-.195-4.755-1.819-9.642-7.289-12.8s-7.094-.147-7.288,4.384c-.656-.146-1.147.5-1.147,1.608A5.26,5.26,0,0,0,67,125.788a25.83,25.83,0,0,0,2.313,5.251c.729,1.267.756,2.658.006,3.047a5.975,5.975,0,0,1-4.532.193c-2.3-.695-4,.69-4,3.519v4.9a3.3,3.3,0,0,0,1.5,2.586l22.743,13.13c.828.479,1.5.1,1.5-.855v-4.9a11.675,11.675,0,0,0-4-8.141" transform="translate(-17.737 -33.639)" fill="#fff"/>
              <path id="Trazado_217713" data-name="Trazado 217713" d="M38.764,113.338c.429-15.677,11.824-21.91,25.8-13.838,7.2,4.155,13.71,11.315,18.4,19.488l5.158-1.3C82.25,107.034,73.866,97.635,64.568,92.267c-17.593-10.157-31.923-2.128-32.139,17.878Z" transform="translate(-9.463 -25.641)" fill="#fc502d"/>
              <path id="Trazado_217714" data-name="Trazado 217714" d="M77.594,173.264c-3.815.348-8.233-.716-12.958-3.444-13.242-7.645-24.175-25.449-25.659-41.052l-6.31-3.181c1.7,19.5,15.385,41.892,31.969,51.466,6.239,3.6,12.065,4.908,17,4.214Z" transform="translate(-9.533 -36.649)" fill="#fc502d"/>
              <path id="Trazado_217715" data-name="Trazado 217715" d="M105.285,137.973a49.367,49.367,0,0,1,5,20.351c0,9.371-3.818,15.521-9.75,17.535l4,7.911c7.344-2.526,12.057-10.183,12.057-21.806,0-8.112-2.3-16.942-6.181-25.279Z" transform="translate(-29.339 -39.887)" fill="#fc502d"/>
              <path id="Trazado_217716" data-name="Trazado 217716" d="M81.382,144.8a22.024,22.024,0,0,1-4.532-5.426c-.749-1.255-.722-2.615.006-3.04a5.8,5.8,0,0,0,2.314-2.581c.794.22,1.779-.073,1.779-1.162a4.307,4.307,0,0,0-1.147-2.933c-.195-4.755-1.819-9.642-7.289-12.8s-7.094-.147-7.288,4.384c-.656-.146-1.147.5-1.147,1.608a5.26,5.26,0,0,0,1.78,3.217,25.83,25.83,0,0,0,2.313,5.251c.729,1.267.756,2.658.006,3.047a5.976,5.976,0,0,1-4.532.193c-2.3-.695-4,.69-4,3.519v4.9a3.3,3.3,0,0,0,1.5,2.586L83.885,158.7c.828.479,1.5.1,1.5-.855v-4.9a11.675,11.675,0,0,0-4-8.141" transform="translate(-17.405 -33.722)" fill="#fc502d"/>
            </g>
          </g>
        </g>
      </g>
    </g>
  </g>
</svg>
