<svg xmlns="http://www.w3.org/2000/svg" xmlns:xlink="http://www.w3.org/1999/xlink" width="1070" height="484" viewBox="0 0 1070 484">
  <defs>
    <clipPath id="clip-path">
      <rect id="Rectángulo_100745" data-name="Rectángulo 100745" width="930.646" height="335.35" fill="none"/>
    </clipPath>
  </defs>
  <g id="Grupo_175423" data-name="Grupo 175423" transform="translate(5392 6268)">
    <rect id="Rectángulo_95214" data-name="Rectángulo 95214" width="1070" height="484" rx="40" transform="translate(-5392 -6268)" fill="#f3f9ff"/>
    <g id="Grupo_175385" data-name="Grupo 175385" transform="translate(-5322 -6193.81)">
      <g id="Grupo_175384" data-name="Grupo 175384" clip-path="url(#clip-path)">
        <path id="Trazado_236419" data-name="Trazado 236419" d="M556.8,386.54A167.542,167.542,0,0,1,389.13,218.865h18.148c0,82.45,67.078,149.528,149.527,149.528Z" transform="translate(-91.014 -51.19)" fill="#0d2380"/>
        <path id="Trazado_236420" data-name="Trazado 236420" d="M607.995,386.54V368.393c82.45,0,149.527-67.078,149.527-149.528H775.67A167.544,167.544,0,0,1,607.995,386.54" transform="translate(-142.204 -51.19)" fill="#fc502d"/>
        <path id="Trazado_236421" data-name="Trazado 236421" d="M775.67,167.675H757.522c0-82.45-67.078-149.527-149.527-149.527V0A167.545,167.545,0,0,1,775.67,167.675" transform="translate(-142.204)" fill="#fff2bf"/>
        <path id="Trazado_236422" data-name="Trazado 236422" d="M407.277,167.675H389.129A167.542,167.542,0,0,1,556.8,0V18.148c-82.45,0-149.527,67.078-149.527,149.527" transform="translate(-91.013)" fill="#dee9f0"/>
        <path id="Trazado_236423" data-name="Trazado 236423" d="M437.521,227.694l-3.5,9.035a2.634,2.634,0,0,0-.181,1.081,2.469,2.469,0,0,0,2.642,2.338l1.99-.093a130.609,130.609,0,0,0,114.266,110.1,132.3,132.3,0,0,0,14.941.847c.124,0,.245,0,.369-.005l-.146-4.127c-.075,0-.148,0-.223,0a128.348,128.348,0,0,1-14.473-.82A126.268,126.268,0,0,1,442.616,239.859l1.443-.068a2.469,2.469,0,0,0,2.41-2.576,2.63,2.63,0,0,0-.282-1.059l-4.337-8.665a2.322,2.322,0,0,0-4.329.2m3.861,8.088-2.615.123,1.168-3.013Z" transform="translate(-101.47 -52.883)" fill="#0d2380"/>
        <path id="Trazado_236424" data-name="Trazado 236424" d="M736.065,233.181A126.271,126.271,0,0,1,629.8,343.78l-.124-1.6a2.473,2.473,0,0,0-3.7-2.016l-8.528,4.6a2.322,2.322,0,0,0,.336,4.321l9.138,3.225a2.507,2.507,0,0,0,2.311-.293,2.477,2.477,0,0,0,1.039-2.056c0-.07,0-.141-.008-.215l-.143-1.841A130.614,130.614,0,0,0,740.169,233.649a131.759,131.759,0,0,0,.843-14.34l-4.13-.018a127.343,127.343,0,0,1-.817,13.89M622.912,346.517l2.845-1.534.2,2.609Z" transform="translate(-144.107 -51.29)" fill="#fc502d"/>
        <path id="Trazado_236425" data-name="Trazado 236425" d="M608.921,52.061A126.428,126.428,0,0,1,733.814,159.9l-1.659.241a2.481,2.481,0,0,0-2.175,2.439,2.606,2.606,0,0,0,.408,1.384l5.155,8.206a2.322,2.322,0,0,0,4.289-.623l2.612-9.33a2.724,2.724,0,0,0,.1-.727,2.459,2.459,0,0,0-.842-1.865,2.548,2.548,0,0,0-2.04-.573l-1.762.255A130.615,130.615,0,0,0,623.569,48.774a130.892,130.892,0,0,0-14.643-.843ZM736.927,166.606l-1.719-2.736,2.59-.376Z" transform="translate(-142.42 -11.211)" fill="#fff2bf"/>
        <path id="Trazado_236426" data-name="Trazado 236426" d="M550.482,44.1A2.514,2.514,0,0,0,549.4,46.19l.084,2.144A130.613,130.613,0,0,0,438.781,162.692a132.24,132.24,0,0,0-.847,14.941c0,.208,0,.42,0,.627l4.129-.071c0-.175,0-.352,0-.527a124.887,124.887,0,0,1,.82-14.5A126.17,126.17,0,0,1,549.651,52.483l.055,1.4a2.474,2.474,0,0,0,3.618,2.156l8.7-4.272a2.322,2.322,0,0,0-.172-4.33l-9.01-3.572a2.533,2.533,0,0,0-2.359.232m6.153,5.714-2.9,1.424-.1-2.615Z" transform="translate(-102.428 -10.216)" fill="#dee9f0"/>
        <path id="Trazado_236427" data-name="Trazado 236427" d="M534.405,204.32c4.335,0,7.319,3.2,7.319,7.978,0,4.648-2.922,7.758-7.131,7.758h-3.235v6.219H526.9V204.32Zm.188,11.716c1.665,0,2.858-1.508,2.858-3.863,0-2.262-1.194-3.769-2.858-3.769h-3.329v7.633Z" transform="translate(-123.236 -47.788)" fill="#333"/>
        <path id="Trazado_236428" data-name="Trazado 236428" d="M560.875,214.261V223.5c0,1.288.094,1.979,1.319,1.885v2.827c-1.947.66-4.523.565-4.68-2.512a4.7,4.7,0,0,1-4.146,2.92c-3.392,0-5.56-2.543-5.56-7.319,0-5.057,2.984-8.449,7.507-8.449a12.9,12.9,0,0,1,5.56,1.414m-4.021,2.544a3.444,3.444,0,0,0-1.665-.471c-1.979,0-3.267,1.823-3.267,4.963,0,1.979.754,3.424,2.356,3.424s2.576-1.853,2.576-4.492Z" transform="translate(-128.127 -49.783)" fill="#333"/>
        <path id="Trazado_236429" data-name="Trazado 236429" d="M577.506,212.847a4.381,4.381,0,0,1,2.921,1.132l-1.194,3.392a3.839,3.839,0,0,0-2.23-.691c-1.6,0-2.921,1.132-2.921,3.644V228.3H570.03V217.684c0-1.256-.346-2.073-1.476-1.853v-2.7c1.853-.5,5.151-.534,5.4,2.136a3.72,3.72,0,0,1,3.549-2.419" transform="translate(-132.979 -49.782)" fill="#333"/>
        <path id="Trazado_236430" data-name="Trazado 236430" d="M595,215.095h-4.052v5.875c0,2.1,1.036,2.826,2.292,2.858a4.276,4.276,0,0,0,1.948-.346l.376,3.2a11.553,11.553,0,0,1-3.423.6c-2.922,0-5.246-1.665-5.246-6.219v-5.969l-2.356-.251v-3.015h2.481l.439-4.68h3.487v4.68H595Z" transform="translate(-136.719 -48.45)" fill="#333"/>
        <path id="Trazado_236431" data-name="Trazado 236431" d="M608.656,225.161a8.011,8.011,0,0,0,4.052-1.194l-.094,3.393a7.857,7.857,0,0,1-4.46,1.256c-4.46,0-7.539-2.167-7.539-7.947,0-5.371,3.612-7.821,6.91-7.821,3.895,0,5.685,2.042,5.685,4.555,0,3.455-3.392,6.219-8.543,4.806.408,2.293,1.979,2.953,3.989,2.953m-3.958-5.748c2.669.847,4.585.157,4.585-1.6,0-.974-.627-1.54-1.853-1.54-.973,0-2.387.755-2.732,3.142" transform="translate(-140.478 -49.783)" fill="#333"/>
        <path id="Trazado_236432" data-name="Trazado 236432" d="M623.435,223.59a1.766,1.766,0,0,0,1.79,1.853c1.1,0,1.853-.565,1.853-1.571a1.636,1.636,0,0,0-1.6-1.633c-2.513-.408-5.875-1.225-5.875-4.649,0-2.89,2.23-4.743,5.623-4.743,3.015,0,5.748,1.6,5.591,4.774h-3.675a1.672,1.672,0,0,0-1.822-1.477c-1.006,0-1.666.5-1.666,1.383,0,1.131.912,1.382,1.666,1.476,2.889.408,5.937.91,5.937,4.805,0,2.891-2.324,4.807-5.842,4.807-3.926,0-5.968-2.01-6.062-5.026Z" transform="translate(-144.86 -49.783)" fill="#333"/>
        <path id="Trazado_236433" data-name="Trazado 236433" d="M651.166,226.275c-3.676,0-5.78-2.92-5.78-7.947,0-4.4,2.262-7.821,5.874-7.821a3.339,3.339,0,0,1,3.392,1.979v-9.643h3.832v18.689c0,1.288.5,1.571,1.413,1.445V225.8c-1.853.408-4.586.691-4.743-2.512a4.463,4.463,0,0,1-3.989,2.983m3.361-8.1c0-2.2-.848-4.021-2.45-4.021-1.508,0-2.514,1.7-2.514,4.115,0,2.607.912,4.115,2.514,4.115s2.45-1.822,2.45-4.209" transform="translate(-150.949 -47.443)" fill="#333"/>
        <path id="Trazado_236434" data-name="Trazado 236434" d="M674.584,225.161a8.011,8.011,0,0,0,4.052-1.194l-.094,3.393a7.858,7.858,0,0,1-4.46,1.256c-4.46,0-7.539-2.167-7.539-7.947,0-5.371,3.612-7.821,6.91-7.821,3.895,0,5.685,2.042,5.685,4.555,0,3.455-3.392,6.219-8.543,4.806.408,2.293,1.979,2.953,3.989,2.953m-3.958-5.748c2.669.847,4.585.157,4.585-1.6,0-.974-.627-1.54-1.853-1.54-.973,0-2.387.755-2.732,3.142" transform="translate(-155.898 -49.783)" fill="#333"/>
        <path id="Trazado_236435" data-name="Trazado 236435" d="M690.223,220.315c0,1.884.5,2.575,1.6,2.575a3.039,3.039,0,0,0,.817-.126l.126,3.3a7.8,7.8,0,0,1-2.167.251c-2.733,0-4.46-1.633-4.46-6V203.007h4.083Z" transform="translate(-160.481 -47.481)" fill="#333"/>
        <path id="Trazado_236436" data-name="Trazado 236436" d="M473.659,275.507V271.77h2.513V257.163h-2.293v-3.644h9.047v3.644h-2.293V271.77h2.481v3.738Z" transform="translate(-110.784 -59.296)" fill="#333"/>
        <path id="Trazado_236437" data-name="Trazado 236437" d="M489.395,267.167c0-1.664-.157-2.2-1.508-1.978v-2.7c1.885-.5,5.12-1.131,5.465,2.136a4.644,4.644,0,0,1,4.209-2.576c3.047,0,4.743,2.262,4.743,6.691v3.8c0,2.042.251,2.356,1.6,2.262v2.576c-2.89.817-5.748.408-5.748-3.8v-4.837c0-2.01-.817-3.2-2.2-3.2-1.225,0-2.387,1.162-2.387,3.3V277.5h-4.178Z" transform="translate(-114.112 -61.29)" fill="#333"/>
        <path id="Trazado_236438" data-name="Trazado 236438" d="M509.863,260.025h2.324l.031-1.916c0-4.429,2.355-6.188,5.151-6.188a8.338,8.338,0,0,1,3.424.753l-.408,3.236a4.049,4.049,0,0,0-2.042-.47c-1.162,0-2.1.722-2.1,2.763v1.822h3.895v3.11h-3.895v12h-4.083v-12h-2.293Z" transform="translate(-119.252 -58.922)" fill="#333"/>
        <path id="Trazado_236439" data-name="Trazado 236439" d="M531.554,277.816c-4.178,0-6.973-3.173-6.973-7.947,0-4.68,2.8-7.821,6.973-7.821,4.115,0,6.879,3.141,6.879,7.821,0,4.774-2.764,7.947-6.879,7.947m0-3.832c1.665,0,2.764-1.6,2.764-4.115,0-2.388-1.1-3.958-2.764-3.958-1.728,0-2.827,1.57-2.827,3.958,0,2.512,1.1,4.115,2.827,4.115" transform="translate(-122.694 -61.29)" fill="#333"/>
        <path id="Trazado_236440" data-name="Trazado 236440" d="M553.746,262.047a4.384,4.384,0,0,1,2.921,1.131l-1.194,3.392a3.839,3.839,0,0,0-2.23-.69c-1.6,0-2.921,1.13-2.921,3.644V277.5H546.27V266.884c0-1.256-.346-2.073-1.476-1.852v-2.7c1.853-.5,5.151-.533,5.4,2.136a3.72,3.72,0,0,1,3.549-2.419" transform="translate(-127.422 -61.29)" fill="#333"/>
        <path id="Trazado_236441" data-name="Trazado 236441" d="M562.849,267.281c0-1.6-.126-2.449-1.7-2.2v-2.765c2.136-.565,5.528-.722,5.685,2.419a3.978,3.978,0,0,1,3.864-2.7,3.736,3.736,0,0,1,3.989,2.828,4.415,4.415,0,0,1,4.272-2.828c3.675,0,4.4,2.953,4.4,6.691v4.335c0,1.382.094,2.1,1.633,1.759v2.544c-2.858.848-5.779.346-5.779-3.518v-5.12c0-2.23-.565-3.2-1.916-3.2-1.1,0-2.042,1.1-2.042,3.235v8.732h-4.021v-8.732c0-2.042-.691-3.235-2.073-3.235-1.225,0-2.167,1.194-2.167,3.33v8.638h-4.146Z" transform="translate(-131.248 -61.278)" fill="#333"/>
        <path id="Trazado_236442" data-name="Trazado 236442" d="M601.953,274.361a8.01,8.01,0,0,0,4.052-1.194l-.094,3.392a7.858,7.858,0,0,1-4.46,1.257c-4.46,0-7.539-2.168-7.539-7.947,0-5.372,3.612-7.822,6.91-7.822,3.895,0,5.685,2.042,5.685,4.555,0,3.455-3.392,6.219-8.543,4.805.408,2.294,1.979,2.953,3.989,2.953M598,268.613c2.669.848,4.585.157,4.585-1.6,0-.973-.627-1.538-1.853-1.538-.973,0-2.387.754-2.732,3.141" transform="translate(-138.91 -61.29)" fill="#333"/>
        <path id="Trazado_236443" data-name="Trazado 236443" d="M633.143,253.519V257.6H628.4v17.9h-4.335V257.6h-4.774v-4.083Z" transform="translate(-144.846 -59.296)" fill="#333"/>
        <path id="Trazado_236444" data-name="Trazado 236444" d="M644.512,272.251a8.015,8.015,0,0,0,4.052-1.194l-.094,3.392a7.861,7.861,0,0,1-4.461,1.257c-4.46,0-7.539-2.169-7.539-7.948,0-5.371,3.612-7.821,6.91-7.821,3.895,0,5.685,2.042,5.685,4.555,0,3.455-3.392,6.219-8.543,4.805.408,2.294,1.979,2.953,3.989,2.953m-3.958-5.748c2.669.848,4.585.157,4.585-1.6,0-.973-.628-1.538-1.853-1.538-.974,0-2.387.754-2.732,3.141m2.826-13.476,3.549,1.383v.346l-2.386,3.2h-3.11v-.377Z" transform="translate(-148.864 -59.18)" fill="#333"/>
        <path id="Trazado_236445" data-name="Trazado 236445" d="M664.681,267.827a2.481,2.481,0,0,0-2.513-1.915c-1.633,0-2.733,1.57-2.733,3.958,0,2.512,1.1,4.177,2.828,4.177a2.654,2.654,0,0,0,2.45-2.356h3.926c-.5,4.3-3.3,6.126-6.376,6.126-4.178,0-6.973-3.173-6.973-7.947,0-4.68,2.764-7.822,6.91-7.822a6.258,6.258,0,0,1,6.408,5.78Z" transform="translate(-153.265 -61.29)" fill="#333"/>
        <path id="Trazado_236446" data-name="Trazado 236446" d="M676.149,267.167c0-1.664-.157-2.2-1.508-1.978v-2.7c1.885-.5,5.12-1.131,5.465,2.136a4.644,4.644,0,0,1,4.209-2.576c3.047,0,4.743,2.262,4.743,6.691v3.8c0,2.042.251,2.356,1.6,2.262v2.576c-2.89.817-5.748.408-5.748-3.8v-4.837c0-2.01-.817-3.2-2.2-3.2-1.225,0-2.387,1.162-2.387,3.3V277.5h-4.178Z" transform="translate(-157.792 -61.29)" fill="#333"/>
        <path id="Trazado_236447" data-name="Trazado 236447" d="M700.132,253.109a2.534,2.534,0,0,1,.031,5.058,2.386,2.386,0,0,1-2.481-2.544,2.336,2.336,0,0,1,2.45-2.514m-2.1,7.162h4.146v15.141h-4.146Z" transform="translate(-163.181 -59.2)" fill="#333"/>
        <path id="Trazado_236448" data-name="Trazado 236448" d="M716.341,267.827a2.481,2.481,0,0,0-2.514-1.915c-1.633,0-2.734,1.57-2.734,3.958,0,2.512,1.1,4.177,2.828,4.177a2.654,2.654,0,0,0,2.45-2.356H720.3c-.5,4.3-3.3,6.126-6.376,6.126-4.177,0-6.973-3.173-6.973-7.947,0-4.68,2.764-7.822,6.91-7.822a6.258,6.258,0,0,1,6.408,5.78Z" transform="translate(-165.348 -61.29)" fill="#333"/>
        <path id="Trazado_236449" data-name="Trazado 236449" d="M733.56,277.816c-4.178,0-6.973-3.173-6.973-7.947,0-4.68,2.8-7.821,6.973-7.821,4.115,0,6.879,3.141,6.879,7.821,0,4.774-2.764,7.947-6.879,7.947m0-3.832c1.665,0,2.764-1.6,2.764-4.115,0-2.388-1.1-3.958-2.764-3.958-1.728,0-2.827,1.57-2.827,3.958,0,2.512,1.1,4.115,2.827,4.115" transform="translate(-169.941 -61.29)" fill="#333"/>
        <path id="Trazado_236450" data-name="Trazado 236450" d="M620.53,120.78a18.973,18.973,0,0,0-2.045-5.12,19.332,19.332,0,0,0-13.415-9.316,19.507,19.507,0,0,0-6.08-.077,19.273,19.273,0,0,0-7.139,2.547c-.643.414-1.487.991-2.1,1.452-.384.29-.863.72-1.214,1.049a19.466,19.466,0,0,0-2.639,3.067,19.045,19.045,0,0,0-2.992,7.006A19.1,19.1,0,0,0,586.33,136.7l.127.191.055.08.2.293.375.533c.358.512.817,1.179,1.233,1.857q.177.29.351.6c.012.022.025.045.038.069.073.129.142.264.213.4.058.115.117.229.167.338a9.9,9.9,0,0,1,.967,4.036h0a8.791,8.791,0,0,0,.624,3.106c-.474,1.972.631,4.046,3.314,5.536,4.446,2.467,11.506,2.4,15.77-.159,2.451-1.468,3.438-3.437,3-5.315a8.723,8.723,0,0,0,.639-3.1v0a9.886,9.886,0,0,1,1.173-4.394l.059-.109c.1-.19.212-.382.326-.572.062-.107.125-.215.188-.318.3-.5.631-.981.948-1.435l.007-.01h0l.1-.142.372-.526-.009.014c.188-.263.364-.513.523-.745v0c.021-.032.041-.062.063-.093a19.1,19.1,0,0,0,3.857-10.189,18.859,18.859,0,0,0-.477-5.866m-7.355,25.606a4.072,4.072,0,0,0,.2-.9,4.082,4.082,0,0,1-.2.9" transform="translate(-136.245 -24.807)" fill="#ffe036"/>
        <path id="Trazado_236451" data-name="Trazado 236451" d="M636.425,116.948a41.8,41.8,0,1,1-41.8-41.617,41.711,41.711,0,0,1,41.8,41.617" transform="translate(-129.299 -17.619)" fill="#dee9f0"/>
        <path id="Trazado_236452" data-name="Trazado 236452" d="M626.315,121.372a27.25,27.25,0,1,1-27.25-27.129,27.19,27.19,0,0,1,27.25,27.129" transform="translate(-133.742 -22.042)" fill="#e0b870"/>
        <path id="Trazado_236453" data-name="Trazado 236453" d="M604.006,181.863a13.389,13.389,0,0,1-5.038-.971,10.908,10.908,0,0,1-2.732-1.6,9.2,9.2,0,0,1-1.8-1.924,8.739,8.739,0,0,1-1.208-2.478,8.876,8.876,0,0,1-.378-2.556l.006-4.187-.034-.08a4.311,4.311,0,0,1-.369-1.723l.011-3.58.878,0c.184,1.441,1.322,2.83,3.187,3.865a15.841,15.841,0,0,0,7.55,1.751,15.624,15.624,0,0,0,7.794-1.9,5.339,5.339,0,0,0,2.871-3.651l.877,0-.012,3.579a4.34,4.34,0,0,1-.379,1.736l-.036.08-.007,4.153a8.725,8.725,0,0,1-1.125,4.266,9.453,9.453,0,0,1-3.455,3.49,11.453,11.453,0,0,1-2.662,1.165,13.725,13.725,0,0,1-3.135.539c-.272.018-.539.026-.8.026" transform="translate(-138.569 -38.068)" fill="#969ab1"/>
        <path id="Trazado_236454" data-name="Trazado 236454" d="M601.625,155.836a16.69,16.69,0,0,1-7.964-1.859c-2.626-1.458-3.961-3.611-3.572-5.76l.02-.113-.04-.108a9.318,9.318,0,0,1-.565-3.013,9.483,9.483,0,0,0-.929-3.878c-.038-.085-.083-.175-.13-.264-.106-.207-.169-.326-.234-.441-.151-.268-.265-.463-.381-.651-.421-.686-.873-1.341-1.22-1.836l-.638-.914-.082-.123a19.571,19.571,0,0,1-2.372-19.413,19.21,19.21,0,0,1,1.905-3.455,19.775,19.775,0,0,1,2.694-3.131c.341-.319.833-.765,1.248-1.077.674-.509,1.566-1.111,2.123-1.47a19.767,19.767,0,0,1,10.147-2.818A21.131,21.131,0,0,1,605,105.8a19.757,19.757,0,0,1,13.724,9.524,19.552,19.552,0,0,1-1.155,21.358l-.5.706c-.089.127-.741,1.046-.741,1.046-.324.464-.645.943-.947,1.433l-.323.546-.423.805a9.4,9.4,0,0,0-.937,3.841,9.223,9.223,0,0,1-.58,3.007l-.04.107.019.113c.356,2.034-.855,4.1-3.24,5.531a16.259,16.259,0,0,1-8.233,2.024" transform="translate(-136.115 -24.678)" fill="#ffb322"/>
        <path id="Trazado_236455" data-name="Trazado 236455" d="M611.235,164.711a10.806,10.806,0,0,0,1.751-1.4,9.419,9.419,0,0,0,1.42-1.8,8.887,8.887,0,0,0,1.3-4.43,4.25,4.25,0,0,1-.586,2.029,7.317,7.317,0,0,1-2.663,2.543c-4.463,2.674-11.852,2.749-16.5.166a7.584,7.584,0,0,1-3.015-2.771,4.245,4.245,0,0,1-.575-2.035,8.818,8.818,0,0,0,1.239,4.378,9.979,9.979,0,0,0,3.185,3.28c.172.113.355.222.545.328A15.117,15.117,0,0,0,611,164.86c.081-.049.161-.1.238-.149" transform="translate(-138.547 -36.723)" fill="#ffff54"/>
        <path id="Trazado_236456" data-name="Trazado 236456" d="M589.763,149.5l-.038-.069c-.116-.2-.233-.4-.351-.6-.417-.678-.876-1.346-1.233-1.858-.131-.185-.255-.363-.375-.533l-.2-.293c-.018-.027-.036-.054-.054-.08-.093-.135-.165-.242-.225-.338l-.08-.126c-.061-.1-.12-.2-.194-.319.1.181.214.361.336.538l0,0a11.4,11.4,0,0,0,3.958,3.405c6.626,3.677,17.152,3.572,23.508-.237a10.412,10.412,0,0,0,3.793-3.621l0,0,0,0c-.11.188-.244.4-.391.614h0l-.077.115v0c-.159.232-.336.482-.523.745l.01-.013c-.122.169-.247.348-.377.531l0-.005c-.032.048-.066.094-.1.143v0c-.042.062-.084.12-.127.183.043-.064.085-.12.127-.182-.319.456-.647.945-.954,1.444-.064.1-.127.211-.189.317-.113.191-.224.382-.326.573l-.059.109a9.869,9.869,0,0,0-1.172,4.394,4.257,4.257,0,0,1-.586,2.029,7.316,7.316,0,0,1-2.663,2.543c-4.463,2.673-11.852,2.747-16.5.166a7.6,7.6,0,0,1-3.016-2.772,4.239,4.239,0,0,1-.575-2.035,9.865,9.865,0,0,0-.967-4.035c-.049-.109-.109-.224-.166-.339-.071-.133-.142-.268-.214-.4" transform="translate(-137.296 -33.981)" fill="#ffe036"/>
        <path id="Trazado_236457" data-name="Trazado 236457" d="M616.88,137.19a19.194,19.194,0,0,0,4.128-10.544,19.139,19.139,0,0,0-2.523-10.986,19.328,19.328,0,0,0-13.415-9.316,19.481,19.481,0,0,0-6.08-.077,19.245,19.245,0,0,0-7.139,2.547c2.534-1.518,6.071-1.371,9.981.8-3.909-2.17-7.447-2.317-9.981-.8-.643.414-1.487.991-2.1,1.452-.384.29-.862.72-1.214,1.049a19.528,19.528,0,0,0-2.64,3.067,19.05,19.05,0,0,0-2.991,7.005,19.141,19.141,0,0,0,3.721,15.721,11.929,11.929,0,0,0,3.625,2.95c6.626,3.678,17.151,3.572,23.508-.237a11.488,11.488,0,0,0,3.117-2.632" transform="translate(-136.245 -24.807)" fill="#ffe036"/>
        <path id="Trazado_236458" data-name="Trazado 236458" d="M604.491,154.579c4.529,0,10.223,1.928,10.223,5.4v10.759s-20.647-1.234-20.647-6.517.667-9.642,10.424-9.642" transform="translate(-138.946 -36.154)" fill="#e2e1e2"/>
        <path id="Trazado_236459" data-name="Trazado 236459" d="M615.013,173.252l.011-6.687c0,1.539-1,3.078-2.991,4.273-4.108,2.462-10.909,2.53-15.19.153-2.2-1.223-3.31-2.856-3.306-4.488l-.011,6.687c-.005,1.632,1.1,3.264,3.306,4.487,4.282,2.377,11.083,2.309,15.19-.152,1.993-1.194,2.987-2.733,2.991-4.273" transform="translate(-138.82 -38.943)" fill="#b8bcd1"/>
        <path id="Trazado_236460" data-name="Trazado 236460" d="M596.832,175.706c4.282,2.377,11.083,2.308,15.19-.152,1.994-1.2,2.987-2.733,2.991-4.273l.009-3.818c0-.008,0-.018,0-.028l-.011,4.882c0,1.538-1,3.078-2.991,4.272-4.107,2.462-10.909,2.53-15.19.154-2.2-1.223-3.31-2.857-3.306-4.488l0-1.008c.008,1.623,1.112,3.244,3.3,4.46" transform="translate(-138.82 -39.161)" fill="#b0b3c4"/>
        <path id="Trazado_236461" data-name="Trazado 236461" d="M596.832,173.582c4.282,2.377,11.083,2.308,15.19-.152,1.994-1.2,2.987-2.733,2.991-4.273l.009-3.818s0-.018,0-.028l-.011,4.882c0,1.538-1,3.077-2.991,4.271-4.107,2.462-10.909,2.53-15.19.154-2.2-1.223-3.31-2.857-3.306-4.488l0-1.007c.008,1.622,1.112,3.244,3.3,4.46" transform="translate(-138.82 -38.665)" fill="#b0b3c4"/>
        <path id="Trazado_236462" data-name="Trazado 236462" d="M610.636,182.69a9.061,9.061,0,0,0,3.312-3.344,8.3,8.3,0,0,0,1.066-4.053c0,1.539-1,3.078-2.992,4.273-4.108,2.462-10.909,2.53-15.19.152-2.2-1.223-3.31-2.855-3.306-4.488a8.442,8.442,0,0,0,.359,2.446,8.335,8.335,0,0,0,1.148,2.359,8.791,8.791,0,0,0,1.715,1.836,10.485,10.485,0,0,0,2.641,1.551,13.075,13.075,0,0,0,5.642.909,13.379,13.379,0,0,0,3.044-.522,11.029,11.029,0,0,0,2.56-1.119" transform="translate(-138.82 -40.985)" fill="#b1b4c5"/>
        <path id="Trazado_236463" data-name="Trazado 236463" d="M615.314,166.277l.013-4c0,1.6-1.035,3.2-3.1,4.436-4.265,2.555-11.326,2.626-15.771.159-2.288-1.27-3.437-2.965-3.431-4.659l-.013,4c-.005,1.695,1.144,3.389,3.431,4.659,4.445,2.468,11.505,2.4,15.77-.159,2.07-1.24,3.1-2.838,3.105-4.436" transform="translate(-138.698 -37.939)" fill="#b8bcd1"/>
        <path id="Trazado_236464" data-name="Trazado 236464" d="M611.9,155.663c4.445,2.468,4.591,6.539.327,9.094s-11.325,2.626-15.771.159-4.591-6.539-.326-9.094,11.325-2.626,15.77-.159m-14.7.755c-3.695,2.214-3.568,5.742.283,7.88a15.115,15.115,0,0,0,13.665-.138c3.695-2.214,3.568-5.742-.283-7.88s-9.969-2.076-13.664.138" transform="translate(-138.702 -35.986)" fill="#ffe036"/>
        <path id="Trazado_236465" data-name="Trazado 236465" d="M627.644,146.314l.075-.111c-.025.038-.049.074-.075.111" transform="translate(-146.8 -34.195)" fill="#fff"/>
        <path id="Trazado_236466" data-name="Trazado 236466" d="M626.487,147.833l.363-.513c-.117.165-.239.336-.363.513" transform="translate(-146.529 -34.457)" fill="#fff"/>
        <path id="Trazado_236467" data-name="Trazado 236467" d="M597.659,156.681c3.695-2.214,9.813-2.275,13.664-.138s3.978,5.666.283,7.88a15.115,15.115,0,0,1-13.665.138c-3.851-2.138-3.978-5.666-.283-7.88" transform="translate(-139.157 -36.248)" fill="#ffce36"/>
        <path id="Trazado_236468" data-name="Trazado 236468" d="M600.339,159.265c-2.682,1.607-2.59,4.168.205,5.72a10.971,10.971,0,0,0,9.918-.1c2.682-1.607,2.59-4.168-.205-5.719a10.971,10.971,0,0,0-9.918.1" transform="translate(-139.956 -36.962)" fill="#ffb322"/>
        <path id="Trazado_236469" data-name="Trazado 236469" d="M609.566,162.2l.006-2.135a1.516,1.516,0,0,1-.866,1.236,4.863,4.863,0,0,1-4.394.044,1.57,1.57,0,0,1-.956-1.3l-.006,2.136a1.57,1.57,0,0,0,.956,1.3,4.858,4.858,0,0,0,4.394-.044,1.516,1.516,0,0,0,.866-1.236" transform="translate(-141.117 -37.434)" fill="#ffff7f"/>
        <path id="Trazado_236470" data-name="Trazado 236470" d="M609.3,159.816l.791-2.3a2.2,2.2,0,0,1-1.013,1.119,6.111,6.111,0,0,1-5.525.056,2.287,2.287,0,0,1-1.13-1.2q.39,1.155.778,2.309a1.825,1.825,0,0,0,.9.951,4.858,4.858,0,0,0,4.394-.044,1.754,1.754,0,0,0,.806-.889" transform="translate(-140.899 -36.835)" fill="#ffff7f"/>
        <path id="Trazado_236471" data-name="Trazado 236471" d="M610.013,157.076a4.417,4.417,0,0,0,.243-1.443,1.987,1.987,0,0,1-1.134,1.62,6.368,6.368,0,0,1-5.757.057,2.057,2.057,0,0,1-1.253-1.7,4.443,4.443,0,0,0,.234,1.444,2.287,2.287,0,0,0,1.129,1.192,6.11,6.11,0,0,0,5.524-.055,2.209,2.209,0,0,0,1.012-1.115" transform="translate(-140.828 -36.396)" fill="#ffff7f"/>
        <path id="Trazado_236472" data-name="Trazado 236472" d="M610.256,154.253l.012-4.519a1.981,1.981,0,0,1-1.133,1.619,6.364,6.364,0,0,1-5.756.058,2.055,2.055,0,0,1-1.253-1.7l-.013,4.519a2.057,2.057,0,0,0,1.253,1.7,6.364,6.364,0,0,0,5.756-.058,1.984,1.984,0,0,0,1.134-1.619" transform="translate(-140.828 -35.016)" fill="#ffff9b"/>
        <path id="Trazado_236473" data-name="Trazado 236473" d="M610.26,153.587l0,1.56a1.987,1.987,0,0,1-1.133,1.619,6.369,6.369,0,0,1-5.757.057,2.056,2.056,0,0,1-1.252-1.7l0-1.6a28.644,28.644,0,0,0,8.141.061" transform="translate(-140.828 -35.908)" fill="#ffff7f"/>
        <path id="Trazado_236474" data-name="Trazado 236474" d="M608.385,145.267a4.6,4.6,0,0,0-2.236-.539,4.8,4.8,0,0,0-1.1.136,4.21,4.21,0,0,0-1.142.464.824.824,0,0,1,.309-.11,4.309,4.309,0,0,1,3.9-.039c1.1.61,1.135,1.616.081,2.249a4.314,4.314,0,0,1-3.9.039c-1.1-.61-1.135-1.617-.08-2.249a.824.824,0,0,0-.309.11c-.109.069-.254.162-.357.242a3.743,3.743,0,0,0-.354.313,3.619,3.619,0,0,0-.586.781,3.9,3.9,0,0,0-.482,1.882,2.058,2.058,0,0,0,1.253,1.7,6.368,6.368,0,0,0,5.756-.058,1.984,1.984,0,0,0,1.134-1.619,4.156,4.156,0,0,0-.135-1.042,3.834,3.834,0,0,0-.408-.968,3.493,3.493,0,0,0-.577-.725,3.67,3.67,0,0,0-.768-.567" transform="translate(-140.832 -33.851)" fill="#ffff9b"/>
        <path id="Trazado_236475" data-name="Trazado 236475" d="M607.4,137.107c-.028.017-.028.044,0,.06a.114.114,0,0,0,.1,0c.028-.017.028-.044,0-.061a.116.116,0,0,0-.1,0" transform="translate(-142.061 -32.065)" fill="#f5f6f6"/>
        <path id="Trazado_236476" data-name="Trazado 236476" d="M607.713,136.956a1.721,1.721,0,0,0-.853-.219,1.7,1.7,0,0,0-.873.25.814.814,0,0,1,.84.038.116.116,0,0,1,.1,0c.029.017.03.044,0,.061a.115.115,0,0,1-.1,0c-.029-.016-.03-.043,0-.06a.814.814,0,0,0-.84-.038,1.976,1.976,0,0,0-.4.317,2.288,2.288,0,0,0-.267.334,2.611,2.611,0,0,0-.395,1.066.937.937,0,0,0,.6.909,3.058,3.058,0,0,0,2.766-.028.906.906,0,0,0,.538-.871,2.63,2.63,0,0,0-.388-1.067,2.043,2.043,0,0,0-.724-.691" transform="translate(-141.485 -31.981)" fill="#ffff9b"/>
        <path id="Trazado_236477" data-name="Trazado 236477" d="M609.36,144.931q-.392-2.809-.783-5.616a.906.906,0,0,1-.539.871,3.061,3.061,0,0,1-2.766.028.938.938,0,0,1-.595-.91q-.408,2.806-.815,5.612a1.321,1.321,0,0,0,.839,1.283,4.316,4.316,0,0,0,3.9-.039,1.278,1.278,0,0,0,.758-1.228" transform="translate(-141.235 -32.582)" fill="#ffff9b"/>
        <path id="Trazado_236478" data-name="Trazado 236478" d="M610.139,143.992l-.25-.054,3.139-14.283.25.054Z" transform="translate(-142.647 -30.325)" fill="#fff"/>
        <rect id="Rectángulo_100738" data-name="Rectángulo 100738" width="0.256" height="18.336" transform="translate(460.255 93.753) rotate(-7.428)" fill="#fff"/>
        <rect id="Rectángulo_100739" data-name="Rectángulo 100739" width="0.256" height="12.278" transform="translate(467.239 113.64)" fill="#fff"/>
        <rect id="Rectángulo_100740" data-name="Rectángulo 100740" width="0.257" height="12.279" transform="translate(462.624 111.919)" fill="#fff"/>
        <path id="Trazado_236479" data-name="Trazado 236479" d="M613.5,129.288a.548.548,0,0,1-.276-.071.683.683,0,0,1-.3-.63,1.9,1.9,0,0,1,.878-1.508.7.7,0,0,1,.7-.058.684.684,0,0,1,.3.63,1.9,1.9,0,0,1-.877,1.508.873.873,0,0,1-.43.129m.73-2.083a.624.624,0,0,0-.3.095,1.671,1.671,0,0,0-.749,1.287.447.447,0,0,0,.172.409.459.459,0,0,0,.45-.057,1.673,1.673,0,0,0,.749-1.288.444.444,0,0,0-.172-.408.292.292,0,0,0-.149-.038" transform="translate(-143.356 -29.692)" fill="#fff"/>
        <path id="Trazado_236480" data-name="Trazado 236480" d="M600.282,121.952a.54.54,0,0,1-.276-.071.682.682,0,0,1-.3-.63,1.9,1.9,0,0,1,.877-1.508.7.7,0,0,1,.706-.057.682.682,0,0,1,.3.63,1.9,1.9,0,0,1-.877,1.508.873.873,0,0,1-.43.129m.73-2.082a.619.619,0,0,0-.3.095,1.668,1.668,0,0,0-.75,1.286.445.445,0,0,0,.172.409.458.458,0,0,0,.449-.057,1.67,1.67,0,0,0,.75-1.287.446.446,0,0,0-.172-.409.3.3,0,0,0-.149-.037" transform="translate(-140.265 -27.977)" fill="#fff"/>
        <path id="Trazado_236481" data-name="Trazado 236481" d="M610.053,127.095c-.027,0-.053,0-.079,0l.025-.235a1.113,1.113,0,0,0,.881-.473.627.627,0,0,0,.093-.65c-.147-.312-.735-.86-3.022-1.027-4.645-.339-5.583-2.991-5.76-3.8a.72.72,0,0,0-.59-.611,1,1,0,0,0-.963.443c-.383.636-.6,1.008-.6,1.008l-.205-.119s.218-.373.6-1.011a1.221,1.221,0,0,1,1.2-.554.954.954,0,0,1,.784.794c.168.765,1.065,3.284,5.546,3.611,2.286.167,3.012.724,3.219,1.162a.854.854,0,0,1-.114.887,1.374,1.374,0,0,1-1.021.575" transform="translate(-140.295 -28.079)" fill="#fff"/>
        <path id="Trazado_236482" data-name="Trazado 236482" d="M618.446,120.87c1.877,2.412,4.482,3.53,5.82,2.5s.9-3.823-.978-6.235-4.483-3.531-5.819-2.5-.9,3.823.977,6.235" transform="translate(-144.239 -26.722)" fill="#ffff9b"/>
        <path id="Trazado_236483" data-name="Trazado 236483" d="M881.895,151.894v38.394l66.717-10.912-7.326-64.213Z" transform="translate(-206.266 -26.936)" fill="#ccc199"/>
        <rect id="Rectángulo_100741" data-name="Rectángulo 100741" width="54.56" height="38.394" transform="translate(621.069 124.959)" fill="#fff2bf"/>
        <path id="Trazado_236484" data-name="Trazado 236484" d="M1115.309,112.465H964.361a33.14,33.14,0,0,0,0,66.28h150.948a33.14,33.14,0,1,0,0-66.28" transform="translate(-217.803 -26.304)" fill="#fff2bf"/>
        <path id="Trazado_236485" data-name="Trazado 236485" d="M881.895,263.751V225.357l66.717,10.912-7.326,64.213Z" transform="translate(-206.266 -52.709)" fill="#d44326"/>
        <rect id="Rectángulo_100742" data-name="Rectángulo 100742" width="54.56" height="38.394" transform="translate(621.069 172.648)" fill="#fc502d"/>
        <path id="Trazado_236486" data-name="Trazado 236486" d="M1115.309,305.881H964.361a33.14,33.14,0,0,1,0-66.28h150.948a33.14,33.14,0,1,1,0,66.28" transform="translate(-217.803 -56.04)" fill="#fc502d"/>
        <path id="Trazado_236487" data-name="Trazado 236487" d="M312.5,151.894v38.394l-66.717-10.912,7.326-64.213Z" transform="translate(-57.487 -26.936)" fill="#b0b9bf"/>
        <rect id="Rectángulo_100743" data-name="Rectángulo 100743" width="54.56" height="38.394" transform="translate(255.017 124.959)" fill="#dee9f0"/>
        <path id="Trazado_236488" data-name="Trazado 236488" d="M33.14,112.465H184.089a33.14,33.14,0,0,1,0,66.28H33.14a33.14,33.14,0,1,1,0-66.28" transform="translate(0 -26.304)" fill="#dee9f0"/>
        <path id="Trazado_236489" data-name="Trazado 236489" d="M312.5,263.751V225.357l-66.717,10.912,7.326,64.213Z" transform="translate(-57.487 -52.709)" fill="#091754"/>
        <rect id="Rectángulo_100744" data-name="Rectángulo 100744" width="54.56" height="38.394" transform="translate(255.017 172.648)" fill="#0d2380"/>
        <path id="Trazado_236490" data-name="Trazado 236490" d="M33.14,305.881H184.089a33.14,33.14,0,0,0,0-66.28H33.14a33.14,33.14,0,1,0,0,66.28" transform="translate(0 -56.04)" fill="#0d2380"/>
        <path id="Trazado_236491" data-name="Trazado 236491" d="M965.656,142.489c4.2,0,7.008,3.3,7.008,8.266,0,5.012-2.8,8.362-7.008,8.362h-5.321V142.489Zm-.047,13.421c2.233,0,3.706-2.043,3.706-5.131,0-3.041-1.473-5.084-3.706-5.084h-1.924V155.91Z" transform="translate(-224.613 -33.327)" fill="#fc502d"/>
        <path id="Trazado_236492" data-name="Trazado 236492" d="M984.4,158.251a6.055,6.055,0,0,0,3.064-.9l-.071,2.565a5.928,5.928,0,0,1-3.372.951c-3.373,0-5.7-1.639-5.7-6.01,0-4.062,2.731-5.914,5.225-5.914,2.946,0,4.3,1.544,4.3,3.444,0,2.612-2.565,4.7-6.461,3.635.309,1.732,1.5,2.232,3.017,2.232M981.4,153.9c2.019.642,3.467.118,3.467-1.212,0-.736-.474-1.164-1.4-1.164-.736,0-1.8.572-2.066,2.376" transform="translate(-228.818 -34.835)" fill="#fc502d"/>
        <path id="Trazado_236493" data-name="Trazado 236493" d="M995.57,157.063a1.336,1.336,0,0,0,1.354,1.4c.832,0,1.4-.428,1.4-1.188a1.237,1.237,0,0,0-1.212-1.235c-1.9-.309-4.442-.926-4.442-3.516,0-2.185,1.686-3.587,4.252-3.587,2.28,0,4.346,1.212,4.228,3.611h-2.779A1.264,1.264,0,0,0,997,151.433c-.76,0-1.259.38-1.259,1.046,0,.855.689,1.045,1.259,1.116,2.185.309,4.489.689,4.489,3.634,0,2.185-1.757,3.634-4.418,3.634-2.969,0-4.514-1.52-4.584-3.8Z" transform="translate(-232.132 -34.835)" fill="#fc502d"/>
        <path id="Trazado_236494" data-name="Trazado 236494" d="M1015.879,150.008v6.983c0,.974.071,1.5,1,1.426v2.138c-1.472.5-3.42.427-3.539-1.9a3.548,3.548,0,0,1-3.135,2.209c-2.566,0-4.205-1.924-4.205-5.534,0-3.825,2.258-6.39,5.678-6.39a9.762,9.762,0,0,1,4.2,1.069m-3.041,1.924a2.6,2.6,0,0,0-1.259-.356c-1.5,0-2.47,1.378-2.47,3.754,0,1.5.57,2.589,1.781,2.589s1.947-1.4,1.947-3.4Z" transform="translate(-235.293 -34.835)" fill="#fc502d"/>
        <path id="Trazado_236495" data-name="Trazado 236495" d="M1028.453,148.939a3.318,3.318,0,0,1,2.209.855l-.9,2.566a2.9,2.9,0,0,0-1.686-.522c-1.211,0-2.21.854-2.21,2.755v6.034H1022.8V152.6c0-.95-.261-1.567-1.116-1.4v-2.042c1.4-.38,3.9-.4,4.086,1.616a2.813,2.813,0,0,1,2.684-1.829" transform="translate(-238.961 -34.835)" fill="#fc502d"/>
        <path id="Trazado_236496" data-name="Trazado 236496" d="M1040.915,148.939a3.318,3.318,0,0,1,2.209.855l-.9,2.566a2.9,2.9,0,0,0-1.686-.522c-1.211,0-2.209.854-2.209,2.755v6.034h-3.064V152.6c0-.95-.262-1.567-1.117-1.4v-2.042c1.4-.38,3.9-.4,4.086,1.616a2.813,2.813,0,0,1,2.684-1.829" transform="translate(-241.876 -34.835)" fill="#fc502d"/>
        <path id="Trazado_236497" data-name="Trazado 236497" d="M1051.725,160.863c-3.159,0-5.273-2.4-5.273-6.009,0-3.539,2.115-5.914,5.273-5.914,3.112,0,5.2,2.375,5.2,5.914,0,3.611-2.091,6.009-5.2,6.009m0-2.9c1.26,0,2.091-1.211,2.091-3.112,0-1.8-.831-2.993-2.091-2.993-1.306,0-2.137,1.188-2.137,2.993,0,1.9.831,3.112,2.137,3.112" transform="translate(-244.755 -34.835)" fill="#fc502d"/>
        <path id="Trazado_236498" data-name="Trazado 236498" d="M1065.63,154.586c0,1.425.38,1.948,1.211,1.948a2.3,2.3,0,0,0,.618-.1l.095,2.494a5.876,5.876,0,0,1-1.64.19c-2.066,0-3.372-1.234-3.372-4.537V141.5h3.088Z" transform="translate(-248.518 -33.095)" fill="#fc502d"/>
        <path id="Trazado_236499" data-name="Trazado 236499" d="M1073.658,154.586c0,1.425.38,1.948,1.212,1.948a2.3,2.3,0,0,0,.617-.1l.1,2.494a5.876,5.876,0,0,1-1.64.19c-2.066,0-3.372-1.234-3.372-4.537V141.5h3.087Z" transform="translate(-250.396 -33.095)" fill="#fc502d"/>
        <path id="Trazado_236500" data-name="Trazado 236500" d="M1083.252,160.863c-3.159,0-5.273-2.4-5.273-6.009,0-3.539,2.114-5.914,5.273-5.914,3.112,0,5.2,2.375,5.2,5.914,0,3.611-2.09,6.009-5.2,6.009m0-2.9c1.259,0,2.091-1.211,2.091-3.112,0-1.8-.831-2.993-2.091-2.993-1.306,0-2.137,1.188-2.137,2.993,0,1.9.831,3.112,2.137,3.112" transform="translate(-252.128 -34.835)" fill="#fc502d"/>
        <path id="Trazado_236501" data-name="Trazado 236501" d="M1108.914,142.49v3.088h-3.587v13.539h-3.278V145.578h-3.611V142.49Z" transform="translate(-256.914 -33.327)" fill="#fc502d"/>
        <path id="Trazado_236502" data-name="Trazado 236502" d="M1117.508,156.656a6.063,6.063,0,0,0,3.064-.9l-.072,2.565a5.934,5.934,0,0,1-3.372.95c-3.372,0-5.7-1.639-5.7-6.009,0-4.063,2.733-5.915,5.227-5.915,2.945,0,4.3,1.544,4.3,3.444,0,2.613-2.565,4.7-6.461,3.635.31,1.733,1.5,2.232,3.017,2.232m-2.993-4.347c2.019.641,3.468.118,3.468-1.212,0-.736-.475-1.164-1.4-1.164-.737,0-1.8.57-2.067,2.376m2.139-10.191,2.684,1.045v.261l-1.806,2.423h-2.351v-.285Z" transform="translate(-259.952 -33.24)" fill="#fc502d"/>
        <path id="Trazado_236503" data-name="Trazado 236503" d="M1132.76,153.31a1.876,1.876,0,0,0-1.9-1.449c-1.236,0-2.068,1.188-2.068,2.994,0,1.9.832,3.159,2.138,3.159a2.006,2.006,0,0,0,1.852-1.782h2.969c-.38,3.255-2.494,4.632-4.822,4.632-3.159,0-5.273-2.4-5.273-6.009,0-3.539,2.091-5.915,5.226-5.915a4.733,4.733,0,0,1,4.846,4.371Z" transform="translate(-263.28 -34.835)" fill="#fc502d"/>
        <path id="Trazado_236504" data-name="Trazado 236504" d="M1141.429,152.811c0-1.259-.118-1.662-1.14-1.5v-2.043c1.426-.38,3.872-.854,4.133,1.616a3.513,3.513,0,0,1,3.184-1.948c2.3,0,3.586,1.711,3.586,5.06v2.874c0,1.544.19,1.782,1.211,1.71v1.948c-2.185.618-4.347.309-4.347-2.874V154c0-1.521-.618-2.423-1.663-2.423-.926,0-1.8.879-1.8,2.494v6.556h-3.159Z" transform="translate(-266.702 -34.835)" fill="#fc502d"/>
        <path id="Trazado_236505" data-name="Trazado 236505" d="M1159.563,142.179a1.916,1.916,0,0,1,.025,3.824,1.8,1.8,0,0,1-1.877-1.924,1.766,1.766,0,0,1,1.852-1.9m-1.591,5.417h3.136v11.449h-3.136Z" transform="translate(-270.777 -33.254)" fill="#fc502d"/>
        <path id="Trazado_236506" data-name="Trazado 236506" d="M1171.82,153.31a1.876,1.876,0,0,0-1.9-1.449c-1.236,0-2.067,1.188-2.067,2.994,0,1.9.831,3.159,2.137,3.159a2.008,2.008,0,0,0,1.853-1.782h2.969c-.38,3.255-2.495,4.632-4.822,4.632-3.159,0-5.273-2.4-5.273-6.009,0-3.539,2.09-5.915,5.226-5.915a4.732,4.732,0,0,1,4.845,4.371Z" transform="translate(-272.416 -34.835)" fill="#fc502d"/>
        <path id="Trazado_236507" data-name="Trazado 236507" d="M1184.839,160.863c-3.159,0-5.273-2.4-5.273-6.009,0-3.539,2.115-5.914,5.273-5.914,3.112,0,5.2,2.375,5.2,5.914,0,3.611-2.091,6.009-5.2,6.009m0-2.9c1.26,0,2.091-1.211,2.091-3.112,0-1.8-.831-2.993-2.091-2.993-1.306,0-2.137,1.188-2.137,2.993,0,1.9.831,3.112,2.137,3.112" transform="translate(-275.889 -34.835)" fill="#fc502d"/>
        <path id="Trazado_236508" data-name="Trazado 236508" d="M1002.4,266.122a3.779,3.779,0,0,1,2.09,3.706,4.682,4.682,0,0,1-4.988,4.917h-6.176V258.117h5.653a4.656,4.656,0,0,1,4.917,4.941,3.781,3.781,0,0,1-1.5,3.064m-3.444-1.164a1.674,1.674,0,0,0,1.639-1.852c0-1.164-.617-1.948-1.639-1.948H996.68v3.8Zm.594,6.7a1.624,1.624,0,0,0,1.616-1.829,1.74,1.74,0,0,0-1.71-1.972h-2.78v3.8Z" transform="translate(-232.33 -60.371)" fill="#fff2bf"/>
        <path id="Trazado_236509" data-name="Trazado 236509" d="M1012.078,257.807a1.916,1.916,0,0,1,.024,3.824,1.8,1.8,0,0,1-1.876-1.923,1.766,1.766,0,0,1,1.852-1.9m-1.59,5.416h3.135v11.449h-3.135Z" transform="translate(-236.281 -60.298)" fill="#fff2bf"/>
        <path id="Trazado_236510" data-name="Trazado 236510" d="M1020.755,264.658a3.514,3.514,0,0,1,2.97-1.782c2.422,0,4.037,2.233,3.967,5.844-.072,4.348-2.661,6.081-5.631,6.081a9.567,9.567,0,0,1-4.181-1.069v-16.39h2.874Zm.19,7.1a3.263,3.263,0,0,0,1.4.309c1.33,0,2.115-1.046,2.185-3.326.071-1.995-.546-2.969-1.757-2.969-1.26,0-1.83,1.638-1.83,3.159Z" transform="translate(-238.072 -60.19)" fill="#fff2bf"/>
        <path id="Trazado_236511" data-name="Trazado 236511" d="M1036.253,270.213c0,1.426.38,1.948,1.21,1.948a2.315,2.315,0,0,0,.618-.094l.1,2.494a5.879,5.879,0,0,1-1.64.19c-2.066,0-3.372-1.235-3.372-4.538V257.125h3.088Z" transform="translate(-241.647 -60.139)" fill="#fff2bf"/>
        <path id="Trazado_236512" data-name="Trazado 236512" d="M1042.8,257.807a1.916,1.916,0,0,1,.024,3.824,1.8,1.8,0,0,1-1.876-1.923,1.766,1.766,0,0,1,1.852-1.9m-1.59,5.416h3.135v11.449h-3.135Z" transform="translate(-243.467 -60.298)" fill="#fff2bf"/>
        <path id="Trazado_236513" data-name="Trazado 236513" d="M1053.193,276.491c-3.159,0-5.273-2.4-5.273-6.009,0-3.539,2.115-5.915,5.273-5.915,3.112,0,5.2,2.376,5.2,5.915,0,3.61-2.091,6.009-5.2,6.009m0-2.9c1.26,0,2.091-1.212,2.091-3.112,0-1.8-.83-2.993-2.091-2.993-1.306,0-2.137,1.188-2.137,2.993,0,1.9.83,3.112,2.137,3.112" transform="translate(-245.098 -61.879)" fill="#fff2bf"/>
        <path id="Trazado_236514" data-name="Trazado 236514" d="M1070.38,274.686a3.1,3.1,0,0,1-2.827,1.806c-2.47,0-4.132-2.162-4.132-5.8.072-3.682,2.162-6.129,5.487-6.129a8.807,8.807,0,0,1,4.371,1.116v10.69c0,3.967-1.758,6.058-5.107,6.058a7.88,7.88,0,0,1-4.109-1.259l.26-2.446a6.369,6.369,0,0,0,3.206,1c1.9,0,2.851-.95,2.851-3.325Zm-.166-7.079a3.3,3.3,0,0,0-1.424-.332c-1.331,0-2.21,1.354-2.21,3.421,0,1.9.642,3.041,1.806,3.041,1.259,0,1.829-1.615,1.829-3.231Z" transform="translate(-248.724 -61.879)" fill="#fff2bf"/>
        <path id="Trazado_236515" data-name="Trazado 236515" d="M1085.35,264.566a3.318,3.318,0,0,1,2.209.856l-.9,2.565a2.905,2.905,0,0,0-1.685-.522c-1.212,0-2.21.855-2.21,2.756v6.034H1079.7v-8.03c0-.95-.26-1.567-1.117-1.4v-2.042c1.4-.38,3.9-.4,4.086,1.616a2.813,2.813,0,0,1,2.685-1.83" transform="translate(-252.269 -61.879)" fill="#fff2bf"/>
        <path id="Trazado_236516" data-name="Trazado 236516" d="M1100.673,265.635v6.983c0,.974.071,1.5,1,1.425v2.138c-1.472.5-3.42.427-3.539-1.9a3.549,3.549,0,0,1-3.136,2.209c-2.565,0-4.205-1.924-4.205-5.534,0-3.825,2.259-6.391,5.678-6.391a9.751,9.751,0,0,1,4.2,1.069m-3.041,1.924a2.6,2.6,0,0,0-1.259-.357c-1.5,0-2.47,1.378-2.47,3.755,0,1.5.57,2.588,1.782,2.588s1.947-1.4,1.947-3.4Z" transform="translate(-255.125 -61.879)" fill="#fff2bf"/>
        <path id="Trazado_236517" data-name="Trazado 236517" d="M1106.229,263.037h1.758l.024-1.449c0-3.349,1.782-4.679,3.895-4.679a6.3,6.3,0,0,1,2.59.57l-.309,2.447a3.061,3.061,0,0,0-1.543-.356c-.88,0-1.592.546-1.592,2.09v1.378H1114v2.351h-2.945v9.075h-3.088v-9.075h-1.734Z" transform="translate(-258.736 -60.088)" fill="#fff2bf"/>
        <path id="Trazado_236518" data-name="Trazado 236518" d="M1119.779,257.341l2.754,1.07v.284l-1.828,2.494h-2.447v-.284Zm-1.5,5.773h3.135v11.45h-3.135Z" transform="translate(-261.549 -60.189)" fill="#fff2bf"/>
        <path id="Trazado_236519" data-name="Trazado 236519" d="M1134.835,265.635v6.983c0,.974.071,1.5,1,1.425v2.138c-1.473.5-3.42.427-3.54-1.9a3.547,3.547,0,0,1-3.134,2.209c-2.566,0-4.205-1.924-4.205-5.534,0-3.825,2.257-6.391,5.677-6.391a9.758,9.758,0,0,1,4.205,1.069m-3.041,1.924a2.611,2.611,0,0,0-1.259-.357c-1.5,0-2.47,1.378-2.47,3.755,0,1.5.57,2.588,1.781,2.588s1.948-1.4,1.948-3.4Z" transform="translate(-263.115 -61.879)" fill="#fff2bf"/>
        <path id="Trazado_236520" data-name="Trazado 236520" d="M1153.942,274.671a2.772,2.772,0,0,1-2.565,1.829c-2.636,0-4.062-1.616-4.062-5.534v-2.732c0-.951-.356-1.212-1.187-1.141v-2.256c2.066-.57,4.275-.237,4.275,2.731v3.16c0,2.184.594,3.04,1.71,3.04,1.521,0,1.663-2.209,1.663-3.752v-5.2h3.088v11.663c0,4.109-2.232,5.962-4.941,5.962a8.468,8.468,0,0,1-4.275-1.282l.118-2.543a7.3,7.3,0,0,0,3.515,1.047c1.521,0,2.661-.522,2.661-3.183Z" transform="translate(-268.068 -61.889)" fill="#fff2bf"/>
        <path id="Trazado_236521" data-name="Trazado 236521" d="M1010.98,295.566a3.317,3.317,0,0,1,2.209.856l-.9,2.565a2.906,2.906,0,0,0-1.686-.522c-1.212,0-2.21.855-2.21,2.756v6.034h-3.064v-8.03c0-.95-.26-1.567-1.116-1.4v-2.042c1.4-.38,3.9-.4,4.086,1.616a2.812,2.812,0,0,1,2.684-1.83" transform="translate(-234.874 -69.13)" fill="#fff2bf"/>
        <path id="Trazado_236522" data-name="Trazado 236522" d="M1022.629,304.877a6.06,6.06,0,0,0,3.064-.9l-.071,2.566a5.943,5.943,0,0,1-3.374.95c-3.372,0-5.7-1.639-5.7-6.01,0-4.062,2.732-5.914,5.226-5.914,2.945,0,4.3,1.544,4.3,3.445,0,2.612-2.564,4.7-6.461,3.634.31,1.734,1.5,2.232,3.016,2.232m-2.992-4.347c2.02.642,3.468.119,3.468-1.211,0-.737-.476-1.164-1.4-1.164-.736,0-1.8.571-2.066,2.375" transform="translate(-237.76 -69.13)" fill="#fff2bf"/>
        <path id="Trazado_236523" data-name="Trazado 236523" d="M1030.313,294.037h1.758l.022-1.449c0-3.349,1.782-4.679,3.9-4.679a6.292,6.292,0,0,1,2.589.57l-.308,2.447a3.067,3.067,0,0,0-1.545-.356c-.878,0-1.592.546-1.592,2.09v1.378h2.947v2.351h-2.947v9.075h-3.087v-9.075h-1.734Z" transform="translate(-240.98 -67.339)" fill="#fff2bf"/>
        <path id="Trazado_236524" data-name="Trazado 236524" d="M1047.552,304.877a6.06,6.06,0,0,0,3.064-.9l-.07,2.566a5.943,5.943,0,0,1-3.374.95c-3.372,0-5.7-1.639-5.7-6.01,0-4.062,2.732-5.914,5.226-5.914,2.945,0,4.3,1.544,4.3,3.445,0,2.612-2.564,4.7-6.461,3.634.31,1.734,1.5,2.232,3.016,2.232m-2.992-4.347c2.02.642,3.468.119,3.468-1.211,0-.737-.476-1.164-1.4-1.164-.736,0-1.8.571-2.066,2.375" transform="translate(-243.59 -69.13)" fill="#fff2bf"/>
        <path id="Trazado_236525" data-name="Trazado 236525" d="M1062.254,295.566a3.321,3.321,0,0,1,2.21.856l-.9,2.565a2.9,2.9,0,0,0-1.686-.522c-1.21,0-2.209.855-2.209,2.756v6.034H1056.6v-8.03c0-.95-.262-1.567-1.116-1.4v-2.042c1.4-.38,3.895-.4,4.085,1.616a2.813,2.813,0,0,1,2.684-1.83" transform="translate(-246.867 -69.13)" fill="#fff2bf"/>
        <path id="Trazado_236526" data-name="Trazado 236526" d="M1073.9,304.877a6.067,6.067,0,0,0,3.064-.9l-.072,2.566a5.938,5.938,0,0,1-3.372.95c-3.372,0-5.7-1.639-5.7-6.01,0-4.062,2.732-5.914,5.225-5.914,2.947,0,4.3,1.544,4.3,3.445,0,2.612-2.566,4.7-6.461,3.634.308,1.734,1.5,2.232,3.016,2.232m-2.992-4.347c2.019.642,3.467.119,3.467-1.211,0-.737-.474-1.164-1.4-1.164-.736,0-1.806.571-2.066,2.375" transform="translate(-249.753 -69.13)" fill="#fff2bf"/>
        <path id="Trazado_236527" data-name="Trazado 236527" d="M1082.944,299.439c0-1.259-.119-1.662-1.141-1.5V295.9c1.424-.38,3.873-.855,4.133,1.615a3.511,3.511,0,0,1,3.183-1.948c2.3,0,3.588,1.711,3.588,5.061V303.5c0,1.543.189,1.781,1.21,1.71v1.947c-2.183.618-4.346.31-4.346-2.874v-3.657c0-1.521-.618-2.424-1.663-2.424-.925,0-1.8.879-1.8,2.494v6.556h-3.159Z" transform="translate(-253.023 -69.13)" fill="#fff2bf"/>
        <path id="Trazado_236528" data-name="Trazado 236528" d="M1105.987,299.937a1.876,1.876,0,0,0-1.9-1.449c-1.235,0-2.067,1.188-2.067,2.993,0,1.9.832,3.159,2.138,3.159a2.008,2.008,0,0,0,1.853-1.782h2.969c-.38,3.255-2.495,4.632-4.821,4.632-3.16,0-5.274-2.4-5.274-6.009,0-3.539,2.09-5.915,5.226-5.915a4.732,4.732,0,0,1,4.845,4.371Z" transform="translate(-257.018 -69.13)" fill="#fff2bf"/>
        <path id="Trazado_236529" data-name="Trazado 236529" d="M1115.958,288.807a1.916,1.916,0,0,1,.024,3.824,1.8,1.8,0,0,1-1.876-1.923,1.766,1.766,0,0,1,1.853-1.9m-1.592,5.416h3.136v11.449h-3.136Z" transform="translate(-260.578 -67.549)" fill="#fff2bf"/>
        <path id="Trazado_236530" data-name="Trazado 236530" d="M1130.993,296.635v6.983c0,.974.072,1.5,1,1.425v2.138c-1.473.5-3.42.428-3.54-1.9a3.547,3.547,0,0,1-3.135,2.209c-2.566,0-4.205-1.924-4.205-5.534,0-3.825,2.257-6.391,5.677-6.391a9.755,9.755,0,0,1,4.205,1.069m-3.04,1.924a2.61,2.61,0,0,0-1.259-.357c-1.5,0-2.47,1.378-2.47,3.755,0,1.5.569,2.588,1.78,2.588s1.948-1.4,1.948-3.4Z" transform="translate(-262.217 -69.13)" fill="#fff2bf"/>
        <path id="Trazado_236531" data-name="Trazado 236531" d="M1140.04,303.69a1.336,1.336,0,0,0,1.354,1.4c.83,0,1.4-.427,1.4-1.188a1.236,1.236,0,0,0-1.21-1.234c-1.9-.309-4.443-.926-4.443-3.516,0-2.184,1.686-3.586,4.253-3.586,2.28,0,4.346,1.212,4.228,3.61h-2.78a1.264,1.264,0,0,0-1.378-1.116c-.76,0-1.258.38-1.258,1.046,0,.854.688,1.044,1.258,1.116,2.186.308,4.491.688,4.491,3.634,0,2.184-1.758,3.634-4.419,3.634-2.969,0-4.513-1.52-4.584-3.8Z" transform="translate(-265.922 -69.13)" fill="#fff2bf"/>
        <path id="Trazado_236532" data-name="Trazado 236532" d="M53.1,159.118v-2.826H55V145.246H53.266V142.49h6.841v2.756H58.373v11.046h1.876v2.826Z" transform="translate(-12.42 -33.327)" fill="#0d2380"/>
        <path id="Trazado_236533" data-name="Trazado 236533" d="M65,152.811c0-1.259-.12-1.662-1.14-1.5v-2.043c1.424-.38,3.87-.854,4.132,1.616a3.513,3.513,0,0,1,3.183-1.948c2.3,0,3.586,1.711,3.586,5.06v2.874c0,1.544.19,1.782,1.212,1.71v1.948c-2.186.618-4.347.309-4.347-2.874V154c0-1.521-.617-2.423-1.663-2.423-.926,0-1.8.879-1.8,2.494v6.556H65Z" transform="translate(-14.936 -34.835)" fill="#0d2380"/>
        <path id="Trazado_236534" data-name="Trazado 236534" d="M88.166,150.639H85.1v4.442c0,1.591.784,2.137,1.734,2.161a3.233,3.233,0,0,0,1.473-.261l.285,2.422a8.718,8.718,0,0,1-2.589.451c-2.21,0-3.967-1.258-3.967-4.7v-4.513l-1.782-.19v-2.281h1.876l.332-3.539H85.1v3.539h3.064Z" transform="translate(-18.771 -33.827)" fill="#0d2380"/>
        <path id="Trazado_236535" data-name="Trazado 236535" d="M98.961,148.939a3.316,3.316,0,0,1,2.209.855l-.9,2.566a2.906,2.906,0,0,0-1.686-.522c-1.212,0-2.21.854-2.21,2.755v6.034H93.308V152.6c0-.95-.262-1.567-1.118-1.4v-2.042c1.4-.38,3.9-.4,4.086,1.616a2.812,2.812,0,0,1,2.684-1.829" transform="translate(-21.562 -34.835)" fill="#0d2380"/>
        <path id="Trazado_236536" data-name="Trazado 236536" d="M109.771,160.863c-3.159,0-5.273-2.4-5.273-6.009,0-3.539,2.114-5.914,5.273-5.914,3.112,0,5.2,2.375,5.2,5.914,0,3.611-2.091,6.009-5.2,6.009m0-2.9c1.259,0,2.091-1.211,2.091-3.112,0-1.8-.832-2.993-2.091-2.993-1.306,0-2.138,1.188-2.138,2.993,0,1.9.832,3.112,2.138,3.112" transform="translate(-24.441 -34.835)" fill="#0d2380"/>
        <path id="Trazado_236537" data-name="Trazado 236537" d="M124.4,159.093c-2.779,0-4.371-2.209-4.371-6.009,0-3.326,1.71-5.914,4.442-5.914a2.527,2.527,0,0,1,2.566,1.5v-7.293h2.9v14.133c0,.975.38,1.188,1.07,1.093v2.137c-1.4.309-3.469.523-3.587-1.9a3.376,3.376,0,0,1-3.018,2.256m2.542-6.128c0-1.663-.642-3.041-1.852-3.041-1.14,0-1.9,1.283-1.9,3.112,0,1.972.688,3.112,1.9,3.112s1.852-1.378,1.852-3.183" transform="translate(-28.073 -33.066)" fill="#0d2380"/>
        <path id="Trazado_236538" data-name="Trazado 236538" d="M146.132,157.04c0,1.306.118,1.686,1.046,1.521v2.067c-1.33.38-3.706.711-3.9-1.593a3.5,3.5,0,0,1-3.088,1.9c-2.4,0-3.611-1.687-3.611-5.059v-6.628h3.16V155.8c-.047,1.687.45,2.519,1.472,2.519.975.023,1.782-1.046,1.782-2.589v-6.485h3.135Z" transform="translate(-31.945 -34.908)" fill="#0d2380"/>
        <path id="Trazado_236539" data-name="Trazado 236539" d="M159.186,153.31a1.877,1.877,0,0,0-1.9-1.449c-1.236,0-2.067,1.188-2.067,2.994,0,1.9.83,3.159,2.137,3.159a2.009,2.009,0,0,0,1.854-1.782h2.969c-.38,3.255-2.494,4.632-4.823,4.632-3.159,0-5.272-2.4-5.272-6.009,0-3.539,2.09-5.915,5.226-5.915a4.732,4.732,0,0,1,4.845,4.371Z" transform="translate(-35.571 -34.835)" fill="#0d2380"/>
        <path id="Trazado_236540" data-name="Trazado 236540" d="M174.065,153.31a1.876,1.876,0,0,0-1.9-1.449c-1.235,0-2.067,1.188-2.067,2.994,0,1.9.832,3.159,2.138,3.159a2.006,2.006,0,0,0,1.852-1.782h2.969c-.38,3.255-2.493,4.632-4.821,4.632-3.16,0-5.273-2.4-5.273-6.009,0-3.539,2.091-5.915,5.226-5.915a4.734,4.734,0,0,1,4.846,4.371Z" transform="translate(-39.051 -34.835)" fill="#0d2380"/>
        <path id="Trazado_236541" data-name="Trazado 236541" d="M184.036,142.179A1.916,1.916,0,0,1,184.06,146a1.8,1.8,0,0,1-1.876-1.924,1.766,1.766,0,0,1,1.852-1.9m-1.592,5.417h3.136v11.449h-3.136Z" transform="translate(-42.611 -33.254)" fill="#0d2380"/>
        <path id="Trazado_236542" data-name="Trazado 236542" d="M194.431,159.239c-3.159,0-5.272-2.4-5.272-6.009,0-3.539,2.114-5.915,5.272-5.915,3.113,0,5.2,2.376,5.2,5.915,0,3.611-2.09,6.009-5.2,6.009m0-2.9c1.259,0,2.091-1.211,2.091-3.111,0-1.806-.832-2.993-2.091-2.993-1.306,0-2.138,1.187-2.138,2.993,0,1.9.832,3.111,2.138,3.111m.808-10.618h-2.446v-.285l1.52-3.444,2.779,1.045v.261Z" transform="translate(-44.242 -33.211)" fill="#0d2380"/>
        <path id="Trazado_236543" data-name="Trazado 236543" d="M205.551,152.811c0-1.259-.12-1.662-1.14-1.5v-2.043c1.424-.38,3.87-.854,4.132,1.616a3.513,3.513,0,0,1,3.183-1.948c2.3,0,3.586,1.711,3.586,5.06v2.874c0,1.544.19,1.782,1.212,1.71v1.948c-2.186.618-4.347.309-4.347-2.874V154c0-1.521-.617-2.423-1.663-2.423-.926,0-1.8.879-1.8,2.494v6.556h-3.159Z" transform="translate(-47.81 -34.835)" fill="#0d2380"/>
        <path id="Trazado_236544" data-name="Trazado 236544" d="M50.3,252.4a6.4,6.4,0,0,1,6.58,5.915H53.7a3.136,3.136,0,0,0-3.4-2.707c-2.3,0-3.847,2.113-3.847,5.344,0,3.159,1.544,5.274,3.847,5.274a3.391,3.391,0,0,0,3.4-2.993h3.23c-.57,4.513-3.658,6.224-6.628,6.224-4.3,0-7.221-3.374-7.221-8.5S46,252.4,50.3,252.4" transform="translate(-10.076 -59.035)" fill="#fff2bf"/>
        <path id="Trazado_236545" data-name="Trazado 236545" d="M68.2,271.059c-3.159,0-5.273-2.4-5.273-6.01,0-3.539,2.114-5.914,5.273-5.914,3.112,0,5.2,2.375,5.2,5.914,0,3.611-2.09,6.01-5.2,6.01m0-2.9c1.259,0,2.091-1.211,2.091-3.112,0-1.8-.831-2.993-2.091-2.993-1.306,0-2.137,1.188-2.137,2.993,0,1.9.831,3.112,2.137,3.112" transform="translate(-14.717 -60.609)" fill="#fff2bf"/>
        <path id="Trazado_236546" data-name="Trazado 236546" d="M79.314,263c0-1.259-.118-1.662-1.14-1.5v-2.042c1.426-.38,3.872-.856,4.133,1.614a3.514,3.514,0,0,1,3.184-1.947c2.3,0,3.586,1.711,3.586,5.06v2.874c0,1.543.19,1.781,1.211,1.71v1.947c-2.185.617-4.347.309-4.347-2.874v-3.657c0-1.521-.617-2.423-1.663-2.423-.926,0-1.8.879-1.8,2.494v6.556H79.314Z" transform="translate(-18.284 -60.609)" fill="#fff2bf"/>
        <path id="Trazado_236547" data-name="Trazado 236547" d="M102.358,263.5a1.876,1.876,0,0,0-1.9-1.449c-1.236,0-2.068,1.188-2.068,2.994,0,1.9.832,3.159,2.138,3.159a2.006,2.006,0,0,0,1.852-1.783h2.969c-.38,3.255-2.494,4.633-4.822,4.633-3.159,0-5.273-2.4-5.273-6.009,0-3.539,2.091-5.915,5.226-5.915a4.732,4.732,0,0,1,4.846,4.371Z" transform="translate(-22.279 -60.609)" fill="#fff2bf"/>
        <path id="Trazado_236548" data-name="Trazado 236548" d="M113.811,264.78c0,1.425.38,1.948,1.211,1.948a2.3,2.3,0,0,0,.618-.1l.1,2.494a5.9,5.9,0,0,1-1.639.19c-2.066,0-3.372-1.236-3.372-4.538V251.692h3.087Z" transform="translate(-25.897 -58.868)" fill="#fff2bf"/>
        <path id="Trazado_236549" data-name="Trazado 236549" d="M128.27,267.234c0,1.307.119,1.687,1.046,1.52v2.068c-1.33.38-3.706.712-3.9-1.592a3.5,3.5,0,0,1-3.087,1.9c-2.4,0-3.611-1.687-3.611-5.06v-6.628h3.159V266c-.048,1.686.451,2.517,1.472,2.517.974.024,1.782-1.045,1.782-2.589v-6.485h3.135Z" transform="translate(-27.768 -60.681)" fill="#fff2bf"/>
        <path id="Trazado_236550" data-name="Trazado 236550" d="M137.246,267.258a1.336,1.336,0,0,0,1.354,1.4c.832,0,1.4-.427,1.4-1.188a1.238,1.238,0,0,0-1.212-1.235c-1.9-.308-4.442-.926-4.442-3.516,0-2.185,1.686-3.586,4.252-3.586,2.28,0,4.346,1.211,4.228,3.61H140.05a1.264,1.264,0,0,0-1.377-1.116c-.76,0-1.259.38-1.259,1.046,0,.855.689,1.045,1.259,1.116,2.185.309,4.489.689,4.489,3.634,0,2.185-1.757,3.634-4.418,3.634-2.969,0-4.514-1.52-4.584-3.8Z" transform="translate(-31.378 -60.609)" fill="#fff2bf"/>
        <path id="Trazado_236551" data-name="Trazado 236551" d="M149.867,252.375a1.916,1.916,0,0,1,.024,3.824,1.8,1.8,0,0,1-1.876-1.924,1.766,1.766,0,0,1,1.852-1.9m-1.591,5.415h3.136v11.45h-3.136Z" transform="translate(-34.619 -59.028)" fill="#fff2bf"/>
        <path id="Trazado_236552" data-name="Trazado 236552" d="M160.264,271.059c-3.159,0-5.273-2.4-5.273-6.01,0-3.539,2.114-5.914,5.273-5.914,3.112,0,5.2,2.375,5.2,5.914,0,3.611-2.089,6.01-5.2,6.01m0-2.9c1.259,0,2.091-1.211,2.091-3.112,0-1.8-.831-2.993-2.091-2.993-1.306,0-2.137,1.188-2.137,2.993,0,1.9.831,3.112,2.137,3.112" transform="translate(-36.251 -60.609)" fill="#fff2bf"/>
        <path id="Trazado_236553" data-name="Trazado 236553" d="M171.382,263c0-1.259-.118-1.662-1.14-1.5v-2.042c1.426-.38,3.872-.856,4.133,1.614a3.514,3.514,0,0,1,3.184-1.947c2.3,0,3.586,1.711,3.586,5.06v2.874c0,1.543.19,1.781,1.211,1.71v1.947c-2.185.617-4.347.309-4.347-2.874v-3.657c0-1.521-.617-2.423-1.663-2.423-.926,0-1.8.879-1.8,2.494v6.556h-3.159Z" transform="translate(-39.818 -60.609)" fill="#fff2bf"/>
        <path id="Trazado_236554" data-name="Trazado 236554" d="M193.4,268.445a6.056,6.056,0,0,0,3.064-.9l-.071,2.566a5.946,5.946,0,0,1-3.372.95c-3.373,0-5.7-1.64-5.7-6.01,0-4.062,2.731-5.914,5.225-5.914,2.946,0,4.3,1.544,4.3,3.444,0,2.612-2.565,4.7-6.461,3.634.309,1.734,1.5,2.233,3.017,2.233m-2.993-4.347c2.019.641,3.467.119,3.467-1.211,0-.737-.474-1.164-1.4-1.164-.736,0-1.8.571-2.066,2.376" transform="translate(-43.813 -60.609)" fill="#fff2bf"/>
        <path id="Trazado_236555" data-name="Trazado 236555" d="M204.578,267.258a1.335,1.335,0,0,0,1.354,1.4c.831,0,1.4-.427,1.4-1.188a1.238,1.238,0,0,0-1.211-1.235c-1.9-.308-4.442-.926-4.442-3.516,0-2.185,1.686-3.586,4.252-3.586,2.28,0,4.347,1.211,4.228,3.61h-2.779A1.264,1.264,0,0,0,206,261.628c-.76,0-1.258.38-1.258,1.046,0,.855.688,1.045,1.258,1.116,2.186.309,4.49.689,4.49,3.634,0,2.185-1.757,3.634-4.418,3.634-2.969,0-4.513-1.52-4.584-3.8Z" transform="translate(-47.126 -60.609)" fill="#fff2bf"/>
        <path id="Trazado_236556" data-name="Trazado 236556" d="M228.09,269.238a2.773,2.773,0,0,1-2.565,1.829c-2.637,0-4.062-1.616-4.062-5.535V262.8c0-.951-.356-1.211-1.187-1.141V259.4c2.066-.57,4.276-.237,4.276,2.732v3.159c0,2.185.594,3.04,1.71,3.04,1.521,0,1.662-2.209,1.662-3.752v-5.2h3.088v11.663c0,4.109-2.233,5.963-4.941,5.963a8.475,8.475,0,0,1-4.276-1.283l.119-2.542a7.3,7.3,0,0,0,3.515,1.046c1.521,0,2.661-.522,2.661-3.183Z" transform="translate(-51.52 -60.618)" fill="#fff2bf"/>
        <path id="Trazado_236557" data-name="Trazado 236557" d="M33.266,290.133a3.317,3.317,0,0,1,2.209.855l-.9,2.566a2.906,2.906,0,0,0-1.686-.523c-1.211,0-2.21.856-2.21,2.756v6.033H27.614v-8.03c0-.95-.263-1.567-1.117-1.4v-2.042c1.4-.38,3.895-.4,4.086,1.616a2.81,2.81,0,0,1,2.684-1.829" transform="translate(-6.197 -67.859)" fill="#fff2bf"/>
        <path id="Trazado_236558" data-name="Trazado 236558" d="M44.917,299.445a6.056,6.056,0,0,0,3.064-.9l-.071,2.566a5.946,5.946,0,0,1-3.372.95c-3.373,0-5.7-1.639-5.7-6.01,0-4.062,2.731-5.914,5.225-5.914,2.946,0,4.3,1.544,4.3,3.444,0,2.612-2.565,4.7-6.461,3.634.309,1.734,1.5,2.233,3.017,2.233M41.923,295.1c2.019.641,3.467.119,3.467-1.211,0-.737-.474-1.164-1.4-1.164-.736,0-1.8.571-2.066,2.376" transform="translate(-9.083 -67.859)" fill="#fff2bf"/>
        <path id="Trazado_236559" data-name="Trazado 236559" d="M60.167,294.5a1.876,1.876,0,0,0-1.9-1.449c-1.236,0-2.067,1.188-2.067,2.994,0,1.9.831,3.159,2.137,3.159a2.008,2.008,0,0,0,1.853-1.783h2.969c-.38,3.255-2.494,4.633-4.822,4.633-3.159,0-5.273-2.4-5.273-6.009,0-3.539,2.09-5.915,5.226-5.915a4.732,4.732,0,0,1,4.845,4.371Z" transform="translate(-12.411 -67.859)" fill="#fff2bf"/>
        <path id="Trazado_236560" data-name="Trazado 236560" d="M73.186,302.059c-3.159,0-5.273-2.4-5.273-6.01,0-3.539,2.114-5.914,5.273-5.914,3.112,0,5.2,2.375,5.2,5.914,0,3.611-2.091,6.01-5.2,6.01m0-2.9c1.259,0,2.091-1.211,2.091-3.112,0-1.8-.831-2.993-2.091-2.993-1.306,0-2.137,1.188-2.137,2.993,0,1.9.831,3.112,2.137,3.112" transform="translate(-15.884 -67.859)" fill="#fff2bf"/>
        <path id="Trazado_236561" data-name="Trazado 236561" d="M84.385,294.091c0-1.211-.094-1.852-1.282-1.662v-2.09c1.616-.428,4.181-.547,4.3,1.829a3.009,3.009,0,0,1,2.922-2.043,2.825,2.825,0,0,1,3.016,2.137,3.339,3.339,0,0,1,3.231-2.137c2.779,0,3.326,2.233,3.326,5.06v3.277c0,1.045.071,1.591,1.235,1.33v1.924c-2.161.641-4.371.261-4.371-2.661v-3.871c0-1.686-.427-2.423-1.448-2.423-.832,0-1.544.831-1.544,2.447v6.6H90.728v-6.6c0-1.544-.522-2.447-1.568-2.447-.926,0-1.638.9-1.638,2.518v6.532H84.385Z" transform="translate(-19.437 -67.85)" fill="#fff2bf"/>
        <path id="Trazado_236562" data-name="Trazado 236562" d="M113.952,299.445a6.054,6.054,0,0,0,3.064-.9l-.071,2.566a5.947,5.947,0,0,1-3.373.95c-3.372,0-5.7-1.639-5.7-6.01,0-4.062,2.732-5.914,5.226-5.914,2.945,0,4.3,1.544,4.3,3.444,0,2.612-2.565,4.7-6.461,3.634.309,1.734,1.5,2.233,3.016,2.233m-2.992-4.347c2.019.641,3.468.119,3.468-1.211,0-.737-.476-1.164-1.4-1.164-.736,0-1.8.571-2.066,2.376" transform="translate(-25.23 -67.859)" fill="#fff2bf"/>
        <path id="Trazado_236563" data-name="Trazado 236563" d="M122.993,294c0-1.259-.119-1.662-1.14-1.5v-2.042c1.424-.38,3.871-.856,4.132,1.614a3.513,3.513,0,0,1,3.183-1.947c2.3,0,3.587,1.711,3.587,5.06v2.874c0,1.543.19,1.781,1.211,1.71v1.947c-2.185.617-4.347.309-4.347-2.874v-3.657c0-1.521-.617-2.423-1.663-2.423-.925,0-1.8.879-1.8,2.494v6.556h-3.159Z" transform="translate(-28.5 -67.859)" fill="#fff2bf"/>
        <path id="Trazado_236564" data-name="Trazado 236564" d="M143.336,300.289c-2.779,0-4.371-2.209-4.371-6.01,0-3.326,1.71-5.914,4.442-5.914a2.523,2.523,0,0,1,2.565,1.5v-7.293h2.9V296.7c0,.974.38,1.188,1.069,1.093v2.137c-1.4.309-3.469.523-3.588-1.9a3.375,3.375,0,0,1-3.016,2.257m2.542-6.129c0-1.662-.642-3.041-1.853-3.041-1.14,0-1.9,1.282-1.9,3.112,0,1.971.689,3.111,1.9,3.111s1.853-1.377,1.853-3.182" transform="translate(-32.503 -66.09)" fill="#fff2bf"/>
        <path id="Trazado_236565" data-name="Trazado 236565" d="M164.842,291.2v6.984c0,.974.071,1.5,1,1.425v2.138c-1.473.5-3.421.428-3.54-1.9a3.549,3.549,0,0,1-3.135,2.209c-2.566,0-4.2-1.924-4.2-5.534,0-3.825,2.257-6.39,5.677-6.39a9.757,9.757,0,0,1,4.205,1.069m-3.041,1.924a2.6,2.6,0,0,0-1.259-.357c-1.5,0-2.47,1.378-2.47,3.754,0,1.5.57,2.588,1.781,2.588s1.948-1.4,1.948-3.4Z" transform="translate(-36.244 -67.859)" fill="#fff2bf"/>
        <path id="Trazado_236566" data-name="Trazado 236566" d="M177.965,294.5a1.876,1.876,0,0,0-1.9-1.449c-1.236,0-2.068,1.188-2.068,2.994,0,1.9.832,3.159,2.138,3.159a2.006,2.006,0,0,0,1.852-1.783h2.969c-.38,3.255-2.494,4.633-4.822,4.633-3.159,0-5.273-2.4-5.273-6.009,0-3.539,2.091-5.915,5.226-5.915a4.732,4.732,0,0,1,4.846,4.371Z" transform="translate(-39.963 -67.859)" fill="#fff2bf"/>
        <path id="Trazado_236567" data-name="Trazado 236567" d="M187.935,283.375a1.916,1.916,0,0,1,.025,3.824,1.8,1.8,0,0,1-1.877-1.924,1.766,1.766,0,0,1,1.852-1.9m-1.591,5.415h3.136v11.45h-3.136Z" transform="translate(-43.523 -66.279)" fill="#fff2bf"/>
        <path id="Trazado_236568" data-name="Trazado 236568" d="M198.332,302.059c-3.159,0-5.273-2.4-5.273-6.01,0-3.539,2.114-5.914,5.273-5.914,3.112,0,5.2,2.375,5.2,5.914,0,3.611-2.09,6.01-5.2,6.01m0-2.9c1.259,0,2.091-1.211,2.091-3.112,0-1.8-.831-2.993-2.091-2.993-1.306,0-2.137,1.188-2.137,2.993,0,1.9.831,3.112,2.137,3.112" transform="translate(-45.155 -67.859)" fill="#fff2bf"/>
        <path id="Trazado_236569" data-name="Trazado 236569" d="M209.45,294c0-1.259-.118-1.662-1.14-1.5v-2.042c1.426-.38,3.872-.856,4.133,1.614a3.514,3.514,0,0,1,3.184-1.947c2.3,0,3.586,1.711,3.586,5.06v2.874c0,1.543.19,1.781,1.211,1.71v1.947c-2.185.617-4.347.309-4.347-2.874v-3.657c0-1.521-.617-2.423-1.663-2.423-.926,0-1.8.879-1.8,2.494v6.556H209.45Z" transform="translate(-48.722 -67.859)" fill="#fff2bf"/>
        <path id="Trazado_236570" data-name="Trazado 236570" d="M231.473,299.445a6.056,6.056,0,0,0,3.064-.9l-.071,2.566a5.946,5.946,0,0,1-3.372.95c-3.373,0-5.7-1.639-5.7-6.01,0-4.062,2.731-5.914,5.225-5.914,2.946,0,4.3,1.544,4.3,3.444,0,2.612-2.565,4.7-6.461,3.634.309,1.734,1.5,2.233,3.017,2.233m-2.993-4.347c2.019.641,3.467.119,3.467-1.211,0-.737-.474-1.164-1.4-1.164-.736,0-1.8.571-2.066,2.376" transform="translate(-52.717 -67.859)" fill="#fff2bf"/>
        <path id="Trazado_236571" data-name="Trazado 236571" d="M242.646,298.258a1.335,1.335,0,0,0,1.354,1.4c.831,0,1.4-.427,1.4-1.188a1.238,1.238,0,0,0-1.211-1.235c-1.9-.308-4.442-.926-4.442-3.516,0-2.185,1.686-3.586,4.252-3.586,2.28,0,4.347,1.211,4.228,3.61h-2.779a1.264,1.264,0,0,0-1.378-1.116c-.76,0-1.258.38-1.258,1.046,0,.855.688,1.045,1.258,1.116,2.186.309,4.49.689,4.49,3.634,0,2.185-1.757,3.634-4.418,3.634-2.969,0-4.513-1.52-4.584-3.8Z" transform="translate(-56.03 -67.859)" fill="#fff2bf"/>
      </g>
    </g>
    <g id="Elipse_5629" data-name="Elipse 5629" transform="translate(-5372 -6111.597)" fill="#fc502d" stroke="#fc502d" stroke-width="1" opacity="0.5">
      <circle cx="35.08" cy="35.08" r="35.08" stroke="none"/>
      <circle cx="35.08" cy="35.08" r="34.58" fill="none"/>
    </g>
    <g id="Elipse_4862" data-name="Elipse 4862" transform="translate(-5357.315 -6096.913)" fill="#fc502d" stroke="#fc502d" stroke-width="1" opacity="0.5">
      <circle cx="20.395" cy="20.395" r="20.395" stroke="none"/>
      <circle cx="20.395" cy="20.395" r="19.895" fill="none"/>
    </g>
    <g id="Elipse_5629-2" data-name="Elipse 5629" transform="translate(-5372 -6010.597)" fill="#fc502d" stroke="#fc502d" stroke-width="1" opacity="0.5">
      <circle cx="35.08" cy="35.08" r="35.08" stroke="none"/>
      <circle cx="35.08" cy="35.08" r="34.58" fill="none"/>
    </g>
    <g id="Elipse_4862-2" data-name="Elipse 4862" transform="translate(-5357.315 -5995.913)" fill="#fc502d" stroke="#fc502d" stroke-width="1" opacity="0.5">
      <circle cx="20.395" cy="20.395" r="20.395" stroke="none"/>
      <circle cx="20.395" cy="20.395" r="19.895" fill="none"/>
    </g>
    <g id="Elipse_5629-3" data-name="Elipse 5629" transform="translate(-4412.16 -6111.597)" fill="#fc502d" stroke="#fc502d" stroke-width="1" opacity="0.5">
      <circle cx="35.08" cy="35.08" r="35.08" stroke="none"/>
      <circle cx="35.08" cy="35.08" r="34.58" fill="none"/>
    </g>
    <g id="Elipse_4862-3" data-name="Elipse 4862" transform="translate(-4397.476 -6096.913)" fill="#fc502d" stroke="#fc502d" stroke-width="1" opacity="0.5">
      <circle cx="20.395" cy="20.395" r="20.395" stroke="none"/>
      <circle cx="20.395" cy="20.395" r="19.895" fill="none"/>
    </g>
    <g id="Elipse_5629-4" data-name="Elipse 5629" transform="translate(-4412.16 -6010.597)" fill="#fc502d" stroke="#fc502d" stroke-width="1" opacity="0.5">
      <circle cx="35.08" cy="35.08" r="35.08" stroke="none"/>
      <circle cx="35.08" cy="35.08" r="34.58" fill="none"/>
    </g>
    <g id="Elipse_4862-4" data-name="Elipse 4862" transform="translate(-4397.476 -5995.913)" fill="#fc502d" stroke="#fc502d" stroke-width="1" opacity="0.5">
      <circle cx="20.395" cy="20.395" r="20.395" stroke="none"/>
      <circle cx="20.395" cy="20.395" r="19.895" fill="none"/>
    </g>
  </g>
</svg>
