<svg xmlns="http://www.w3.org/2000/svg" xmlns:xlink="http://www.w3.org/1999/xlink" width="398.155" height="417.919" viewBox="0 0 398.155 417.919">
  <defs>
    <clipPath id="clip-path">
      <rect id="Rectángulo_92648" data-name="Rectángulo 92648" width="398.156" height="417.919" fill="none"/>
    </clipPath>
    <clipPath id="clip-path-3">
      <rect id="Rectángulo_92632" data-name="Rectángulo 92632" width="312.343" height="180.332" fill="none"/>
    </clipPath>
    <clipPath id="clip-path-4">
      <rect id="Rectángulo_92633" data-name="Rectángulo 92633" width="26.944" height="12.312" fill="none"/>
    </clipPath>
    <clipPath id="clip-path-5">
      <rect id="Rectángulo_92634" data-name="Rectángulo 92634" width="92.504" height="53.407" fill="none"/>
    </clipPath>
    <clipPath id="clip-path-6">
      <rect id="Rectángulo_92635" data-name="Rectángulo 92635" width="187.432" height="263.771" fill="none"/>
    </clipPath>
    <clipPath id="clip-path-7">
      <rect id="Rectángulo_92636" data-name="Rectángulo 92636" width="334.867" height="354.056" fill="none"/>
    </clipPath>
    <clipPath id="clip-path-8">
      <rect id="Rectángulo_92637" data-name="Rectángulo 92637" width="66.522" height="24.169" fill="none"/>
    </clipPath>
    <clipPath id="clip-path-9">
      <rect id="Rectángulo_92638" data-name="Rectángulo 92638" width="61.645" height="32.389" fill="none"/>
    </clipPath>
    <clipPath id="clip-path-10">
      <rect id="Rectángulo_92639" data-name="Rectángulo 92639" width="62.494" height="30.565" fill="none"/>
    </clipPath>
    <clipPath id="clip-path-11">
      <rect id="Rectángulo_92640" data-name="Rectángulo 92640" width="56.951" height="32.389" fill="none"/>
    </clipPath>
    <clipPath id="clip-path-12">
      <rect id="Rectángulo_92641" data-name="Rectángulo 92641" width="13.052" height="7.346" fill="none"/>
    </clipPath>
    <clipPath id="clip-path-13">
      <rect id="Rectángulo_92642" data-name="Rectángulo 92642" width="5.656" height="3.183" fill="none"/>
    </clipPath>
    <clipPath id="clip-path-15">
      <rect id="Rectángulo_92644" data-name="Rectángulo 92644" width="39.146" height="20.45" fill="none"/>
    </clipPath>
    <clipPath id="clip-path-17">
      <rect id="Rectángulo_92646" data-name="Rectángulo 92646" width="27.887" height="23.341" fill="none"/>
    </clipPath>
  </defs>
  <g id="Grupo_175410" data-name="Grupo 175410" transform="translate(12008 12192.099)">
    <g id="Grupo_175409" data-name="Grupo 175409">
      <g id="Grupo_175408" data-name="Grupo 175408" transform="translate(-12008 -12192.099)">
        <g id="Grupo_146454" data-name="Grupo 146454" clip-path="url(#clip-path)">
          <g id="Grupo_146453" data-name="Grupo 146453">
            <g id="Grupo_146452" data-name="Grupo 146452" clip-path="url(#clip-path)">
              <g id="Grupo_146409" data-name="Grupo 146409" transform="translate(78.086 177.119)" opacity="0.2">
                <g id="Grupo_146408" data-name="Grupo 146408">
                  <g id="Grupo_146407" data-name="Grupo 146407" clip-path="url(#clip-path-3)">
                    <path id="Trazado_217554" data-name="Trazado 217554" d="M289.838,427.8,114.951,326.832c-6.907-3.988-6.04-10.952,1.934-15.557l99.252-57.3c7.975-4.6,20.038-5.1,26.944-1.117L417.97,353.827c6.905,3.988,6.04,10.952-1.936,15.557l-99.252,57.3c-7.975,4.6-20.038,5.1-26.944,1.117" transform="translate(-110.289 -250.163)" fill="#92b4d1"/>
                  </g>
                </g>
              </g>
              <path id="Trazado_217555" data-name="Trazado 217555" d="M289.838,418.325,114.951,317.354c-3.078-1.777-4.612-4.145-4.662-6.632,0-.08,0-8.584,0-8.664.055-3.023,2.288,2.226,6.6-.261l99.252-57.3c7.975-4.6,20.038-5.1,26.944-1.117L417.97,344.349c2.3,1.331,3.977-4.318,4.575-2.523.2.6.072,8.525.086,9.145.066,3.1-2.169,6.379-6.6,8.934l-99.252,57.3c-7.975,4.6-20.038,5.1-26.944,1.117" transform="translate(-32.202 -70.276)" fill="#2672ab"/>
              <path id="Trazado_217556" data-name="Trazado 217556" d="M289.838,406.315,114.951,305.344c-6.907-3.988-6.04-10.952,1.934-15.557l99.252-57.3c7.975-4.6,20.038-5.1,26.944-1.117L417.97,332.339c6.905,3.988,6.04,10.952-1.936,15.557l-99.252,57.3c-7.975,4.6-20.038,5.1-26.944,1.117" transform="translate(-32.202 -66.77)" fill="#dee9f0"/>
              <g id="Grupo_146412" data-name="Grupo 146412" transform="translate(257.636 338.429)" opacity="0.5">
                <g id="Grupo_146411" data-name="Grupo 146411">
                  <g id="Grupo_146410" data-name="Grupo 146410" clip-path="url(#clip-path-4)">
                    <path id="Trazado_217557" data-name="Trazado 217557" d="M363.885,487.616c6.906,3.988,18.969,3.487,26.944-1.117V478c-7.974,4.6-20.038,5.1-26.944,1.117Z" transform="translate(-363.885 -477.996)" fill="#3f92d1"/>
                  </g>
                </g>
              </g>
              <path id="Trazado_217558" data-name="Trazado 217558" d="M289.839,434.935,114.951,333.963c-3.339-1.928-4.844-4.553-4.625-7.269a3.6,3.6,0,0,0-.037.477c0,.08,0,8.584,0,8.665.05,2.487,1.584,4.854,4.662,6.631L289.839,443.438Z" transform="translate(-32.203 -95.389)" fill="#3f92d1"/>
              <path id="Trazado_217559" data-name="Trazado 217559" d="M416.036,374.949l-99.253,57.3c-7.974,4.6-20.038,5.1-26.944,1.117L114.952,332.4c-2.865-1.654-4.372-3.823-4.609-6.121-.359,2.821,1.149,5.567,4.609,7.564L289.839,434.813c6.907,3.988,18.97,3.487,26.944-1.117l99.253-57.3c4.666-2.694,6.878-6.194,6.543-9.435-.357,2.809-2.565,5.695-6.543,7.991" transform="translate(-32.203 -95.268)" fill="#fff"/>
              <g id="Grupo_146415" data-name="Grupo 146415" transform="translate(154.743 251.351)" opacity="0.3">
                <g id="Grupo_146414" data-name="Grupo 146414">
                  <g id="Grupo_146413" data-name="Grupo 146413" clip-path="url(#clip-path-5)">
                    <path id="Trazado_217560" data-name="Trazado 217560" d="M281.642,407.929,219.4,371.994c-1.246-.719-1.09-1.977.349-2.807l23.368-13.492a5.407,5.407,0,0,1,4.863-.2l62.242,35.935c1.246.719,1.09,1.976-.349,2.807L286.5,407.728a5.4,5.4,0,0,1-4.863.2" transform="translate(-218.558 -355.008)" fill="#fff"/>
                  </g>
                </g>
              </g>
              <path id="Trazado_217561" data-name="Trazado 217561" d="M219.754,370.662l23.368-13.491a5.4,5.4,0,0,1,4.863-.2L310.226,392.9a1.883,1.883,0,0,1,.575.5,1.3,1.3,0,0,0-.575-1.981l-62.242-35.935a5.407,5.407,0,0,0-4.863.2l-23.368,13.492c-1.145.661-1.463,1.587-.924,2.3a2.731,2.731,0,0,1,.924-.828" transform="translate(-63.82 -103.657)" fill="#a8cff0"/>
              <path id="Trazado_217562" data-name="Trazado 217562" d="M257.028,249.391l10.727,6.193a5.441,5.441,0,0,0,4.924.009c1.356-.783,1.349-2.055-.016-2.843l-10.726-6.193a5.442,5.442,0,0,0-4.924-.008c-1.356.782-1.349,2.055.015,2.843m18.366,10.6,5.081,2.933a5.442,5.442,0,0,0,4.924.008c1.356-.782,1.349-2.055-.016-2.843L280.3,257.16a5.443,5.443,0,0,0-4.925-.009c-1.355.783-1.349,2.055.016,2.843m12.72,7.344,5.081,2.934a5.442,5.442,0,0,0,4.924.009c1.356-.782,1.349-2.055-.016-2.843l-5.081-2.934a5.443,5.443,0,0,0-4.925-.008c-1.355.782-1.349,2.055.016,2.843m12.72,7.344,5.081,2.933a5.442,5.442,0,0,0,4.924.009c1.356-.783,1.349-2.055-.016-2.843l-5.081-2.933a5.445,5.445,0,0,0-4.925-.009c-1.355.783-1.349,2.056.016,2.843m12.72,7.344,5.081,2.933a5.445,5.445,0,0,0,4.925.009c1.356-.783,1.349-2.056-.016-2.843l-5.081-2.933a5.443,5.443,0,0,0-4.925-.009c-1.355.782-1.349,2.055.016,2.843m12.72,7.344,5.081,2.934a5.443,5.443,0,0,0,4.925.008c1.356-.782,1.349-2.055-.016-2.843l-5.081-2.934a5.443,5.443,0,0,0-4.925-.008c-1.355.782-1.349,2.055.016,2.843M339,296.714l5.081,2.933a5.443,5.443,0,0,0,4.925.009c1.355-.783,1.349-2.055-.016-2.843L343.9,293.88a5.445,5.445,0,0,0-4.925-.009c-1.355.783-1.349,2.056.016,2.843m12.72,7.344,5.081,2.933a5.445,5.445,0,0,0,4.925.009c1.355-.783,1.349-2.056-.016-2.843l-5.081-2.933a5.443,5.443,0,0,0-4.925-.009c-1.355.782-1.349,2.055.016,2.843m12.72,7.344,5.081,2.934a5.443,5.443,0,0,0,4.925.008c1.355-.782,1.349-2.055-.016-2.843l-5.081-2.934a5.441,5.441,0,0,0-4.924-.008c-1.355.782-1.349,2.055.016,2.843m12.72,7.344,5.081,2.933a5.443,5.443,0,0,0,4.925.009c1.355-.783,1.349-2.055-.016-2.843l-5.081-2.933a5.444,5.444,0,0,0-4.924-.009c-1.355.783-1.349,2.056.016,2.843m12.72,7.344,5.081,2.933a5.443,5.443,0,0,0,4.925.009c1.355-.782,1.349-2.055-.016-2.843l-5.081-2.933a5.442,5.442,0,0,0-4.924-.009c-1.355.782-1.349,2.055.016,2.843m12.72,7.344,5.081,2.934a5.443,5.443,0,0,0,4.925.008c1.355-.782,1.349-2.055-.016-2.843L407.5,330.6a5.441,5.441,0,0,0-4.924-.008c-1.355.782-1.349,2.055.016,2.843m12.985,7.5,5.081,2.933a5.444,5.444,0,0,0,4.924.009c1.356-.783,1.349-2.056-.015-2.843L420.49,338.1a5.442,5.442,0,0,0-4.924-.009c-1.356.782-1.349,2.055.016,2.843M245.588,256.39l4.4,2.54a6.193,6.193,0,0,0,5.6.01l4.371-2.523c1.543-.891,1.536-2.34-.017-3.236l-4.4-2.54a6.194,6.194,0,0,0-5.6-.01l-4.371,2.524c-1.543.891-1.535,2.339.018,3.236m22.723,9.894,4.371-2.524c1.543-.891,1.536-2.339-.017-3.236l-4.4-2.54a6.2,6.2,0,0,0-5.6-.01l-4.371,2.523c-1.543.891-1.535,2.34.018,3.236l4.4,2.54a6.193,6.193,0,0,0,5.6.01m2.717,4.794,4.4,2.54a6.193,6.193,0,0,0,5.6.011L285.4,271.1c1.543-.891,1.534-2.339-.018-3.236l-4.4-2.54a6.2,6.2,0,0,0-5.6-.011l-4.371,2.524c-1.543.891-1.535,2.339.018,3.236m12.72,7.344,4.4,2.54a6.193,6.193,0,0,0,5.6.01l4.372-2.523c1.543-.891,1.534-2.34-.018-3.236l-4.4-2.54a6.194,6.194,0,0,0-5.6-.01l-4.371,2.524c-1.543.891-1.535,2.339.018,3.236m27.077,4.134-4.4-2.54a6.194,6.194,0,0,0-5.6-.01l-4.371,2.523c-1.543.891-1.535,2.339.018,3.236l4.4,2.54a6.2,6.2,0,0,0,5.6.01l4.372-2.524c1.542-.891,1.534-2.339-.018-3.236m12.72,7.344-4.4-2.54a6.194,6.194,0,0,0-5.6-.011l-4.371,2.524c-1.543.891-1.535,2.339.018,3.236l4.4,2.54a6.2,6.2,0,0,0,5.6.011l4.372-2.524c1.542-.891,1.534-2.339-.018-3.236m12.72,7.344-4.4-2.54a6.194,6.194,0,0,0-5.6-.01l-4.371,2.524c-1.543.891-1.535,2.339.017,3.236l4.4,2.54a6.194,6.194,0,0,0,5.6.01l4.371-2.524c1.543-.891,1.535-2.339-.017-3.236m12.72,7.344-4.4-2.54a6.194,6.194,0,0,0-5.6-.01l-4.371,2.523c-1.543.891-1.535,2.34.018,3.236l4.4,2.54a6.194,6.194,0,0,0,5.6.01L349,307.824c1.543-.891,1.535-2.339-.017-3.236m12.72,7.344-4.4-2.54a6.2,6.2,0,0,0-5.6-.011l-4.371,2.524c-1.543.891-1.535,2.339.018,3.236l4.4,2.54a6.192,6.192,0,0,0,5.6.01l4.371-2.523c1.543-.891,1.535-2.339-.017-3.236m12.72,7.344-4.4-2.54a6.194,6.194,0,0,0-5.6-.01l-4.371,2.524c-1.543.891-1.535,2.339.018,3.236l4.4,2.54a6.194,6.194,0,0,0,5.6.01l4.371-2.523c1.543-.891,1.535-2.34-.017-3.236M372.79,329.83l4.4,2.539a6.2,6.2,0,0,0,5.6.011l4.371-2.524c1.543-.891,1.535-2.339-.018-3.236l-4.4-2.54a6.192,6.192,0,0,0-5.6-.01l-4.371,2.523c-1.543.891-1.535,2.34.018,3.236m27.077,4.134-4.4-2.54a6.193,6.193,0,0,0-5.6-.011l-4.371,2.524c-1.543.891-1.535,2.339.017,3.236l4.4,2.54a6.2,6.2,0,0,0,5.6.01l4.371-2.523c1.543-.891,1.535-2.339-.018-3.236M418.5,344.721l-10.045-5.8a6.194,6.194,0,0,0-5.6-.01l-4.371,2.523c-1.543.891-1.535,2.34.018,3.236l10.045,5.8a6.194,6.194,0,0,0,5.6.011l4.371-2.524c1.543-.891,1.535-2.339-.018-3.236M233.806,263.192l10.045,5.8a6.194,6.194,0,0,0,5.6.01l4.371-2.523c1.543-.891,1.535-2.34-.018-3.236l-10.045-5.8a6.193,6.193,0,0,0-5.6-.011l-4.371,2.524c-1.543.891-1.536,2.339.017,3.236m18.366,10.6,4.4,2.54a6.194,6.194,0,0,0,5.6.01l4.371-2.524c1.543-.891,1.535-2.339-.018-3.236l-4.4-2.54a6.194,6.194,0,0,0-5.6-.01l-4.371,2.523c-1.543.891-1.535,2.34.018,3.236m17.119,9.883a6.194,6.194,0,0,0,5.6.011l4.371-2.524c1.543-.891,1.535-2.339-.018-3.236l-4.4-2.54a6.2,6.2,0,0,0-5.6-.011l-4.371,2.524c-1.543.891-1.535,2.339.018,3.236Zm12.72,7.344a6.194,6.194,0,0,0,5.6.01l4.371-2.523c1.543-.891,1.535-2.34-.018-3.236l-4.4-2.54a6.2,6.2,0,0,0-5.6-.01l-4.371,2.524c-1.543.891-1.535,2.339.018,3.236Zm12.675-.955-4.371,2.523c-1.543.891-1.535,2.34.018,3.236l4.4,2.54a6.2,6.2,0,0,0,5.6.01l4.371-2.524c1.543-.891,1.535-2.339-.018-3.236l-4.4-2.54a6.194,6.194,0,0,0-5.6-.01m12.989,7.189-4.909,2.834c-1.394.805-1.387,2.115.016,2.925l4.94,2.852a5.6,5.6,0,0,0,5.065.009l4.909-2.834c1.395-.805,1.388-2.115-.016-2.925l-4.94-2.852a5.6,5.6,0,0,0-5.065-.009M320.4,304.6l-4.909,2.834c-1.394.805-1.387,2.114.016,2.924l4.94,2.853a5.6,5.6,0,0,0,5.065.009l4.909-2.834c1.395-.805,1.388-2.114-.016-2.924l-4.94-2.852a5.6,5.6,0,0,0-5.065-.009m12.72,7.344-4.909,2.835c-1.394.8-1.387,2.114.016,2.924l4.94,2.852a5.6,5.6,0,0,0,5.065.009l4.909-2.834c1.395-.805,1.388-2.114-.016-2.924l-4.94-2.852a5.6,5.6,0,0,0-5.065-.01m12.72,7.344-4.909,2.834c-1.394.805-1.387,2.114.016,2.925l4.94,2.852a5.6,5.6,0,0,0,5.065.009l4.909-2.834c1.395-.805,1.388-2.114-.016-2.925L350.9,319.3a5.6,5.6,0,0,0-5.065-.009m12.72,7.344-4.909,2.834c-1.394.805-1.387,2.114.016,2.924l4.94,2.852a5.6,5.6,0,0,0,5.065.009l4.909-2.834c1.395-.8,1.388-2.114-.016-2.924l-4.94-2.852a5.6,5.6,0,0,0-5.065-.009M376.388,342.6l4.909-2.834c1.395-.805,1.388-2.114-.016-2.924l-4.94-2.853a5.6,5.6,0,0,0-5.065-.009l-4.909,2.834c-1.394.8-1.387,2.114.016,2.924l4.94,2.852a5.6,5.6,0,0,0,5.065.009m12.72,7.344,4.909-2.834c1.395-.805,1.388-2.115-.016-2.925l-4.94-2.852a5.6,5.6,0,0,0-5.065-.009l-4.909,2.834c-1.394.805-1.387,2.114.016,2.925l4.94,2.852a5.6,5.6,0,0,0,5.065.009m17.878,1.738-4.941-2.852a5.6,5.6,0,0,0-5.064-.009l-4.909,2.834c-1.394.805-1.387,2.114.016,2.924l4.94,2.852a5.6,5.6,0,0,0,5.066.009L407,354.6c1.394-.805,1.387-2.114-.016-2.924M221.754,269.838l15.949,9.208a5.6,5.6,0,0,0,5.065.009l4.909-2.834c1.395-.805,1.387-2.114-.016-2.924l-15.949-9.208a5.6,5.6,0,0,0-5.065-.009l-4.909,2.834c-1.394.805-1.387,2.114.016,2.924m23.729,13.7,4.94,2.852a5.6,5.6,0,0,0,5.065.009l4.909-2.834c1.394-.805,1.388-2.114-.016-2.925l-4.94-2.852a5.6,5.6,0,0,0-5.065-.009l-4.909,2.834c-1.394.805-1.387,2.115.016,2.925m12.72,7.344,4.941,2.852a5.6,5.6,0,0,0,5.065.009l4.909-2.834c1.394-.8,1.388-2.115-.016-2.925l-4.94-2.852a5.6,5.6,0,0,0-5.065-.009l-4.909,2.834c-1.394.805-1.387,2.114.016,2.925m12.72,7.344,4.941,2.852a5.6,5.6,0,0,0,5.065.009l4.909-2.834c1.394-.805,1.388-2.114-.016-2.924l-4.94-2.852a5.6,5.6,0,0,0-5.065-.009l-4.909,2.834c-1.394.805-1.387,2.114.016,2.924m22.726,10.205,4.909-2.834c1.394-.805,1.388-2.114-.016-2.924l-4.94-2.853a5.6,5.6,0,0,0-5.065-.009l-4.909,2.835c-1.394.8-1.387,2.114.016,2.924l4.941,2.852a5.6,5.6,0,0,0,5.065.009m12.72,7.344,4.909-2.834c1.394-.8,1.387-2.115-.016-2.925l-4.94-2.852a5.6,5.6,0,0,0-5.065-.009l-4.909,2.834c-1.394.8-1.387,2.114.016,2.925l4.94,2.852a5.6,5.6,0,0,0,5.064.009m12.721,7.344L324,320.285c1.394-.805,1.387-2.114-.016-2.924l-4.94-2.852a5.6,5.6,0,0,0-5.065-.009l-4.909,2.834c-1.394.8-1.387,2.114.016,2.924l4.941,2.852a5.6,5.6,0,0,0,5.065.009m12.72,7.344,4.909-2.834c1.394-.805,1.387-2.114-.016-2.924l-4.94-2.853a5.6,5.6,0,0,0-5.065-.009l-4.909,2.834c-1.394.806-1.387,2.115.016,2.925l4.94,2.852a5.6,5.6,0,0,0,5.065.009m12.72,7.344,4.909-2.834c1.394-.8,1.387-2.115-.016-2.925l-4.94-2.852a5.6,5.6,0,0,0-5.064-.009l-4.909,2.834c-1.394.805-1.387,2.114.016,2.924l4.94,2.853a5.6,5.6,0,0,0,5.065.009m12.72,7.344,4.909-2.834c1.394-.805,1.387-2.114-.016-2.924l-4.941-2.852a5.6,5.6,0,0,0-5.064-.009l-4.909,2.834c-1.394.8-1.387,2.114.016,2.924l4.94,2.852a5.6,5.6,0,0,0,5.065.009m2.715,4.483,4.94,2.852a5.6,5.6,0,0,0,5.066.009l4.909-2.834c1.394-.805,1.387-2.114-.016-2.925l-4.941-2.852a5.6,5.6,0,0,0-5.065-.009l-4.909,2.834c-1.394.805-1.387,2.115.016,2.925m35.24,8.847-12.562-7.252a5.6,5.6,0,0,0-5.065-.009l-4.909,2.834c-1.394.805-1.388,2.114.016,2.925l12.562,7.252a5.6,5.6,0,0,0,5.065.009l4.909-2.835c1.394-.805,1.387-2.114-.016-2.924M210.021,276.993l22.63,13.065a6.323,6.323,0,0,0,5.721.01l4.254-2.456c1.575-.909,1.567-2.388-.018-3.3l-22.63-13.065a6.323,6.323,0,0,0-5.721-.01L210,273.689c-1.575.909-1.568,2.388.018,3.3m31.068,17.937,4.281,2.472a6.321,6.321,0,0,0,5.722.011l4.254-2.456c1.575-.91,1.567-2.389-.018-3.3l-4.281-2.472a6.323,6.323,0,0,0-5.721-.011l-4.254,2.457c-1.575.909-1.568,2.388.018,3.3m12.72,7.344,4.281,2.472a6.323,6.323,0,0,0,5.721.011l4.254-2.457c1.575-.909,1.567-2.388-.018-3.3l-4.281-2.472a6.323,6.323,0,0,0-5.721-.01l-4.254,2.456c-1.575.91-1.568,2.388.018,3.3m12.72,7.344,4.281,2.472a6.323,6.323,0,0,0,5.721.01l4.254-2.456c1.575-.909,1.568-2.388-.018-3.3l-4.281-2.472a6.323,6.323,0,0,0-5.721-.01l-4.254,2.456c-1.575.909-1.568,2.388.018,3.3m12.72,7.344,4.281,2.472a6.325,6.325,0,0,0,5.721.01l4.254-2.456c1.575-.91,1.568-2.389-.018-3.3l-4.281-2.472a6.323,6.323,0,0,0-5.721-.011l-4.254,2.457c-1.575.909-1.568,2.388.018,3.3m12.72,7.344,4.281,2.472a6.325,6.325,0,0,0,5.721.011l4.254-2.457c1.575-.909,1.568-2.388-.018-3.3l-4.281-2.472a6.321,6.321,0,0,0-5.721-.011L291.953,321c-1.575.91-1.568,2.389.018,3.3m12.72,7.344,4.281,2.472a6.323,6.323,0,0,0,5.721.01l4.254-2.456c1.575-.909,1.567-2.388-.018-3.3l-4.281-2.472a6.325,6.325,0,0,0-5.721-.011l-4.254,2.457c-1.575.909-1.568,2.388.018,3.3m12.72,7.344,4.281,2.472a6.323,6.323,0,0,0,5.721.011l4.254-2.456c1.575-.91,1.567-2.389-.018-3.3l-4.281-2.472a6.323,6.323,0,0,0-5.721-.011l-4.255,2.456c-1.575.91-1.567,2.389.018,3.3m12.72,7.344,4.281,2.472a6.323,6.323,0,0,0,5.721.011l4.254-2.457c1.575-.909,1.567-2.388-.018-3.3l-4.281-2.472a6.323,6.323,0,0,0-5.721-.01l-4.255,2.456c-1.575.91-1.567,2.389.018,3.3m12.72,7.344,4.281,2.472a6.322,6.322,0,0,0,5.721.01l4.254-2.456c1.575-.909,1.567-2.388-.018-3.3l-4.281-2.472a6.326,6.326,0,0,0-5.722-.011l-4.254,2.457c-1.575.909-1.567,2.388.018,3.3m12.72,7.344,4.281,2.472a6.323,6.323,0,0,0,5.721.011l4.255-2.456c1.575-.91,1.567-2.389-.018-3.3l-4.281-2.472a6.324,6.324,0,0,0-5.722-.011l-4.254,2.456c-1.575.91-1.567,2.389.018,3.3m27.242,4.23-4.281-2.472a6.324,6.324,0,0,0-5.722-.011l-4.255,2.456c-1.575.91-1.567,2.389.018,3.3L372.855,371a6.324,6.324,0,0,0,5.722.011l4.254-2.456c1.575-.91,1.567-2.389-.018-3.3M218.125,283.776l-9.927-5.731a6.326,6.326,0,0,0-5.722-.01l-4.254,2.456c-1.575.91-1.567,2.389.018,3.3l9.926,5.731a6.324,6.324,0,0,0,5.722.01l4.254-2.456c1.575-.909,1.567-2.388-.018-3.3m12.72,7.344-4.281-2.472a6.326,6.326,0,0,0-5.722-.011l-4.254,2.457c-1.575.909-1.567,2.388.018,3.3l4.281,2.472a6.324,6.324,0,0,0,5.722.01l4.254-2.456c1.575-.91,1.567-2.388-.018-3.3m12.72,7.344-4.281-2.472a6.326,6.326,0,0,0-5.722-.01l-4.254,2.456c-1.575.91-1.567,2.389.018,3.3l4.281,2.472a6.324,6.324,0,0,0,5.722.011l4.254-2.457c1.575-.909,1.567-2.388-.018-3.3m89.042,51.408L252,303.336a6.324,6.324,0,0,0-5.722-.01l-4.254,2.456c-1.575.909-1.567,2.388.018,3.3l80.6,46.536a6.324,6.324,0,0,0,5.722.01l4.254-2.456c1.575-.909,1.567-2.388-.018-3.3m12.72,7.344-4.281-2.472a6.323,6.323,0,0,0-5.721-.011l-4.254,2.457c-1.575.909-1.567,2.388.018,3.3l4.281,2.472a6.32,6.32,0,0,0,5.721.011l4.255-2.456c1.575-.91,1.567-2.389-.018-3.3m12.72,7.344-4.281-2.472a6.325,6.325,0,0,0-5.721-.01l-4.254,2.456c-1.575.91-1.568,2.389.018,3.3l4.281,2.472a6.323,6.323,0,0,0,5.722.011l4.254-2.457c1.575-.909,1.568-2.388-.018-3.3m12.985,7.5-4.281-2.472a6.325,6.325,0,0,0-5.721-.011l-4.254,2.457c-1.575.909-1.568,2.388.018,3.3l4.281,2.472a6.323,6.323,0,0,0,5.721.01l4.254-2.456c1.575-.91,1.567-2.389-.018-3.3" transform="translate(-57.534 -71.817)" fill="#72b5e8"/>
              <path id="Trazado_217563" data-name="Trazado 217563" d="M257.028,247.718l10.727,6.193a5.442,5.442,0,0,0,4.924.009c1.356-.783,1.349-2.056-.016-2.843l-10.726-6.193a5.442,5.442,0,0,0-4.924-.009c-1.356.782-1.349,2.055.015,2.843m18.366,10.6,5.081,2.933a5.442,5.442,0,0,0,4.924.009c1.356-.782,1.349-2.055-.016-2.843l-5.081-2.933a5.443,5.443,0,0,0-4.925-.009c-1.355.783-1.349,2.055.016,2.843m12.72,7.344L293.2,268.6a5.442,5.442,0,0,0,4.924.008c1.356-.782,1.349-2.055-.016-2.843l-5.081-2.933a5.443,5.443,0,0,0-4.925-.008c-1.355.782-1.349,2.055.016,2.843m12.72,7.344,5.081,2.933a5.442,5.442,0,0,0,4.924.009c1.356-.782,1.349-2.055-.016-2.843l-5.081-2.933a5.445,5.445,0,0,0-4.925-.009c-1.355.783-1.349,2.056.016,2.843m12.72,7.344,5.081,2.933a5.445,5.445,0,0,0,4.925.009c1.356-.783,1.349-2.056-.016-2.843l-5.081-2.933a5.441,5.441,0,0,0-4.925-.009c-1.355.782-1.349,2.055.016,2.843m12.72,7.344,5.081,2.934a5.443,5.443,0,0,0,4.925.008c1.356-.782,1.349-2.055-.016-2.843l-5.081-2.934a5.443,5.443,0,0,0-4.925-.008c-1.355.782-1.349,2.055.016,2.843M339,295.041l5.081,2.933a5.443,5.443,0,0,0,4.925.009c1.355-.783,1.349-2.055-.016-2.843l-5.081-2.933a5.445,5.445,0,0,0-4.925-.009c-1.355.783-1.349,2.055.016,2.843m12.72,7.344,5.081,2.933a5.443,5.443,0,0,0,4.925.008c1.355-.782,1.349-2.055-.016-2.843l-5.081-2.934a5.445,5.445,0,0,0-4.925-.009c-1.355.782-1.349,2.055.016,2.843m12.72,7.344,5.081,2.933a5.441,5.441,0,0,0,4.925.009c1.355-.782,1.349-2.055-.016-2.843l-5.081-2.934a5.441,5.441,0,0,0-4.924-.009c-1.355.782-1.349,2.055.016,2.843m12.72,7.344,5.081,2.933a5.443,5.443,0,0,0,4.925.009c1.355-.783,1.349-2.056-.016-2.843l-5.081-2.933a5.441,5.441,0,0,0-4.924-.009c-1.355.783-1.349,2.056.016,2.843m12.72,7.344,5.081,2.933a5.443,5.443,0,0,0,4.925.008c1.355-.782,1.349-2.055-.016-2.843l-5.081-2.933a5.441,5.441,0,0,0-4.924-.009c-1.355.782-1.349,2.055.016,2.843m12.72,7.344,5.081,2.934a5.445,5.445,0,0,0,4.925.009c1.355-.782,1.349-2.055-.016-2.843l-5.081-2.933a5.442,5.442,0,0,0-4.924-.009c-1.355.782-1.349,2.055.016,2.843m12.985,7.5,5.081,2.933a5.444,5.444,0,0,0,4.924.009c1.356-.783,1.349-2.056-.015-2.843l-5.081-2.933a5.441,5.441,0,0,0-4.924-.009c-1.356.783-1.349,2.055.016,2.843M245.588,254.717l4.4,2.54a6.193,6.193,0,0,0,5.6.01l4.371-2.523c1.543-.891,1.536-2.34-.017-3.236l-4.4-2.54a6.194,6.194,0,0,0-5.6-.01l-4.371,2.524c-1.543.891-1.535,2.339.018,3.236m22.723,9.894,4.371-2.524c1.543-.891,1.536-2.339-.017-3.236l-4.4-2.54a6.194,6.194,0,0,0-5.6-.01l-4.371,2.523c-1.543.891-1.535,2.339.018,3.236l4.4,2.539a6.193,6.193,0,0,0,5.6.011m2.717,4.794,4.4,2.54a6.193,6.193,0,0,0,5.6.011l4.372-2.524c1.543-.891,1.534-2.339-.018-3.236l-4.4-2.54a6.194,6.194,0,0,0-5.6-.011l-4.371,2.524c-1.543.891-1.535,2.339.018,3.236m12.72,7.344,4.4,2.54a6.193,6.193,0,0,0,5.6.01l4.372-2.524c1.543-.891,1.534-2.339-.018-3.236l-4.4-2.54a6.194,6.194,0,0,0-5.6-.01l-4.371,2.524c-1.543.891-1.535,2.339.018,3.236m27.077,4.134-4.4-2.54a6.194,6.194,0,0,0-5.6-.01l-4.371,2.523c-1.543.891-1.535,2.339.018,3.236l4.4,2.54a6.2,6.2,0,0,0,5.6.01l4.372-2.524c1.542-.891,1.534-2.339-.018-3.236m12.72,7.344-4.4-2.54a6.194,6.194,0,0,0-5.6-.011l-4.371,2.524c-1.543.891-1.535,2.339.018,3.236l4.4,2.54a6.192,6.192,0,0,0,5.6.01l4.372-2.523c1.542-.891,1.534-2.339-.018-3.236m12.72,7.344-4.4-2.54a6.2,6.2,0,0,0-5.6-.01l-4.371,2.524c-1.543.891-1.535,2.339.017,3.236l4.4,2.54a6.194,6.194,0,0,0,5.6.01l4.371-2.524c1.543-.891,1.535-2.339-.017-3.236m12.72,7.344-4.4-2.54a6.194,6.194,0,0,0-5.6-.01l-4.371,2.523c-1.543.891-1.535,2.34.018,3.236l4.4,2.54a6.192,6.192,0,0,0,5.6.011L349,306.151c1.543-.891,1.535-2.339-.017-3.236m12.72,7.344-4.4-2.54a6.2,6.2,0,0,0-5.6-.011l-4.371,2.524c-1.543.891-1.535,2.339.018,3.236l4.4,2.54a6.194,6.194,0,0,0,5.6.01l4.371-2.523c1.543-.891,1.535-2.339-.017-3.236m12.72,7.344-4.4-2.54a6.194,6.194,0,0,0-5.6-.01l-4.371,2.524c-1.543.891-1.535,2.339.018,3.236l4.4,2.54a6.194,6.194,0,0,0,5.6.01l4.371-2.523c1.543-.891,1.535-2.34-.017-3.236m-1.637,10.554,4.4,2.539a6.194,6.194,0,0,0,5.6.011l4.371-2.524c1.543-.891,1.535-2.339-.018-3.236l-4.4-2.54a6.2,6.2,0,0,0-5.6-.011l-4.371,2.524c-1.543.891-1.535,2.339.018,3.236m27.077,4.134-4.4-2.54a6.193,6.193,0,0,0-5.6-.011l-4.371,2.524c-1.543.891-1.535,2.339.017,3.236l4.4,2.54a6.194,6.194,0,0,0,5.6.01l4.371-2.523c1.543-.891,1.535-2.339-.018-3.236M418.5,343.048l-10.045-5.8a6.194,6.194,0,0,0-5.6-.01l-4.371,2.523c-1.543.891-1.535,2.34.018,3.236l10.045,5.8a6.194,6.194,0,0,0,5.6.011l4.371-2.524c1.543-.891,1.535-2.339-.018-3.236M233.806,261.519l10.045,5.8a6.194,6.194,0,0,0,5.6.01l4.371-2.523c1.543-.891,1.535-2.34-.018-3.236l-10.045-5.8a6.193,6.193,0,0,0-5.6-.011l-4.371,2.524c-1.543.891-1.536,2.339.017,3.236m18.366,10.6,4.4,2.54a6.194,6.194,0,0,0,5.6.01l4.371-2.524c1.543-.891,1.535-2.339-.018-3.236l-4.4-2.54a6.194,6.194,0,0,0-5.6-.01l-4.371,2.523c-1.543.891-1.535,2.34.018,3.236m17.119,9.883a6.194,6.194,0,0,0,5.6.011l4.371-2.524c1.543-.891,1.535-2.339-.018-3.236l-4.4-2.54a6.194,6.194,0,0,0-5.6-.011l-4.371,2.524c-1.543.891-1.535,2.339.018,3.236Zm12.72,7.344a6.194,6.194,0,0,0,5.6.01l4.371-2.523c1.543-.891,1.535-2.34-.018-3.236l-4.4-2.54a6.194,6.194,0,0,0-5.6-.01l-4.371,2.524c-1.543.891-1.535,2.339.018,3.236Zm12.675-.955-4.371,2.523c-1.543.891-1.535,2.339.018,3.236l4.4,2.54a6.2,6.2,0,0,0,5.6.01l4.371-2.524c1.543-.891,1.535-2.339-.018-3.236l-4.4-2.54a6.194,6.194,0,0,0-5.6-.01m12.989,7.188-4.909,2.834c-1.394.805-1.387,2.114.016,2.925l4.94,2.852a5.6,5.6,0,0,0,5.065.009l4.909-2.834c1.395-.8,1.388-2.115-.016-2.925l-4.94-2.852a5.6,5.6,0,0,0-5.065-.009m12.72,7.344-4.909,2.834c-1.394.805-1.387,2.114.016,2.924l4.94,2.852a5.6,5.6,0,0,0,5.065.009l4.909-2.834c1.395-.805,1.388-2.114-.016-2.924l-4.94-2.852a5.6,5.6,0,0,0-5.065-.009m12.72,7.344-4.909,2.835c-1.394.805-1.387,2.114.016,2.924l4.94,2.852a5.6,5.6,0,0,0,5.065.009l4.909-2.834c1.395-.805,1.388-2.114-.016-2.924l-4.94-2.853a5.6,5.6,0,0,0-5.065-.009m12.72,7.344-4.909,2.834c-1.394.8-1.387,2.114.016,2.925l4.94,2.852a5.6,5.6,0,0,0,5.065.009l4.909-2.834c1.395-.805,1.388-2.114-.016-2.925l-4.94-2.852a5.6,5.6,0,0,0-5.065-.009m12.72,7.344-4.909,2.834c-1.394.805-1.387,2.114.016,2.924l4.94,2.852a5.6,5.6,0,0,0,5.065.009l4.909-2.834c1.395-.805,1.388-2.114-.016-2.924l-4.94-2.852a5.6,5.6,0,0,0-5.065-.009m17.832,15.964,4.909-2.834c1.395-.8,1.388-2.114-.016-2.924l-4.94-2.853a5.6,5.6,0,0,0-5.065-.008l-4.909,2.833c-1.394.806-1.387,2.115.016,2.925l4.94,2.852a5.6,5.6,0,0,0,5.065.009m12.72,7.344,4.909-2.834c1.395-.805,1.388-2.115-.016-2.925l-4.94-2.852a5.6,5.6,0,0,0-5.065-.009l-4.909,2.834c-1.394.8-1.387,2.115.016,2.925l4.94,2.852a5.6,5.6,0,0,0,5.065.009m17.878,1.738-4.941-2.852a5.594,5.594,0,0,0-5.064-.009l-4.909,2.834c-1.394.805-1.387,2.114.016,2.924l4.94,2.852a5.6,5.6,0,0,0,5.066.009L407,352.93c1.394-.805,1.387-2.114-.016-2.924M221.754,268.165l15.949,9.208a5.6,5.6,0,0,0,5.065.008l4.909-2.834c1.395-.805,1.387-2.114-.016-2.924l-15.949-9.208a5.6,5.6,0,0,0-5.065-.008l-4.909,2.834c-1.394.8-1.387,2.114.016,2.924m23.729,13.7,4.94,2.852a5.6,5.6,0,0,0,5.065.009l4.909-2.834c1.394-.8,1.388-2.114-.016-2.925l-4.94-2.852a5.6,5.6,0,0,0-5.065-.009l-4.909,2.834c-1.394.805-1.387,2.115.016,2.925m12.72,7.344,4.941,2.852a5.6,5.6,0,0,0,5.065.009l4.909-2.834c1.394-.8,1.388-2.115-.016-2.925l-4.94-2.852a5.6,5.6,0,0,0-5.065-.009l-4.909,2.834c-1.394.805-1.387,2.114.016,2.925m12.72,7.344,4.941,2.852a5.6,5.6,0,0,0,5.065.009l4.909-2.834c1.394-.805,1.388-2.114-.016-2.924l-4.94-2.852a5.6,5.6,0,0,0-5.065-.009l-4.909,2.834c-1.394.805-1.387,2.114.016,2.924m22.726,10.205,4.909-2.834c1.394-.805,1.388-2.114-.016-2.924l-4.94-2.853a5.6,5.6,0,0,0-5.065-.009l-4.909,2.834c-1.394.805-1.387,2.115.016,2.925l4.941,2.852a5.6,5.6,0,0,0,5.065.009m12.72,7.344,4.909-2.834c1.394-.806,1.387-2.115-.016-2.925l-4.94-2.852a5.6,5.6,0,0,0-5.065-.009l-4.909,2.834c-1.394.805-1.387,2.114.016,2.924l4.94,2.853a5.6,5.6,0,0,0,5.064.009m12.721,7.344L324,318.612c1.394-.8,1.387-2.114-.016-2.924l-4.94-2.852a5.6,5.6,0,0,0-5.065-.009l-4.909,2.834c-1.394.8-1.387,2.114.016,2.924l4.941,2.852a5.6,5.6,0,0,0,5.065.009m12.72,7.344,4.909-2.834c1.394-.805,1.387-2.114-.016-2.925l-4.94-2.852a5.6,5.6,0,0,0-5.065-.009L321.788,323c-1.394.8-1.387,2.115.016,2.925l4.94,2.852a5.6,5.6,0,0,0,5.065.009m12.72,7.344,4.909-2.835c1.394-.8,1.387-2.114-.016-2.924l-4.94-2.852a5.6,5.6,0,0,0-5.064-.009l-4.909,2.834c-1.394.805-1.387,2.114.016,2.924l4.94,2.853a5.6,5.6,0,0,0,5.065.009m12.72,7.344,4.909-2.834c1.394-.805,1.387-2.114-.016-2.924l-4.941-2.852a5.6,5.6,0,0,0-5.064-.009l-4.909,2.834c-1.394.805-1.387,2.114.016,2.924l4.94,2.852a5.6,5.6,0,0,0,5.065.009m2.715,4.483,4.94,2.852a5.6,5.6,0,0,0,5.066.009l4.909-2.834c1.394-.805,1.387-2.114-.016-2.925l-4.941-2.852a5.6,5.6,0,0,0-5.065-.009l-4.909,2.834c-1.394.805-1.387,2.115.016,2.925m35.24,8.847-12.562-7.252a5.6,5.6,0,0,0-5.065-.009l-4.909,2.834c-1.394.8-1.388,2.114.016,2.925l12.562,7.252a5.6,5.6,0,0,0,5.065.009l4.909-2.835c1.394-.805,1.387-2.114-.016-2.924M210.021,275.32l22.63,13.065a6.323,6.323,0,0,0,5.721.01l4.254-2.456c1.575-.909,1.567-2.388-.018-3.3l-22.63-13.065a6.323,6.323,0,0,0-5.721-.01L210,272.016c-1.575.909-1.568,2.388.018,3.3m31.068,17.937,4.281,2.472a6.323,6.323,0,0,0,5.722.011l4.254-2.456c1.575-.91,1.567-2.389-.018-3.3l-4.281-2.472a6.323,6.323,0,0,0-5.721-.011l-4.254,2.457c-1.575.909-1.568,2.388.018,3.3m12.72,7.344,4.281,2.472a6.323,6.323,0,0,0,5.721.011l4.254-2.457c1.575-.909,1.567-2.388-.018-3.3l-4.281-2.472a6.323,6.323,0,0,0-5.721-.01l-4.254,2.456c-1.575.91-1.568,2.388.018,3.3m12.72,7.344,4.281,2.472a6.323,6.323,0,0,0,5.721.01l4.254-2.456c1.575-.909,1.568-2.388-.018-3.3l-4.281-2.472a6.323,6.323,0,0,0-5.721-.01l-4.254,2.456c-1.575.909-1.568,2.388.018,3.3m12.72,7.344,4.281,2.472a6.323,6.323,0,0,0,5.721.011l4.254-2.456c1.575-.91,1.568-2.389-.018-3.3l-4.281-2.472a6.323,6.323,0,0,0-5.721-.011l-4.254,2.456c-1.575.91-1.568,2.389.018,3.3m12.72,7.344,4.281,2.472a6.325,6.325,0,0,0,5.721.011l4.254-2.457c1.575-.909,1.568-2.388-.018-3.3l-4.281-2.472a6.323,6.323,0,0,0-5.721-.01l-4.254,2.456c-1.575.91-1.568,2.389.018,3.3m12.72,7.344,4.281,2.472a6.323,6.323,0,0,0,5.721.01L318.948,330c1.575-.909,1.567-2.388-.018-3.3l-4.281-2.472a6.325,6.325,0,0,0-5.721-.011l-4.254,2.457c-1.575.909-1.568,2.388.018,3.3m12.72,7.344,4.281,2.472a6.323,6.323,0,0,0,5.721.011l4.254-2.456c1.575-.91,1.567-2.389-.018-3.3l-4.281-2.472a6.323,6.323,0,0,0-5.721-.011l-4.255,2.456c-1.575.91-1.567,2.389.018,3.3m12.72,7.344,4.281,2.472a6.323,6.323,0,0,0,5.721.011l4.254-2.457c1.575-.909,1.567-2.388-.018-3.3l-4.281-2.472a6.323,6.323,0,0,0-5.721-.01l-4.255,2.456c-1.575.909-1.567,2.388.018,3.3m12.72,7.344,4.281,2.472a6.323,6.323,0,0,0,5.721.01l4.254-2.456c1.575-.91,1.567-2.388-.018-3.3l-4.281-2.472a6.326,6.326,0,0,0-5.722-.011l-4.254,2.457c-1.575.909-1.567,2.388.018,3.3m12.72,7.344,4.281,2.472a6.323,6.323,0,0,0,5.721.011l4.255-2.456c1.575-.91,1.567-2.389-.018-3.3L365.53,353.6a6.324,6.324,0,0,0-5.722-.011l-4.254,2.457c-1.575.909-1.567,2.388.018,3.3m27.242,4.23-4.281-2.472a6.324,6.324,0,0,0-5.722-.011l-4.255,2.456c-1.575.91-1.567,2.389.018,3.3l4.281,2.472a6.324,6.324,0,0,0,5.722.011l4.254-2.457c1.575-.909,1.567-2.388-.018-3.3M218.125,282.1l-9.927-5.731a6.326,6.326,0,0,0-5.722-.01l-4.254,2.456c-1.575.91-1.567,2.389.018,3.3l9.926,5.731a6.324,6.324,0,0,0,5.722.01l4.254-2.456c1.575-.909,1.567-2.388-.018-3.3m12.72,7.344-4.281-2.472a6.324,6.324,0,0,0-5.722-.011l-4.254,2.457c-1.575.909-1.567,2.388.018,3.3l4.281,2.472a6.324,6.324,0,0,0,5.722.01l4.254-2.456c1.575-.91,1.567-2.388-.018-3.3m12.72,7.344-4.281-2.472a6.326,6.326,0,0,0-5.722-.01l-4.254,2.456c-1.575.91-1.567,2.389.018,3.3l4.281,2.472a6.324,6.324,0,0,0,5.722.011l4.254-2.457c1.575-.909,1.567-2.388-.018-3.3M332.606,348.2,252,301.663a6.324,6.324,0,0,0-5.722-.01l-4.254,2.456c-1.575.909-1.567,2.388.018,3.3l80.6,46.536a6.324,6.324,0,0,0,5.722.01l4.254-2.456c1.575-.909,1.567-2.388-.018-3.3m12.72,7.344-4.281-2.472a6.323,6.323,0,0,0-5.721-.011l-4.254,2.457c-1.575.909-1.567,2.388.018,3.3l4.281,2.472a6.323,6.323,0,0,0,5.721.011l4.255-2.456c1.575-.91,1.567-2.389-.018-3.3m12.72,7.344-4.281-2.472a6.323,6.323,0,0,0-5.721-.01l-4.254,2.456c-1.575.91-1.568,2.388.018,3.3l4.281,2.472a6.323,6.323,0,0,0,5.722.011l4.254-2.457c1.575-.909,1.568-2.388-.018-3.3m12.985,7.5-4.281-2.472a6.325,6.325,0,0,0-5.721-.011l-4.254,2.457c-1.575.909-1.568,2.388.018,3.3l4.281,2.472a6.321,6.321,0,0,0,5.721.011l4.254-2.456c1.575-.91,1.567-2.389-.018-3.3" transform="translate(-57.534 -71.329)" fill="#a8cff0"/>
              <path id="Trazado_217564" data-name="Trazado 217564" d="M466.58,264.962,298.075,167.618c-6.524-3.767-11.813-13.871-11.813-22.569V12.86c0-8.7,5.289-12.7,11.813-8.93L466.58,101.273c6.524,3.767,11.812,13.871,11.812,22.569V256.031c0,8.7-5.288,12.7-11.812,8.93" transform="translate(-83.584 -0.734)" fill="#dee9f0"/>
              <path id="Trazado_217565" data-name="Trazado 217565" d="M470.837,261.307,304.13,165.013c-5.249-3.337-8.5-10-8.5-16.825V15.357a2.1,2.1,0,0,1,3.154-1.8c.163.1.29.171.37.216L466,110.157c6.25,3.6,8.5,10,8.5,16.826V259.5a2.26,2.26,0,0,1-3.38,1.962l-.276-.158" transform="translate(-86.32 -3.873)" fill="#0d2380"/>
              <path id="Trazado_217566" data-name="Trazado 217566" d="M466,110.156,299.156,13.769l-.37-.216a2.094,2.094,0,0,0-3.153,1.8v132.83c0,6.822,3.247,13.489,8.5,16.825l166.707,96.294.277.159a2.261,2.261,0,0,0,3.38-1.962V126.982c0-6.822-2.247-13.223-8.5-16.826m7.17,149.347a.938.938,0,0,1-.937.935.92.92,0,0,1-.46-.125L304.793,163.863c-4.74-3.013-7.834-9.178-7.834-15.676V15.357a.771.771,0,0,1,.772-.767.754.754,0,0,1,.385.108L465.332,111.3c6.476,3.732,7.834,10.586,7.834,15.677Z" transform="translate(-86.32 -3.873)" fill="#022652"/>
              <path id="Trazado_217567" data-name="Trazado 217567" d="M471.768,98.761,303.263,1.417C300.682-.073,298.294-.348,296.351.4c-.247.1-3.54,1.846-3.772,1.974l-.011.007c2.012-.977,4.565-.794,7.348.812L468.42,100.54c6.524,3.766,11.812,13.871,11.812,22.569V255.3c0,5.428-2.06,9.025-5.195,10.047a1.963,1.963,0,0,0,1.035-.352c.149-.086,3.724-2.1,3.866-2.2,2.244-1.572,3.641-4.8,3.641-9.271V121.33c0-8.7-5.288-18.8-11.812-22.569" transform="translate(-85.425 0)" fill="#3f92d1"/>
              <path id="Trazado_217568" data-name="Trazado 217568" d="M471.768,98.761,303.263,1.417C300.682-.073,298.294-.348,296.351.4c-.247.1-3.54,1.846-3.772,1.974l-.011.007c2.012-.977,4.565-.794,7.348.812L468.42,100.54Z" transform="translate(-85.425 0)" fill="#4f9fdb"/>
              <g id="Grupo_146418" data-name="Grupo 146418" transform="translate(207.943 1.508)" style="mix-blend-mode: screen;isolation: isolate">
                <g id="Grupo_146417" data-name="Grupo 146417">
                  <g id="Grupo_146416" data-name="Grupo 146416" clip-path="url(#clip-path-6)">
                    <path id="Trazado_217569" data-name="Trazado 217569" d="M469.318,100.878,300.813,3.535c-2.675-1.545-5.135-1.765-7.115-.909a8.719,8.719,0,0,1,5.7,1.335L467.9,101.3c6.524,3.766,11.813,13.871,11.813,22.569V256.062c0,5.131-1.849,8.608-4.7,9.839,3.644-.578,6.114-4.322,6.114-10.264V123.448c0-8.7-5.288-18.8-11.812-22.569" transform="translate(-293.698 -2.13)" fill="#fff"/>
                  </g>
                </g>
              </g>
              <g id="Grupo_146421" data-name="Grupo 146421" transform="translate(33.946 26.992)" opacity="0.1">
                <g id="Grupo_146420" data-name="Grupo 146420">
                  <g id="Grupo_146419" data-name="Grupo 146419" clip-path="url(#clip-path-7)">
                    <path id="Trazado_217570" data-name="Trazado 217570" d="M382.813,118.166,241.949,38.123c-.36,18.752-.034,77.509-.139,96.707-.17,31.088-4.821,55.572-40.71,83.663-11.419,8.938-61.8,36.385-102.684,57.868-16.585,8.716-17.844,12.392-26.231,19.5-8.128,6.885-20.595,13.284-24.24,15.409l139.93,80.913c2.615-1.551,16.228-8.379,25.168-15.952,8.387-7.1,9.646-14.681,26.232-23.4,40.882-21.483,110.925-64.5,123.36-71.96,15.952-9.571,20.033-15.6,20.033-40.765,0-19.306-.224-103.535.144-121.94" transform="translate(-47.946 -38.123)" fill="#001a46"/>
                  </g>
                </g>
              </g>
              <path id="Trazado_217571" data-name="Trazado 217571" d="M383.653,118.967,242.789,38.924c-.36,8.968-.034,83.348-.139,102.547-.17,31.088-4.821,39.948-40.71,68.039-11.419,8.938-61.8,36.385-102.684,57.868C82.672,276.093,80,287.214,71.608,294.318c-8.127,6.885-17.14,8.767-20.786,10.892l139.931,80.913c2.615-1.551,12.774-3.863,21.713-11.435,8.387-7.1,11.063-18.225,27.649-26.941C281,326.265,331.38,298.818,342.8,289.88c35.889-28.09,40.54-36.952,40.71-68.039.105-19.306-.224-94.253.144-102.874" transform="translate(-14.839 -11.365)" fill="#fff"/>
              <path id="Trazado_217572" data-name="Trazado 217572" d="M441.154,526.744c-3.835,23.709-30.728,20.348-47.53,20.326a30.455,30.455,0,0,1-6.605-2.453c-10.583-5.37-18.053-16.575-6.848-27.78a34.821,34.821,0,0,1,4.41-3.72A40.635,40.635,0,0,1,408,505.684c12.512-2.293,25.959,4.43,31.836,15.772a15.379,15.379,0,0,1,1.32,5.288" transform="translate(-109.378 -147.521)" fill="#feda8e"/>
              <g id="Grupo_146424" data-name="Grupo 146424" transform="translate(265.255 375.556)" opacity="0.5" style="mix-blend-mode: multiply;isolation: isolate">
                <g id="Grupo_146423" data-name="Grupo 146423">
                  <g id="Grupo_146422" data-name="Grupo 146422" clip-path="url(#clip-path-8)">
                    <path id="Trazado_217573" data-name="Trazado 217573" d="M440.406,530.434c-.876,5.132-2.739,10.35-5.455,13.229-1.66,1.759-3.6.852-5.743,1.961-4.016,2.082-7.557,5.223-12.466,5.743-3.786.4-6.983-1.375-11.066-1.681-4.245-.319-9.365.823-12.74.82a30.48,30.48,0,0,1-6.605-2.455c-5.4-2.741-9.977-7.009-11.686-12.017.152,6.681,5.619,12.506,12.387,15.94a30.479,30.479,0,0,0,6.605,2.453c16.8.021,43.695,3.383,47.53-20.326a14.775,14.775,0,0,0-.761-3.667" transform="translate(-374.645 -530.434)" fill="#fc0"/>
                  </g>
                </g>
              </g>
              <g id="Grupo_146427" data-name="Grupo 146427" transform="translate(267.496 360.999)" style="mix-blend-mode: multiply;isolation: isolate">
                <g id="Grupo_146426" data-name="Grupo 146426">
                  <g id="Grupo_146425" data-name="Grupo 146425" clip-path="url(#clip-path-9)">
                    <path id="Trazado_217574" data-name="Trazado 217574" d="M436.734,513.205a1.155,1.155,0,0,0,.514-1.115,2.338,2.338,0,0,0-1.194-2.063,1.582,1.582,0,0,0-2.113.717,2.2,2.2,0,0,1-.249.615c-.333.418-1,.217-1.463-.059s-1.027-.6-1.485-.324c-.5.433-.222,1.337.361,1.656a2.927,2.927,0,0,0,1.948.1,3.623,3.623,0,0,1,1.965-.031c.578.222,1.155.764,1.716.5" transform="translate(-393.19 -509.874)" fill="#603913"/>
                    <path id="Trazado_217575" data-name="Trazado 217575" d="M454.9,522.339a11.751,11.751,0,0,1-1.211-.3c-.43-.187-.762-.557-1.2-.727a2.931,2.931,0,0,0-1.638.019l-2,.408a1.112,1.112,0,0,0-.52.2.831.831,0,0,0-.234.643c.013,1.081,1.114,1.85,2.175,2.057s2.169.047,3.23.256a12.175,12.175,0,0,0,.72,1.318,1.527,1.527,0,0,0,.895.786c.635.124,1.156-.529,1.342-1.148a2.846,2.846,0,0,0-1.564-3.514" transform="translate(-398.335 -513.181)" fill="#603913"/>
                    <path id="Trazado_217576" data-name="Trazado 217576" d="M428.068,528.992c1.33.507,2.434,1.543,3.815,1.886a.721.721,0,0,0,.628-.058.73.73,0,0,0,.206-.426,5.412,5.412,0,0,0-.06-2.524l1.27-.188a5.119,5.119,0,0,0-2.537-.983,21.948,21.948,0,0,0-6.8-.082,1.2,1.2,0,0,0,.547,1.275,11.231,11.231,0,0,0,2.93,1.1" transform="translate(-391.456 -514.697)" fill="#603913"/>
                    <path id="Trazado_217577" data-name="Trazado 217577" d="M409,510.422l-2.038-.022a1.843,1.843,0,0,0-.624.065,1.187,1.187,0,0,0-.51,1.645,2.27,2.27,0,0,0,1.589,1.029,4.346,4.346,0,0,0,2.244-.121,3.964,3.964,0,0,1,2.1-.459c.549.136,1.152.6,1.6.255a.8.8,0,0,0,.265-.467c.218-.991-.743-1.9-1.731-2.125a17.753,17.753,0,0,0-3.035-.08Z" transform="translate(-385.95 -509.943)" fill="#603913"/>
                    <path id="Trazado_217578" data-name="Trazado 217578" d="M391.306,523.671a4.83,4.83,0,0,0-2.289,1.242.688.688,0,0,0-.222.337c-.055.282.22.513.474.649a4.685,4.685,0,0,0,3.938.183c1.008-.419,1.9-1.2,2.989-1.273a.676.676,0,0,0-.086-.811,1.821,1.821,0,0,0-.743-.457,15.38,15.38,0,0,0-3.014-.859,2.742,2.742,0,0,0-1.279-.005,1.061,1.061,0,0,0-.791.913Z" transform="translate(-381.016 -513.59)" fill="#603913"/>
                    <path id="Trazado_217579" data-name="Trazado 217579" d="M382.047,540.376a1.252,1.252,0,0,0,.006-.627,2.762,2.762,0,0,0-1.37-1.856,17.757,17.757,0,0,0-1.679-.622,1.807,1.807,0,0,1-1.182-1.241,6.825,6.825,0,0,0,.467,3.126,3.149,3.149,0,0,0,2.387,1.9,1.253,1.253,0,0,0,1.371-.678" transform="translate(-377.811 -517.511)" fill="#603913"/>
                    <path id="Trazado_217580" data-name="Trazado 217580" d="M412.072,541.783l.556-.387a.853.853,0,0,0,.266-.247.685.685,0,0,0,.032-.523,2.087,2.087,0,0,0-1.306-1.348,3.882,3.882,0,0,0-1.924-.141,6.908,6.908,0,0,0-2.315.767,9.552,9.552,0,0,0,3.06,2.049,1.7,1.7,0,0,0,.944.176,1.86,1.86,0,0,0,.687-.346" transform="translate(-386.445 -518.402)" fill="#603913"/>
                    <path id="Trazado_217581" data-name="Trazado 217581" d="M438.744,540.426c-.879.159-1.708.571-2.595.681-.9.112-1.943-.283-2.751.148,1.144,2.337,5.3,2.556,7.5,2.142,1.058-.2,4.024-.305,3.179-1.982-.666-1.32-4.165-1.2-5.337-.988" transform="translate(-394.042 -518.756)" fill="#603913"/>
                    <path id="Trazado_217582" data-name="Trazado 217582" d="M458.026,537.211l3.177.267a1.532,1.532,0,0,0,.95-.124,1.117,1.117,0,0,0,.423-1.057,2.875,2.875,0,0,0-2.5-2.27,2.39,2.39,0,0,0-1.445.1,1.2,1.2,0,0,0-.726,1.169c.047.359.28.789.011,1.032-.161.146-.414.115-.611.205-.434.2-.358.907.028,1.191a2.094,2.094,0,0,0,1.384.241Z" transform="translate(-400.937 -516.908)" fill="#603913"/>
                    <path id="Trazado_217583" data-name="Trazado 217583" d="M408.011,525.2a1.339,1.339,0,0,0,.613.215l1.255.219a1.949,1.949,0,0,0,1.08-.017c.6-.249.784-.986,1.134-1.533a4.869,4.869,0,0,1,1.558-1.354l.414-.268a3.411,3.411,0,0,1,1.641-.687,1.157,1.157,0,0,0-1.318-1.406c-.6.157-.948.768-1.383,1.215-1.025,1.055-2.622,1.229-4,1.734a2.149,2.149,0,0,0-1.071.7.894.894,0,0,0,.081,1.178" transform="translate(-386.552 -512.931)" fill="#603913"/>
                    <path id="Trazado_217584" data-name="Trazado 217584" d="M398.96,550.281c.6.431.283,1.4.6,2.07a1.333,1.333,0,0,0,.646.613,1.51,1.51,0,0,0,1.778-.4,1.333,1.333,0,0,0-.154-1.774c-.28-.237-.658-.338-.936-.578a2.388,2.388,0,0,1-.468-.629c-.573-.971-1.282-2.022-2.386-2.242a6.283,6.283,0,0,0-1.885.112,2.044,2.044,0,0,1-1.764-.471,3.134,3.134,0,0,0,3.219,3.193c.461-.035.975-.163,1.35.108" transform="translate(-382.65 -520.708)" fill="#603913"/>
                    <path id="Trazado_217585" data-name="Trazado 217585" d="M430.351,550.225c.054.211-.2.365-.4.431a7.912,7.912,0,0,1-2.717.379c-.668-.024-1.541-.009-1.749.626a.972.972,0,0,0,.568,1.092,2.734,2.734,0,0,0,1.318.174,50.191,50.191,0,0,0,6.02-.594,2.273,2.273,0,0,0,1.039-.351,1.4,1.4,0,0,0-.166-2.152,1.968,1.968,0,0,0-2.325.257,2.345,2.345,0,0,1-.879.649c-.358.088-.818-.278-.632-.6Z" transform="translate(-391.72 -521.461)" fill="#603913"/>
                  </g>
                </g>
              </g>
              <path id="Trazado_217586" data-name="Trazado 217586" d="M316.831,558.223a34.891,34.891,0,0,1,4.41-3.72,40.811,40.811,0,0,1,18.407-7.122,9.463,9.463,0,0,1,2.4-.312c.147-.027.295-.037.441-.061-.338-.641.224-4-.225-4.55-3.911-4.823-17.164-13.182-28.894-11.032a40.64,40.64,0,0,0-23.418,7.433,34.877,34.877,0,0,0-4.41,3.719c-11.205,11.206-3.735,22.411,6.848,27.78A30.43,30.43,0,0,0,299,572.813c3.833.005,8.193.181,12.683.173-1.177-4.554.043-9.658,5.149-14.764" transform="translate(-81.749 -155.067)" fill="#feda8e"/>
              <g id="Grupo_146430" data-name="Grupo 146430" transform="translate(198.25 387.354)" opacity="0.5" style="mix-blend-mode: multiply;isolation: isolate">
                <g id="Grupo_146429" data-name="Grupo 146429">
                  <g id="Grupo_146428" data-name="Grupo 146428" clip-path="url(#clip-path-10)">
                    <path id="Trazado_217587" data-name="Trazado 217587" d="M342.053,547.1c-1.194.042-2.385.118-3.57.267a40.8,40.8,0,0,0-18.407,7.122,34.874,34.874,0,0,0-4.41,3.72c-5.106,5.105-6.326,10.21-5.149,14.764-4.49.008-8.85-.169-12.683-.173a30.391,30.391,0,0,1-6.605-2.454c-4.957-2.515-9.23-6.31-11.223-10.785.385,6.489,5.783,12.123,12.4,15.478a30.4,30.4,0,0,0,6.605,2.454c3.833,0,8.193.181,12.683.173-1.177-4.554.043-9.658,5.149-14.763a34.889,34.889,0,0,1,4.41-3.72,40.8,40.8,0,0,1,18.407-7.122,9.457,9.457,0,0,1,2.4-.312c.147-.027.3-.037.442-.061-.864-1.635.706-3.16-.448-4.587" transform="translate(-280.008 -547.098)" fill="#fc0"/>
                  </g>
                </g>
              </g>
              <g id="Grupo_146433" data-name="Grupo 146433" transform="translate(200.5 379.196)" style="mix-blend-mode: multiply;isolation: isolate">
                <g id="Grupo_146432" data-name="Grupo 146432">
                  <g id="Grupo_146431" data-name="Grupo 146431" clip-path="url(#clip-path-11)">
                    <path id="Trazado_217588" data-name="Trazado 217588" d="M342.109,538.907a1.154,1.154,0,0,0,.514-1.116,2.336,2.336,0,0,0-1.194-2.062,1.582,1.582,0,0,0-2.113.717,2.186,2.186,0,0,1-.249.614c-.333.418-1,.217-1.462-.058s-1.028-.6-1.486-.324c-.5.433-.222,1.337.362,1.656a2.927,2.927,0,0,0,1.948.1,3.624,3.624,0,0,1,1.965-.03c.577.221,1.154.763,1.715.5" transform="translate(-298.565 -535.575)" fill="#603913"/>
                    <path id="Trazado_217589" data-name="Trazado 217589" d="M358.436,545.647a11.734,11.734,0,0,1-1.211-.3c-.43-.187-.762-.557-1.2-.727a2.928,2.928,0,0,0-1.637.019l-2,.408a1.114,1.114,0,0,0-.52.2.831.831,0,0,0-.234.643c.013,1.081,1.114,1.85,2.175,2.057s2.169.047,3.23.256a12.186,12.186,0,0,0,.72,1.318,1.528,1.528,0,0,0,.895.786c.635.124,1.156-.529,1.342-1.148a2.847,2.847,0,0,0-1.564-3.514" transform="translate(-303.172 -538.184)" fill="#603913"/>
                    <path id="Trazado_217590" data-name="Trazado 217590" d="M333.627,549.723c1.33.507,2.434,1.544,3.815,1.886a.721.721,0,0,0,.628-.058.731.731,0,0,0,.206-.426,5.422,5.422,0,0,0-.06-2.524l1.27-.188a5.119,5.119,0,0,0-2.537-.983,21.925,21.925,0,0,0-6.8-.081,1.194,1.194,0,0,0,.547,1.274,11.228,11.228,0,0,0,2.93,1.1" transform="translate(-296.884 -538.947)" fill="#603913"/>
                    <path id="Trazado_217591" data-name="Trazado 217591" d="M314.372,536.123l-2.038-.022a1.826,1.826,0,0,0-.624.065,1.187,1.187,0,0,0-.51,1.645,2.271,2.271,0,0,0,1.589,1.029,4.353,4.353,0,0,0,2.244-.121,3.965,3.965,0,0,1,2.1-.459c.549.136,1.152.6,1.6.255a.8.8,0,0,0,.265-.467c.218-.991-.743-1.9-1.731-2.126a17.758,17.758,0,0,0-3.035-.08Z" transform="translate(-291.324 -535.645)" fill="#603913"/>
                    <path id="Trazado_217592" data-name="Trazado 217592" d="M296.681,549.372a4.83,4.83,0,0,0-2.289,1.242.688.688,0,0,0-.222.337c-.055.282.22.513.474.648a4.686,4.686,0,0,0,3.939.183c1.007-.419,1.9-1.2,2.988-1.273a.676.676,0,0,0-.086-.811,1.816,1.816,0,0,0-.743-.457,15.389,15.389,0,0,0-3.014-.859,2.744,2.744,0,0,0-1.279,0,1.061,1.061,0,0,0-.791.913Z" transform="translate(-286.39 -539.291)" fill="#603913"/>
                    <path id="Trazado_217593" data-name="Trazado 217593" d="M287.422,566.078a1.252,1.252,0,0,0,.006-.627,2.766,2.766,0,0,0-1.37-1.856c-.525-.285-1.128-.391-1.679-.622a1.806,1.806,0,0,1-1.183-1.241,6.839,6.839,0,0,0,.468,3.127,3.148,3.148,0,0,0,2.387,1.9,1.253,1.253,0,0,0,1.371-.678" transform="translate(-283.185 -543.213)" fill="#603913"/>
                    <path id="Trazado_217594" data-name="Trazado 217594" d="M313.187,562.446c-.879.159-1.708.571-2.595.681-.9.112-1.944-.283-2.751.148,1.144,2.337,5.3,2.556,7.5,2.142,1.058-.2,4.024-.305,3.179-1.983-.666-1.319-4.165-1.2-5.337-.988" transform="translate(-290.384 -543.383)" fill="#603913"/>
                    <path id="Trazado_217595" data-name="Trazado 217595" d="M313.386,550.9a1.33,1.33,0,0,0,.613.215l1.255.219a1.941,1.941,0,0,0,1.08-.017c.6-.249.784-.986,1.134-1.533a4.883,4.883,0,0,1,1.557-1.354l.414-.268a3.416,3.416,0,0,1,1.641-.687,1.157,1.157,0,0,0-1.318-1.406c-.6.157-.948.768-1.383,1.216-1.025,1.054-2.622,1.228-4,1.733a2.154,2.154,0,0,0-1.072.7.894.894,0,0,0,.082,1.178" transform="translate(-291.926 -538.632)" fill="#603913"/>
                    <path id="Trazado_217596" data-name="Trazado 217596" d="M304.335,575.982c.6.431.283,1.4.6,2.07a1.328,1.328,0,0,0,.645.613,1.512,1.512,0,0,0,1.779-.4,1.334,1.334,0,0,0-.154-1.774c-.28-.238-.658-.338-.937-.578a2.425,2.425,0,0,1-.469-.629c-.571-.97-1.28-2.022-2.385-2.242a6.282,6.282,0,0,0-1.885.112,2.042,2.042,0,0,1-1.764-.471,3.134,3.134,0,0,0,3.219,3.192c.461-.035.975-.163,1.35.108" transform="translate(-288.025 -546.41)" fill="#603913"/>
                  </g>
                </g>
              </g>
              <path id="Trazado_217597" data-name="Trazado 217597" d="M350.562,572.113c-5.75,1.965-.261,7.3,5.345,6.126s10.3-11.471-5.345-6.126" transform="translate(-101.646 -166.602)" fill="#feda8e"/>
              <g id="Grupo_146436" data-name="Grupo 146436" transform="translate(246.499 404.458)" opacity="0.5" style="mix-blend-mode: multiply;isolation: isolate">
                <g id="Grupo_146435" data-name="Grupo 146435">
                  <g id="Grupo_146434" data-name="Grupo 146434" clip-path="url(#clip-path-12)">
                    <path id="Trazado_217598" data-name="Trazado 217598" d="M360.128,571.256c-.324,1.985-2.69,4.427-5.253,4.963a7.84,7.84,0,0,1-6.708-1.686c-.241,2.217,3.714,4.747,7.751,3.9,3.745-.784,7.073-5.636,4.211-7.179" transform="translate(-348.155 -571.256)" fill="#fc0"/>
                  </g>
                </g>
              </g>
              <path id="Trazado_217599" data-name="Trazado 217599" d="M333.058,577.322c-2.492.852-.113,3.163,2.316,2.655s4.463-4.971-2.316-2.655" transform="translate(-96.939 -168.375)" fill="#feda8e"/>
              <g id="Grupo_146439" data-name="Grupo 146439" transform="translate(235.072 408.491)" opacity="0.5" style="mix-blend-mode: multiply;isolation: isolate">
                <g id="Grupo_146438" data-name="Grupo 146438">
                  <g id="Grupo_146437" data-name="Grupo 146437" clip-path="url(#clip-path-13)">
                    <path id="Trazado_217600" data-name="Trazado 217600" d="M337.2,576.951a3.114,3.114,0,0,1-2.276,2.151,3.4,3.4,0,0,1-2.908-.731c-.1.961,1.609,2.057,3.36,1.691,1.622-.339,3.065-2.442,1.824-3.111" transform="translate(-332.015 -576.951)" fill="#fc0"/>
                  </g>
                </g>
              </g>
              <path id="Trazado_217601" data-name="Trazado 217601" d="M343.553,583.4c-2.492.852-.113,3.163,2.316,2.655s4.463-4.971-2.316-2.655" transform="translate(-100.003 -170.149)" fill="#feda8e"/>
              <g id="Grupo_146442" data-name="Grupo 146442" transform="translate(242.502 412.792)" opacity="0.5" style="mix-blend-mode: multiply;isolation: isolate">
                <g id="Grupo_146441" data-name="Grupo 146441">
                  <g id="Grupo_146440" data-name="Grupo 146440" clip-path="url(#clip-path-13)">
                    <path id="Trazado_217602" data-name="Trazado 217602" d="M347.7,583.027a3.114,3.114,0,0,1-2.277,2.151,3.4,3.4,0,0,1-2.907-.731c-.1.961,1.609,2.057,3.36,1.691,1.623-.339,3.065-2.442,1.825-3.111" transform="translate(-342.509 -583.027)" fill="#fc0"/>
                  </g>
                </g>
              </g>
              <path id="Trazado_217603" data-name="Trazado 217603" d="M193.1,367.692q-2.214,1.191-4.351,2.334l99.115,57.39q2.23-1.182,4.422-2.348Z" transform="translate(-55.112 -107.36)" fill="#a8cff0"/>
              <path id="Trazado_217604" data-name="Trazado 217604" d="M206.1,360.682q-2.186,1.184-4.336,2.345l99.21,57.391q2.227-1.189,4.41-2.358Z" transform="translate(-58.911 -105.313)" fill="#a8cff0"/>
              <path id="Trazado_217605" data-name="Trazado 217605" d="M231.937,346.555q-2.144,1.186-4.3,2.37l99.419,57.4q2.219-1.2,4.381-2.382Z" transform="translate(-66.466 -101.188)" fill="#a8cff0"/>
              <path id="Trazado_217606" data-name="Trazado 217606" d="M219.047,353.638q-2.165,1.184-4.32,2.357l99.311,57.392q2.224-1.2,4.4-2.37Z" transform="translate(-62.697 -103.257)" fill="#a8cff0"/>
              <path id="Trazado_217607" data-name="Trazado 217607" d="M244.754,339.426q-2.117,1.187-4.273,2.388l99.534,57.406q2.22-1.217,4.361-2.4Z" transform="translate(-70.217 -99.107)" fill="#a8cff0"/>
              <path id="Trazado_217608" data-name="Trazado 217608" d="M142.4,365.786c-1.534.813-4.922,2.386-6.291,3.109l77.156,44.374c1.288-.85,4.576-2.48,6.045-3.3Z" transform="translate(-39.743 -106.804)" fill="#fc502d"/>
              <path id="Trazado_217609" data-name="Trazado 217609" d="M127.407,373.833l-1.951,1.026c-.831.437-1.605.882-2.351,1.331L242.75,445.178q1.586-1.461,3.423-2.914Z" transform="translate(-35.945 -109.153)" fill="#a8cff0"/>
              <path id="Trazado_217610" data-name="Trazado 217610" d="M233.052,316.042c-1.391.8-4.87,2.639-6.306,3.452L307.367,365.7c1.475-.818,4.994-2.667,6.407-3.455Z" transform="translate(-66.206 -92.279)" fill="#fc502d"/>
              <path id="Trazado_217611" data-name="Trazado 217611" d="M99.145,400.6c-.852,1.1-1.745,2.2-2.7,3.281L216.8,473.43c.645-.47,1.284-.964,1.909-1.493a18.862,18.862,0,0,0,1.5-1.428Z" transform="translate(-28.161 -116.969)" fill="#a8cff0"/>
              <path id="Trazado_217612" data-name="Trazado 217612" d="M337.227,134.976l72.938,40.813c0-2.074-.006-5.683-.008-7.676l-72.938-41.532c0,.239,0,2.045,0,2.283,0,2.057,0,4.1.008,6.111" transform="translate(-98.463 -36.96)" fill="#fc502d"/>
              <path id="Trazado_217613" data-name="Trazado 217613" d="M337.245,150.847l118.942,66.961q0-1.463,0-2.941c0-.663,0-1.295,0-1.951L337.24,146.048q0,2.453,0,4.8" transform="translate(-98.469 -42.644)" fill="#a8cff0"/>
              <path id="Trazado_217614" data-name="Trazado 217614" d="M115.71,381.33a37.729,37.729,0,0,0-3.283,2.943l120.948,69.79c.873-1.069,1.814-2.158,2.828-3.256Z" transform="translate(-32.827 -111.342)" fill="#a8cff0"/>
              <path id="Trazado_217615" data-name="Trazado 217615" d="M106.858,390.538c-.892,1.1-1.739,2.218-2.584,3.348L225.527,463.9c.47-.62.948-1.26,1.444-1.927.362-.486.734-.986,1.112-1.489Z" transform="translate(-30.446 -114.031)" fill="#a8cff0"/>
              <path id="Trazado_217616" data-name="Trazado 217616" d="M324.88,240.454c-.688,1.193-1.438,2.378-2.239,3.56l121.869,69.2A39.815,39.815,0,0,0,446.8,309.6Z" transform="translate(-94.206 -70.209)" fill="#a8cff0"/>
              <path id="Trazado_217617" data-name="Trazado 217617" d="M330.487,229.049c-.488,1.326-1.032,2.625-1.626,3.908l121.765,69.061a35.737,35.737,0,0,0,1.335-4.152Z" transform="translate(-96.022 -66.879)" fill="#a8cff0"/>
              <path id="Trazado_217618" data-name="Trazado 217618" d="M334.2,212.853c-.29,1.46-.615,5.515-.991,6.9l98.464,55.529c.21-1.475.374-5.643.493-7.264Z" transform="translate(-97.293 -62.15)" fill="#fc502d"/>
              <path id="Trazado_217619" data-name="Trazado 217619" d="M337.253,160.433c0,1.672,0,3.277,0,4.8L456.2,232.29q0-2.4-.006-4.9Z" transform="translate(-98.472 -46.844)" fill="#a8cff0"/>
              <path id="Trazado_217620" data-name="Trazado 217620" d="M337.246,174.824c0,1.79-.006,3.406-.011,4.8l118.973,67.152q0-2.357,0-4.9Z" transform="translate(-98.467 -51.046)" fill="#a8cff0"/>
              <path id="Trazado_217621" data-name="Trazado 217621" d="M337.087,189.173c-.033,1.626-.087,3.2-.159,4.725l119.184,67.356c0-1.483.006-3.122.006-4.9Z" transform="translate(-98.378 -55.235)" fill="#a8cff0"/>
              <path id="Trazado_217622" data-name="Trazado 217622" d="M278.877,286.855q-1.727,1.38-3.551,2.813l119.815,68.387c1.543-.98,2.87-1.853,4-2.627Z" transform="translate(-80.391 -83.757)" fill="#a8cff0"/>
              <path id="Trazado_217623" data-name="Trazado 217623" d="M267.906,295.145c-1.156.8-2.472,1.672-3.914,2.6L383.111,365.8q2.228-1.323,4.184-2.514Z" transform="translate(-77.081 -86.178)" fill="#a8cff0"/>
              <path id="Trazado_217624" data-name="Trazado 217624" d="M255.944,302.823q-1.952,1.2-4.1,2.494l118.8,67.935q2.214-1.273,4.261-2.466Z" transform="translate(-73.534 -88.419)" fill="#a8cff0"/>
              <path id="Trazado_217625" data-name="Trazado 217625" d="M317.572,250.864c-.858,1.09-1.756,2.183-2.724,3.287L436.356,323.22q1.6-1.656,2.951-3.233Z" transform="translate(-91.931 -73.248)" fill="#a8cff0"/>
              <path id="Trazado_217626" data-name="Trazado 217626" d="M301,267.2c-1.065.968-3.723,3.644-4.874,4.647l86.025,48.939c1.224-1,3.947-3.666,5.065-4.609Z" transform="translate(-86.465 -78.018)" fill="#fc502d"/>
              <path id="Trazado_217627" data-name="Trazado 217627" d="M289.339,278.339q-1.673,1.4-3.461,2.864l120.438,68.673c1.241-.977,2.445-1.93,3.6-2.854Z" transform="translate(-83.472 -81.271)" fill="#a8cff0"/>
              <path id="Trazado_217628" data-name="Trazado 217628" d="M237.929,337.578a5.927,5.927,0,0,1-5.365-.011c-1.485-.857-1.493-2.244-.016-3.1a5.925,5.925,0,0,1,5.364.01c1.486.858,1.494,2.244.017,3.1" transform="translate(-67.578 -97.474)" fill="#0d2380"/>
              <path id="Trazado_217629" data-name="Trazado 217629" d="M225.318,344.528a5.929,5.929,0,0,1-5.365-.01c-1.486-.857-1.494-2.244-.017-3.1a5.928,5.928,0,0,1,5.364.01c1.486.857,1.494,2.244.018,3.1" transform="translate(-63.896 -99.504)" fill="#0d2380"/>
              <path id="Trazado_217630" data-name="Trazado 217630" d="M212.706,351.478a5.928,5.928,0,0,1-5.364-.01c-1.486-.857-1.494-2.244-.017-3.1a5.927,5.927,0,0,1,5.364.01c1.486.857,1.494,2.244.017,3.1" transform="translate(-60.214 -101.533)" fill="#0d2380"/>
              <path id="Trazado_217631" data-name="Trazado 217631" d="M200.094,358.428a5.927,5.927,0,0,1-5.364-.01c-1.486-.857-1.494-2.244-.017-3.1a5.927,5.927,0,0,1,5.364.01c1.486.857,1.494,2.244.017,3.1" transform="translate(-56.531 -103.562)" fill="#0d2380"/>
              <path id="Trazado_217632" data-name="Trazado 217632" d="M187.482,365.379a5.927,5.927,0,0,1-5.364-.01c-1.486-.858-1.494-2.244-.017-3.1a5.927,5.927,0,0,1,5.364.01c1.486.857,1.494,2.244.017,3.1" transform="translate(-52.849 -105.592)" fill="#0d2380"/>
              <path id="Trazado_217633" data-name="Trazado 217633" d="M251.383,434.158c0,1.208,1.682,2.186,3.755,2.186s3.755-.978,3.755-2.186-1.682-2.187-3.755-2.187-3.755.979-3.755,2.187" transform="translate(-73.4 -126.129)" fill="#fc502d"/>
              <path id="Trazado_217634" data-name="Trazado 217634" d="M359.817,520.948l-5.181,4.2,9.385,3.128Z" transform="translate(-103.548 -152.109)" fill="#eb4680"/>
              <path id="Trazado_217635" data-name="Trazado 217635" d="M334.6,502.239a.769.769,0,0,1-.414-.12l-1.239-.772a.782.782,0,1,1,.828-1.326l1.239.773a.782.782,0,0,1-.414,1.445m-5.221-3.255a.775.775,0,0,1-.414-.119l-2.654-1.656a.782.782,0,0,1,.828-1.326l2.653,1.656a.782.782,0,0,1-.413,1.445m-6.636-4.14a.774.774,0,0,1-.414-.119l-2.655-1.656a.782.782,0,0,1,.828-1.326l2.655,1.656a.782.782,0,0,1-.414,1.445m-6.636-4.138a.775.775,0,0,1-.414-.119l-2.655-1.656a.782.782,0,0,1,.828-1.326l2.654,1.656a.782.782,0,0,1-.414,1.445m-5.629-5.082a.782.782,0,0,1-.76-.6,5.371,5.371,0,0,1-.145-1.238v-2.062a.782.782,0,0,1,1.564,0v2.062a3.863,3.863,0,0,0,.1.877.783.783,0,0,1-.581.941.76.76,0,0,1-.181.021m-.124-7.812a.782.782,0,0,1-.782-.782V473.9a.782.782,0,1,1,1.564,0v3.128a.782.782,0,0,1-.782.782m-.033-7.819a.783.783,0,0,1-.776-.694,5.07,5.07,0,0,0-.993-2.487.782.782,0,0,1,1.247-.944,6.622,6.622,0,0,1,1.3,3.254.782.782,0,0,1-.689.866c-.03,0-.059.005-.09.005m-4.921-5.6a.786.786,0,0,1-.4-.108l-2.7-1.586a.782.782,0,0,1,.794-1.347l2.7,1.586a.782.782,0,0,1-.4,1.456m-6.741-3.966a.786.786,0,0,1-.4-.108l-2.7-1.586a.782.782,0,1,1,.794-1.347l2.7,1.586a.782.782,0,0,1-.4,1.456m-6.741-3.964a.786.786,0,0,1-.4-.108l-2.7-1.587a.782.782,0,0,1,.794-1.347l2.7,1.587a.782.782,0,0,1-.4,1.456m-6.743-3.966a.786.786,0,0,1-.4-.108l-2.7-1.586a.782.782,0,1,1,.794-1.347l2.7,1.586a.782.782,0,0,1-.4,1.456m-6.741-3.966a.786.786,0,0,1-.4-.108l-2.7-1.586a.782.782,0,1,1,.794-1.347l2.7,1.586a.782.782,0,0,1-.4,1.456m-6.742-3.964a.773.773,0,0,1-.4-.108l-2.7-1.586a.781.781,0,0,1,.792-1.347l2.7,1.586a.782.782,0,0,1-.4,1.456m-6.742-3.966a.786.786,0,0,1-.4-.108l-2.7-1.586a.782.782,0,1,1,.794-1.347l2.7,1.586a.782.782,0,0,1-.4,1.456" transform="translate(-76.346 -127.729)" fill="#fc502d"/>
              <path id="Trazado_217636" data-name="Trazado 217636" d="M194.5,326.639a.775.775,0,0,1-.394-.107l-2.184-1.276a.782.782,0,0,1,.788-1.35l2.185,1.276a.782.782,0,0,1-.394,1.457M188.26,323a.765.765,0,0,1-.394-.107l-2.7-1.577a.782.782,0,1,1,.788-1.35l2.7,1.576A.782.782,0,0,1,188.26,323m-6.754-3.942a.768.768,0,0,1-.394-.108l-2.7-1.577a.782.782,0,1,1,.789-1.35l2.7,1.577a.783.783,0,0,1-.394,1.458m-6.754-3.944a.774.774,0,0,1-.394-.107l-2.7-1.577a.782.782,0,0,1,.788-1.35l2.7,1.576a.782.782,0,0,1-.394,1.458M168,311.167a.765.765,0,0,1-.394-.107l-2.7-1.578a.782.782,0,1,1,.788-1.35l2.7,1.578a.782.782,0,0,1-.394,1.457m-6.753-3.944a.775.775,0,0,1-.394-.107l-2.7-1.577a.782.782,0,1,1,.788-1.35l2.7,1.577a.782.782,0,0,1-.394,1.457m-6.755-3.943a.774.774,0,0,1-.394-.107l-2.7-1.578a.782.782,0,0,1,.788-1.35l2.7,1.578a.782.782,0,0,1-.394,1.457m-6.755-3.944a.774.774,0,0,1-.394-.107l-2.7-1.577a.781.781,0,1,1,.788-1.349l2.7,1.575a.783.783,0,0,1-.394,1.459m-8.832-1.664a.782.782,0,0,1-.782-.783,2.8,2.8,0,0,1,2.75-2.79h.012a.782.782,0,0,1,.013,1.564,1.234,1.234,0,0,0-1.21,1.226.782.782,0,0,1-.782.783" transform="translate(-40.328 -85.872)" fill="#fc502d"/>
              <path id="Trazado_217637" data-name="Trazado 217637" d="M120.536,297.163a.793.793,0,0,1-.4-.107l-2.7-1.582a.783.783,0,0,1,.79-1.351l2.7,1.583a.782.782,0,0,1-.4,1.457m-6.747-3.955a.794.794,0,0,1-.4-.107l-2.7-1.582a.783.783,0,0,1,.791-1.351l2.7,1.583a.782.782,0,0,1-.4,1.457m-6.747-3.956a.8.8,0,0,1-.4-.107l-2.7-1.581a.782.782,0,1,1,.79-1.35l2.7,1.581a.782.782,0,0,1-.4,1.457m-6.747-3.955a.794.794,0,0,1-.4-.107l-2.7-1.582a.783.783,0,0,1,.791-1.351l2.7,1.583a.782.782,0,0,1-.4,1.457m-6.747-3.955a.782.782,0,0,1-.4-.107l-2.7-1.583a.782.782,0,1,1,.792-1.349l2.7,1.582a.782.782,0,0,1-.4,1.456" transform="translate(-26.297 -81.228)" fill="#fc502d"/>
              <path id="Trazado_217638" data-name="Trazado 217638" d="M96.468,279.333l-4.823,3.52-3.314-5.671Z" transform="translate(-25.791 -80.933)" fill="#fc502d"/>
              <path id="Trazado_217639" data-name="Trazado 217639" d="M48.739,267.7a4.641,4.641,0,0,1-4.2.008.726.726,0,0,0-.656,0l-16.368,9.451L25.326,275.9a.2.2,0,0,1,0-.379l18.556-10.714a.724.724,0,0,1,.656,0,4.641,4.641,0,0,0,4.2-.009,1.493,1.493,0,0,0,.872-1.192l.008,0v2.863l-.016-.006a1.449,1.449,0,0,1-.864,1.245" transform="translate(-7.356 -76.968)" fill="#084c94"/>
              <path id="Trazado_217640" data-name="Trazado 217640" d="M65.882,247.812a3.121,3.121,0,0,0,1.851,2.649,4.642,4.642,0,0,0,4.2-.008,1.279,1.279,0,0,0,.013-2.424.2.2,0,0,1,0-.379L90.5,236.937a.725.725,0,0,1,.656,0l10.594,6.117c.181.1.179.273,0,.379l-2.189,1.264-8.4-4.852a.725.725,0,0,0-.656,0l-17.666,10.2v2.07l-.038-.021a1.448,1.448,0,0,1-.867,1.267,4.644,4.644,0,0,1-4.2.009,3.272,3.272,0,0,1-1.813-2.335l-.064-.064V247.8Z" transform="translate(-19.229 -69.159)" fill="#084c94"/>
              <path id="Trazado_217641" data-name="Trazado 217641" d="M51.007,267.405a5.8,5.8,0,0,0,5.248-.009l23.69-13.677c1.454-.839,1.461-2.2.016-3.03a5.8,5.8,0,0,0-5.248.009l-23.69,13.677c-1.454.839-1.461,2.2-.016,3.03" transform="translate(-14.578 -73.015)" fill="#3f92d1"/>
              <path id="Trazado_217642" data-name="Trazado 217642" d="M67.117,273.364c.181.1.179.273,0,.378l-.887.513V271.97l.056.011a1.36,1.36,0,0,0,.833,1.383" transform="translate(-19.338 -79.411)" fill="#084c94"/>
              <path id="Trazado_217643" data-name="Trazado 217643" d="M18.679,281.351l10.593,6.117a10.02,10.02,0,0,0,9.053-.017l18.556-10.713a3.088,3.088,0,0,0,1.859-2.785l.029.006v3.26l-.033-.01a3.284,3.284,0,0,1-1.856,2.436L38.325,290.359a10.018,10.018,0,0,1-9.053.016l-10.593-6.117a3.264,3.264,0,0,1-1.815-2.341l-.016-.018v-2.984a3.219,3.219,0,0,0,1.83,2.436" transform="translate(-4.92 -79.99)" fill="#084c94"/>
              <path id="Trazado_217644" data-name="Trazado 217644" d="M51.014,268.42a5.8,5.8,0,0,0,5.248-.009l23.69-13.677a2.06,2.06,0,0,0,1.039-1.192v2.237c.183.657-.159,1.355-1.039,1.863l-23.69,13.677a5.8,5.8,0,0,1-5.248.01,2.043,2.043,0,0,1-1.024-1.169h-.012v-.076a1.238,1.238,0,0,1,0-.518v-2.39a1.97,1.97,0,0,0,1.036,1.246" transform="translate(-14.585 -74.03)" fill="#084c94"/>
              <path id="Trazado_217645" data-name="Trazado 217645" d="M67.741,249.047a4.638,4.638,0,0,0,4.2-.008,1.279,1.279,0,0,0,.013-2.424.2.2,0,0,1,0-.379l18.556-10.714a.727.727,0,0,1,.656,0l10.593,6.117a.2.2,0,0,1,0,.379L83.2,252.731a.727.727,0,0,1-.656,0,4.64,4.64,0,0,0-4.2.007,1.28,1.28,0,0,0-.013,2.424,10.021,10.021,0,0,0,9.052-.016l18.557-10.714c2.5-1.446,2.516-3.791.028-5.227l-10.594-6.117a10.019,10.019,0,0,0-9.052.016L67.769,243.821c-2.5,1.446-2.516,3.79-.028,5.227" transform="translate(-19.237 -67.746)" fill="#3f92d1"/>
              <path id="Trazado_217646" data-name="Trazado 217646" d="M83.1,259.145a10.018,10.018,0,0,0,9.053-.016l18.556-10.714a3.116,3.116,0,0,0,1.866-2.74l.035-.023v3.3l-.06.015a3.332,3.332,0,0,1-1.841,2.352L92.156,262.036a10.02,10.02,0,0,1-9.053.016,1.55,1.55,0,0,1-.834-1.032l-.052,0v-3.083l.026.011a1.465,1.465,0,0,0,.86,1.192" transform="translate(-24.006 -71.726)" fill="#084c94"/>
              <path id="Trazado_217647" data-name="Trazado 217647" d="M18.668,277.38,29.261,283.5a10.02,10.02,0,0,0,9.053-.017L56.87,272.767c2.5-1.446,2.517-3.791.028-5.227a4.638,4.638,0,0,0-4.2.007,1.28,1.28,0,0,0-.013,2.424.2.2,0,0,1,0,.379L34.129,281.064a.723.723,0,0,1-.656,0l-10.594-6.116a.2.2,0,0,1,0-.379l18.556-10.714a.727.727,0,0,1,.656,0,4.636,4.636,0,0,0,4.2-.008,1.279,1.279,0,0,0,.013-2.424,10.02,10.02,0,0,0-9.053.016L18.7,272.154c-2.5,1.446-2.516,3.79-.028,5.227" transform="translate(-4.908 -76.018)" fill="#3f92d1"/>
              <path id="Trazado_217648" data-name="Trazado 217648" d="M51.023,268.082a5.8,5.8,0,0,0,5.248-.009L79.96,254.4A2.055,2.055,0,0,0,81,253.2a1.215,1.215,0,0,1,.018.243,1.96,1.96,0,0,1-1.058,1.306l-23.69,13.677a5.8,5.8,0,0,1-5.248.009,1.923,1.923,0,0,1-1.041-1.288A1.316,1.316,0,0,1,50,266.91a2.037,2.037,0,0,0,1.024,1.172" transform="translate(-14.594 -73.93)" fill="#72b5e8"/>
              <path id="Trazado_217649" data-name="Trazado 217649" d="M104,242.927l-10.348-5.974a.723.723,0,0,0-.656,0L74.66,247.542a2.211,2.211,0,0,0-.221-.156.233.233,0,0,1-.039-.034.294.294,0,0,1,.041-.036L93,236.6a.723.723,0,0,1,.656,0l10.593,6.116a.267.267,0,0,1,.04.034.3.3,0,0,1-.042.036Z" transform="translate(-21.724 -69.061)" fill="#72b5e8"/>
              <path id="Trazado_217650" data-name="Trazado 217650" d="M83.126,259a10.018,10.018,0,0,0,9.053-.016l18.556-10.714a3.363,3.363,0,0,0,1.832-2.3c.011.067.008.133.013.2a3.239,3.239,0,0,1-1.844,2.449L92.179,259.337a10.02,10.02,0,0,1-9.053.016,1.547,1.547,0,0,1-.832-1.032.966.966,0,0,1,.025-.2,1.7,1.7,0,0,0,.807.876" transform="translate(-24.029 -71.82)" fill="#72b5e8"/>
              <path id="Trazado_217651" data-name="Trazado 217651" d="M67.758,254.8a4.64,4.64,0,0,0,4.2-.007,1.722,1.722,0,0,0,.82-.887,1.011,1.011,0,0,1,.025.2,1.573,1.573,0,0,1-.845,1.044,4.64,4.64,0,0,1-4.2.007,3.19,3.19,0,0,1-1.816-2.421c0-.067,0-.133.013-.2a3.31,3.31,0,0,0,1.8,2.268" transform="translate(-19.254 -73.735)" fill="#72b5e8"/>
              <path id="Trazado_217652" data-name="Trazado 217652" d="M43.925,264.6a.725.725,0,0,1,.656,0,4.64,4.64,0,0,0,4.2-.007,1.719,1.719,0,0,0,.82-.887.959.959,0,0,1,.025.2,1.57,1.57,0,0,1-.845,1.044,4.642,4.642,0,0,1-4.2.008.725.725,0,0,0-.656,0L25.612,275.522l-.245-.142a.268.268,0,0,1-.04-.034.3.3,0,0,1,.042-.036Z" transform="translate(-7.395 -76.996)" fill="#72b5e8"/>
              <path id="Trazado_217653" data-name="Trazado 217653" d="M18.685,281.217l10.593,6.117a10.018,10.018,0,0,0,9.053-.017L56.887,276.6a3.364,3.364,0,0,0,1.832-2.3c.011.067.008.133.013.2a3.238,3.238,0,0,1-1.844,2.45L38.331,287.668a10.018,10.018,0,0,1-9.053.017l-10.593-6.117a3.189,3.189,0,0,1-1.816-2.421c0-.067,0-.134.013-.2a3.308,3.308,0,0,0,1.8,2.269" transform="translate(-4.925 -80.093)" fill="#72b5e8"/>
              <g id="Grupo_146445" data-name="Grupo 146445" transform="translate(3.055 261.322)" opacity="0.2">
                <g id="Grupo_146444" data-name="Grupo 146444">
                  <g id="Grupo_146443" data-name="Grupo 146443" clip-path="url(#clip-path-15)">
                    <path id="Trazado_217654" data-name="Trazado 217654" d="M6.274,388.409c-2.6-1.5-2.614-3.937-.03-5.429l21.367-12.336a14.519,14.519,0,0,1,13.117.024c3.628,2.094,3.646,5.491.041,7.573l-19.087,11.02a1.606,1.606,0,0,1-1.453,0,.443.443,0,0,1,0-.839L39.311,377.4c2.806-1.62,2.792-4.264-.033-5.895a11.3,11.3,0,0,0-10.21-.018L7.7,383.821c-1.786,1.032-1.776,2.714.021,3.752a7.19,7.19,0,0,0,6.5.011l20.464-11.815a.9.9,0,0,0-.009-1.7,3.253,3.253,0,0,0-2.938,0l-17.049,9.844a.1.1,0,0,0,0,.193.37.37,0,0,0,.334,0l12.54-7.24a1.608,1.608,0,0,1,1.454,0,.443.443,0,0,1,0,.839l-12.54,7.239a3.584,3.584,0,0,1-3.241-.006.988.988,0,0,1-.01-1.871l17.05-9.844a6.466,6.466,0,0,1,5.843.011c1.616.933,1.624,2.447.018,3.374L15.678,388.426a10.409,10.409,0,0,1-9.4-.017" transform="translate(-4.315 -369.09)" fill="#92b4d1"/>
                  </g>
                </g>
              </g>
              <path id="Trazado_217655" data-name="Trazado 217655" d="M6.274,387.633c-2.6-1.5-2.614-3.937-.03-5.429l21.367-12.336a14.519,14.519,0,0,1,13.117.024c3.628,2.094,3.646,5.491.041,7.573l-19.087,11.02a1.606,1.606,0,0,1-1.453,0,.443.443,0,0,1,0-.839l19.088-11.02c2.806-1.62,2.792-4.264-.033-5.895a11.3,11.3,0,0,0-10.21-.018L7.7,383.045c-1.786,1.032-1.776,2.714.021,3.752a7.19,7.19,0,0,0,6.5.011l20.464-11.814a.9.9,0,0,0-.009-1.7,3.253,3.253,0,0,0-2.938,0l-17.049,9.844a.1.1,0,0,0,0,.193.371.371,0,0,0,.334,0l12.54-7.24a1.608,1.608,0,0,1,1.454,0,.443.443,0,0,1,0,.839l-12.54,7.24a3.587,3.587,0,0,1-3.241-.006.988.988,0,0,1-.01-1.871l17.05-9.843a6.466,6.466,0,0,1,5.843.01c1.616.933,1.624,2.447.018,3.374L15.678,387.65a10.406,10.406,0,0,1-9.4-.017" transform="translate(-1.26 -107.542)" fill="#fff2bf"/>
              <path id="Trazado_217656" data-name="Trazado 217656" d="M38.924,374.432a3.254,3.254,0,0,0-2.937,0l-17.049,9.844a.1.1,0,0,0,0,.191.368.368,0,0,0,.334,0l12.54-7.24a1.423,1.423,0,0,1,.479-.113l3.7-2.134a3.251,3.251,0,0,1,2.937,0,1.153,1.153,0,0,1,.52.579c.162-.393.013-.821-.52-1.129" transform="translate(-5.509 -109.225)" fill="#fff"/>
              <path id="Trazado_217657" data-name="Trazado 217657" d="M16.657,387.433a3.583,3.583,0,0,0,3.24.006l12.54-7.24c.326-.188.37-.469.164-.692a.657.657,0,0,1-.164.143L19.9,386.889a3.583,3.583,0,0,1-3.24-.006,1.254,1.254,0,0,1-.583-.666.985.985,0,0,0,.583,1.215" transform="translate(-4.677 -110.81)" fill="#fff"/>
              <path id="Trazado_217658" data-name="Trazado 217658" d="M40.134,370.441a11.3,11.3,0,0,0-10.21-.019L8.557,382.759A2.1,2.1,0,0,0,7.269,384.9a2.4,2.4,0,0,1,1.288-1.589l21.367-12.336a11.3,11.3,0,0,1,10.21.019,3.736,3.736,0,0,1,2.082,2.685c.13-1.16-.544-2.347-2.082-3.234" transform="translate(-2.115 -107.804)" fill="#fff"/>
              <path id="Trazado_217659" data-name="Trazado 217659" d="M47.21,379.02l-19.087,11.02a1.606,1.606,0,0,1-1.454,0,.7.7,0,0,1-.169-.147c-.207.224-.161.507.169.7a1.606,1.606,0,0,0,1.454,0l19.087-11.02c1.919-1.109,2.779-2.588,2.647-4.047a4.68,4.68,0,0,1-2.647,3.5" transform="translate(-7.701 -109.646)" fill="#fff"/>
              <path id="Trazado_217660" data-name="Trazado 217660" d="M37.306,376.182a2.18,2.18,0,0,1-1.153,1.4L15.69,389.4a10.412,10.412,0,0,1-9.4-.017,3.455,3.455,0,0,1-1.913-2.453c-.132,1.075.487,2.179,1.913,3a10.412,10.412,0,0,0,9.4.017l20.463-11.815a1.883,1.883,0,0,0,1.153-1.951" transform="translate(-1.271 -109.839)" fill="#fff"/>
              <g id="Grupo_146448" data-name="Grupo 146448" transform="translate(0 232.178)" opacity="0.2">
                <g id="Grupo_146447" data-name="Grupo 146447">
                  <g id="Grupo_146446" data-name="Grupo 146446" clip-path="url(#clip-path-15)">
                    <path id="Trazado_217661" data-name="Trazado 217661" d="M37.186,347.248c2.6-1.5,2.614-3.937.03-5.429L15.85,329.482a14.519,14.519,0,0,0-13.117.024C-.895,331.6-.913,335,2.692,337.079L21.779,348.1a1.606,1.606,0,0,0,1.453,0,.443.443,0,0,0,0-.839L4.149,336.237c-2.806-1.62-2.792-4.264.033-5.895a11.3,11.3,0,0,1,10.21-.018L35.758,342.66c1.786,1.032,1.776,2.714-.021,3.752a7.19,7.19,0,0,1-6.5.011L8.777,334.608a.9.9,0,0,1,.009-1.7,3.253,3.253,0,0,1,2.938,0l17.049,9.844a.1.1,0,0,1,0,.193.37.37,0,0,1-.334,0L15.9,335.7a1.608,1.608,0,0,0-1.454,0,.443.443,0,0,0,0,.839l12.54,7.24a3.587,3.587,0,0,0,3.241-.006.988.988,0,0,0,.01-1.871l-17.05-9.843a6.464,6.464,0,0,0-5.843.01c-1.616.933-1.624,2.447-.018,3.374l20.463,11.815a10.408,10.408,0,0,0,9.4-.017" transform="translate(0 -327.928)" fill="#92b4d1"/>
                  </g>
                </g>
              </g>
              <path id="Trazado_217662" data-name="Trazado 217662" d="M37.186,346.3c2.6-1.5,2.614-3.937.03-5.429L15.85,328.533a14.519,14.519,0,0,0-13.117.024c-3.628,2.094-3.646,5.491-.041,7.573l19.087,11.02a1.606,1.606,0,0,0,1.453,0,.443.443,0,0,0,0-.839L4.149,335.288c-2.806-1.62-2.792-4.264.033-5.895a11.3,11.3,0,0,1,10.21-.018l21.367,12.336c1.786,1.032,1.776,2.714-.021,3.752a7.19,7.19,0,0,1-6.5.011L8.777,333.66a.9.9,0,0,1,.009-1.7,3.253,3.253,0,0,1,2.938,0L28.772,341.8a.1.1,0,0,1,0,.193.37.37,0,0,1-.334,0l-12.54-7.24a1.608,1.608,0,0,0-1.454,0,.443.443,0,0,0,0,.839l12.54,7.24a3.587,3.587,0,0,0,3.241-.006.988.988,0,0,0,.01-1.871l-17.05-9.843a6.464,6.464,0,0,0-5.843.01c-1.616.933-1.624,2.447-.018,3.374l20.463,11.815a10.407,10.407,0,0,0,9.4-.017" transform="translate(0 -95.473)" fill="#fff2bf"/>
              <path id="Trazado_217663" data-name="Trazado 217663" d="M36.617,341.511,15.251,329.174a11.3,11.3,0,0,0-10.21.019c-1.524.879-2.2,2.054-2.087,3.2a3.72,3.72,0,0,1,2.087-2.715,11.3,11.3,0,0,1,10.21-.019L36.617,342a2.381,2.381,0,0,1,1.293,1.621,2.118,2.118,0,0,0-1.293-2.11" transform="translate(-0.859 -95.761)" fill="#fff"/>
              <path id="Trazado_217664" data-name="Trazado 217664" d="M12.17,333.672a3.253,3.253,0,0,1,2.938,0l3.875,2.238a1.357,1.357,0,0,1,.3.07l12.54,7.24a.37.37,0,0,0,.334,0c.092-.054.093-.14,0-.193l-17.049-9.844a3.255,3.255,0,0,0-2.938,0,.9.9,0,0,0-.53,1.1,1.13,1.13,0,0,1,.53-.61" transform="translate(-3.384 -97.181)" fill="#fff"/>
              <path id="Trazado_217665" data-name="Trazado 217665" d="M36.054,345.623a3.585,3.585,0,0,1-3.241.007l-12.54-7.241a.667.667,0,0,1-.2-.174c-.173.22-.111.484.2.662l12.54,7.241a3.587,3.587,0,0,0,3.241-.006.993.993,0,0,0,.593-1.184,1.23,1.23,0,0,1-.593.7" transform="translate(-5.834 -98.753)" fill="#fff"/>
              <path id="Trazado_217666" data-name="Trazado 217666" d="M23.449,348.6a.7.7,0,0,1-.2.178,1.606,1.606,0,0,1-1.453,0L2.7,337.758a4.662,4.662,0,0,1-2.651-3.529c-.118,1.449.745,2.917,2.651,4.018l19.088,11.02a1.6,1.6,0,0,0,1.453,0c.313-.181.377-.446.2-.666" transform="translate(-0.013 -97.589)" fill="#fff"/>
              <path id="Trazado_217667" data-name="Trazado 217667" d="M39.718,348.121a10.409,10.409,0,0,1-9.4.017L9.851,336.324a2.16,2.16,0,0,1-1.159-1.433,1.9,1.9,0,0,0,1.159,1.921l20.463,11.815a10.411,10.411,0,0,0,9.4-.017,3.164,3.164,0,0,0,1.919-2.971,3.439,3.439,0,0,1-1.919,2.482" transform="translate(-2.531 -97.783)" fill="#fff"/>
              <g id="Grupo_146451" data-name="Grupo 146451" transform="translate(34.724 228.475)" opacity="0.2">
                <g id="Grupo_146450" data-name="Grupo 146450">
                  <g id="Grupo_146449" data-name="Grupo 146449" clip-path="url(#clip-path-17)">
                    <path id="Trazado_217668" data-name="Trazado 217668" d="M69.534,345.9c-3.384.523-7.242-.512-8.6-2.307L49.708,328.751c-1.894-2.5.4-5.135,5.125-5.865s10.1.714,12,3.219l10.029,13.261c.21.278-.044.569-.568.649a1.538,1.538,0,0,1-1.329-.356L64.933,326.4c-1.475-1.949-5.663-3.073-9.338-2.5s-5.464,2.616-3.99,4.565L62.831,343.3c.938,1.24,3.6,1.956,5.942,1.594s3.478-1.665,2.539-2.906L60.561,327.775a3.113,3.113,0,0,0-2.686-.721c-1.057.163-1.572.752-1.148,1.313l8.958,11.844a.352.352,0,0,0,.305.081c.12-.018.179-.085.131-.149l-6.589-8.712c-.21-.278.044-.569.568-.65a1.54,1.54,0,0,1,1.329.357l6.588,8.712c.468.618-.1,1.268-1.266,1.449a3.432,3.432,0,0,1-2.963-.8l-8.957-11.844c-.844-1.116.18-2.288,2.283-2.613s4.5.319,5.344,1.434L73.209,341.7c1.358,1.8-.291,3.682-3.675,4.2" transform="translate(-49.044 -322.697)" fill="#92b4d1"/>
                  </g>
                </g>
              </g>
              <path id="Trazado_217669" data-name="Trazado 217669" d="M69.534,344.954c-3.384.523-7.242-.512-8.6-2.307L49.708,327.8c-1.894-2.5.4-5.135,5.125-5.865s10.1.714,12,3.219l10.029,13.261c.21.278-.044.569-.568.649a1.537,1.537,0,0,1-1.329-.356l-10.028-13.26c-1.475-1.95-5.663-3.074-9.338-2.506s-5.464,2.616-3.99,4.565l11.226,14.844c.938,1.24,3.6,1.956,5.942,1.594s3.478-1.665,2.539-2.906L60.561,326.826a3.113,3.113,0,0,0-2.686-.721c-1.057.163-1.572.752-1.148,1.313l8.958,11.844a.352.352,0,0,0,.305.081c.12-.018.179-.085.131-.149l-6.589-8.712c-.21-.278.044-.569.568-.649a1.537,1.537,0,0,1,1.329.356l6.588,8.712c.468.618-.1,1.268-1.266,1.449a3.432,3.432,0,0,1-2.963-.8l-8.957-11.844c-.844-1.116.18-2.288,2.283-2.613s4.5.319,5.344,1.434l10.751,14.216c1.358,1.8-.291,3.682-3.675,4.2" transform="translate(-14.32 -93.945)" fill="#fff2bf"/>
              <path id="Trazado_217670" data-name="Trazado 217670" d="M63.936,333.425c-.175.129-.236.3-.108.468l6.2,8.194a.371.371,0,0,0,.261.057c.12-.019.179-.086.131-.149Z" transform="translate(-18.617 -97.355)" fill="#fff"/>
              <path id="Trazado_217671" data-name="Trazado 217671" d="M74.429,341.959,63.678,327.743a3.115,3.115,0,0,0-2.686-.721c-1,.156-1.492.7-1.177,1.23a1.621,1.621,0,0,1,1.177-.619,3.113,3.113,0,0,1,2.686.721L74.429,342.57a1.566,1.566,0,0,1,.271.562,1.332,1.332,0,0,0-.271-1.172" transform="translate(-17.437 -95.473)" fill="#fff"/>
              <path id="Trazado_217672" data-name="Trazado 217672" d="M77.607,338.455a1.01,1.01,0,0,1-.46.182,1.538,1.538,0,0,1-1.329-.357L65.79,325.02c-1.475-1.949-5.664-3.074-9.338-2.506-2.988.462-4.693,1.9-4.448,3.475.231-1.321,1.855-2.464,4.448-2.865,3.674-.567,7.863.556,9.338,2.506l10.028,13.261a1.537,1.537,0,0,0,1.329.356c.523-.081.778-.372.568-.65Z" transform="translate(-15.177 -94.126)" fill="#fff"/>
              <path id="Trazado_217673" data-name="Trazado 217673" d="M57.1,329.727l8.958,11.844a3.429,3.429,0,0,0,2.962.794c1.087-.168,1.617-.744,1.312-1.322a1.737,1.737,0,0,1-1.312.712,3.429,3.429,0,0,1-2.962-.8L57.1,329.116a1.5,1.5,0,0,1-.238-.469,1.2,1.2,0,0,0,.238,1.08" transform="translate(-16.59 -95.96)" fill="#fff"/>
              <path id="Trazado_217674" data-name="Trazado 217674" d="M69.547,345.968c-3.384.523-7.242-.513-8.6-2.307L49.721,328.817a2.982,2.982,0,0,1-.6-1.507,2.768,2.768,0,0,0,.6,2.117l11.226,14.844c1.359,1.8,5.217,2.83,8.6,2.307,2.77-.428,4.344-1.771,4.092-3.229-.225,1.209-1.716,2.251-4.092,2.618" transform="translate(-14.333 -95.569)" fill="#fff"/>
              <path id="Trazado_217675" data-name="Trazado 217675" d="M343.762,85.346v.6l-1.987-.866V84.42c0-1.436-.35-2.3-1.071-2.723-.6-.354-1.032-.1-1.032,1.1v.449c0,1.167.389,2.353,1.734,5.027,1.831,3.678,2.455,5.75,2.455,8.173v1.017c0,3.082-1.267,3.956-3.156,2.847-1.909-1.119-3.195-3.58-3.195-6.662V92.271l1.987.867v1.437a3,3,0,0,0,1.168,2.78c.624.366,1.13.154,1.13-1.342v-.658c0-1.316-.389-2.5-1.734-5.177-1.831-3.677-2.454-5.749-2.454-8.023v-.508c0-3.083,1.168-4.013,3.078-2.893s3.078,3.511,3.078,6.594" transform="translate(-98.547 -22.861)" fill="#0d2380"/>
              <path id="Trazado_217676" data-name="Trazado 217676" d="M350.413,87.235V93.16l3.02,1.771v2.933l-3.02-1.771v6.225l3.74,2.194v2.933l-5.806-3.406V83.091l5.806,3.406v2.933Z" transform="translate(-101.712 -24.261)" fill="#0d2380"/>
              <path id="Trazado_217677" data-name="Trazado 217677" d="M365.187,98.161V99.6L363.2,98.582V97.324c0-1.675-.409-2.664-1.208-3.132s-1.207.04-1.207,1.417V107.04a3.034,3.034,0,0,0,1.188,2.821c.8.469,1.188-.051,1.188-1.727v-3.591l-1.169-.686v-2.933l3.2,1.874v6.853c0,3.173-1.189,4.331-3.253,3.12-2.046-1.2-3.214-3.741-3.214-6.913V94.367c0-3.172,1.169-4.342,3.214-3.141,2.065,1.211,3.253,3.764,3.253,6.936" transform="translate(-104.74 -26.501)" fill="#0d2380"/>
              <path id="Trazado_217678" data-name="Trazado 217678" d="M376.828,116.048c0,3.292-1.227,4.278-3.214,3.112-1.948-1.143-3.175-3.568-3.175-6.86V96.05l1.987,1.165v16.16c0,1.526.448,2.358,1.169,2.78s1.169.118,1.169-1.409V98.587l2.065,1.211Z" transform="translate(-108.162 -28.045)" fill="#0d2380"/>
              <path id="Trazado_217679" data-name="Trazado 217679" d="M385.178,116.786l-.954-.56v8.857l-2.065-1.211V102.924l2.981,1.749c2.221,1.3,3.429,3.866,3.429,7.308v1.5c0,2.215-.507,3.474-1.461,3.752L389,127.884l-2.182-1.28Zm-.954-3.493.838.491c.993.583,1.442.038,1.442-1.728v-1.078c0-1.765-.448-2.836-1.442-3.42l-.838-.491Z" transform="translate(-111.584 -30.052)" fill="#0d2380"/>
              <path id="Trazado_217680" data-name="Trazado 217680" d="M393.933,130.78V109.832L396,111.043v20.948Z" transform="translate(-115.022 -32.069)" fill="#0d2380"/>
              <path id="Trazado_217681" data-name="Trazado 217681" d="M402.946,115.119c2.22,1.3,3.428,3.866,3.428,7.308v10.354c0,3.442-1.208,4.589-3.428,3.286l-2.962-1.737V113.382Zm-.9,17.489.818.48c.994.583,1.442.038,1.442-1.728v-9.935c0-1.766-.448-2.837-1.442-3.42l-.818-.48Z" transform="translate(-116.789 -33.106)" fill="#0d2380"/>
              <path id="Trazado_217682" data-name="Trazado 217682" d="M415.9,144.237l-.448-5.021-2.279-1.337-.448,4.5-2.065-1.211,2.357-19.565,2.63,1.543L418,145.471Zm-2.455-9.071,1.734,1.017-.838-9.319-.059-.035Z" transform="translate(-119.906 -35.504)" fill="#0d2380"/>
              <path id="Trazado_217683" data-name="Trazado 217683" d="M426.083,128.691c2.22,1.3,3.428,3.866,3.428,7.308v10.354c0,3.442-1.208,4.589-3.428,3.286l-2.962-1.737V126.954Zm-.9,17.489.818.48c.994.583,1.442.038,1.442-1.728V135c0-1.766-.448-2.837-1.442-3.42l-.818-.48Z" transform="translate(-123.544 -37.069)" fill="#0d2380"/>
              <path id="Trazado_217684" data-name="Trazado 217684" d="M443.167,138.713c2.22,1.3,3.428,3.866,3.428,7.308v10.354c0,3.442-1.208,4.589-3.428,3.286l-2.962-1.737V136.976Zm-.9,17.489.818.48c.994.583,1.442.038,1.442-1.728V145.02c0-1.766-.448-2.837-1.442-3.42l-.818-.48Z" transform="translate(-128.533 -39.995)" fill="#0d2380"/>
              <path id="Trazado_217685" data-name="Trazado 217685" d="M452.063,164.88V143.932l2.065,1.211v20.948Z" transform="translate(-131.995 -42.026)" fill="#0d2380"/>
              <path id="Trazado_217686" data-name="Trazado 217686" d="M464.28,156.291v1.437l-1.987-1.016v-1.257c0-1.675-.409-2.664-1.207-3.132s-1.208.04-1.208,1.417V165.17a3.033,3.033,0,0,0,1.188,2.821c.8.469,1.188-.051,1.188-1.727v-3.591l-1.168-.686v-2.933l3.195,1.874v6.853c0,3.173-1.189,4.331-3.253,3.12-2.045-1.2-3.214-3.741-3.214-6.913V152.5c0-3.172,1.169-4.342,3.214-3.141,2.065,1.211,3.253,3.764,3.253,6.936" transform="translate(-133.674 -43.475)" fill="#0d2380"/>
              <path id="Trazado_217687" data-name="Trazado 217687" d="M469.7,175.225V154.276l2.065,1.211v20.948Z" transform="translate(-137.144 -45.046)" fill="#0d2380"/>
              <path id="Trazado_217688" data-name="Trazado 217688" d="M478.722,162.563v17.955l-2.065-1.211V161.352l-2.2-1.291v-2.992l6.467,3.794v2.993Z" transform="translate(-138.534 -45.861)" fill="#0d2380"/>
              <path id="Trazado_217689" data-name="Trazado 217689" d="M488.665,186.922l-.448-5.021-2.279-1.337-.448,4.5-2.065-1.211,2.357-19.565,2.63,1.542,2.357,22.331Zm-2.455-9.07,1.734,1.017-.838-9.32-.059-.034Z" transform="translate(-141.152 -47.968)" fill="#0d2380"/>
              <path id="Trazado_217690" data-name="Trazado 217690" d="M501.4,190.829v2.993l-5.513-3.234V169.64l2.065,1.211v17.955Z" transform="translate(-144.791 -49.532)" fill="#0d2380"/>
            </g>
          </g>
        </g>
      </g>
    </g>
  </g>
</svg>
