<svg xmlns="http://www.w3.org/2000/svg" xmlns:xlink="http://www.w3.org/1999/xlink" width="258" height="235" viewBox="0 0 258 235">
  <defs>
    <clipPath id="clip-path">
      <rect id="Rectángulo_99310" data-name="Rectángulo 99310" width="258" height="235" fill="none"/>
    </clipPath>
    <clipPath id="clip-path-3">
      <rect id="Rectángulo_99306" data-name="Rectángulo 99306" width="159.588" height="92.183" transform="translate(66.456 127.773)" fill="none"/>
    </clipPath>
    <clipPath id="clip-path-4">
      <path id="Trazado_231938" data-name="Trazado 231938" d="M41.713,98.394s46.623,60.347,57.348,62.776q4.191,2.555,6.667,4.065l11.8-7.081c4.287,1.351,40.377,22.822,42.465,21.041.009-.009,1.579.743,3.576,1.494,2.68,1.009,6.131,2.018,7.618,1.189,3.264-.506,6.654-2.028,6.168-2.552,0,0,16.568-36.985,17.867-45.333,2.382-15.3,0-49.189-6.466-56.506L104.013,46.859s-57.052,48.509-62.3,51.535" fill="none"/>
    </clipPath>
    <clipPath id="clip-path-6">
      <path id="Trazado_232015" data-name="Trazado 232015" d="M108.881,87.315c-5.215-3.027-14.853,22.985-20.1,26.012L60.738,129.518a7.657,7.657,0,0,0-3.725,4.106,5.6,5.6,0,0,0,.449,1.009c.041.062.076.126.116.192a6.413,6.413,0,0,0,.7.943l.008.008a7.872,7.872,0,0,0,.941.887c.08.068.165.132.256.2a10.864,10.864,0,0,0,1.195.806l23.776,14.475L29.077,191.535l32.671,29.693,36.583,1.532,15.021-53.02a105.115,105.115,0,0,0,21.182,9.177l57,15.8c4.287,1.351,13.43,1.192,15.519-.589.01-.008,1.579.744,3.577,1.495,2.68,1.009,6.13,2.018,7.617,1.188,3.264-.505,6.654-2.028,6.169-2.551,0,0,16.567-36.986,17.866-45.333,2.382-15.3,14.718-77.651,8.252-84.968l-69-20.883Z" fill="none"/>
    </clipPath>
    <clipPath id="clip-path-7">
      <rect id="Rectángulo_99309" data-name="Rectángulo 99309" width="1.168" height="1.488" transform="translate(228.217 94.5)" fill="none"/>
    </clipPath>
  </defs>
  <g id="Grupo_175424" data-name="Grupo 175424" transform="translate(-307 -6428)">
    <g id="Grupo_171070" data-name="Grupo 171070" transform="translate(307 6428)">
      <g id="Grupo_171084" data-name="Grupo 171084" clip-path="url(#clip-path)">
        <g id="Grupo_171074" data-name="Grupo 171074">
          <g id="Grupo_171073" data-name="Grupo 171073" clip-path="url(#clip-path)">
            <path id="Trazado_231889" data-name="Trazado 231889" d="M207.452,50.2a7.606,7.606,0,1,1-7.607-7.607,7.607,7.607,0,0,1,7.607,7.607" fill="#ceefec"/>
            <path id="Trazado_231890" data-name="Trazado 231890" d="M227.025,49.867c3.091-8.44-2.4-14.036-5.3-14.773a5.96,5.96,0,0,0-6.526-6.438,13.467,13.467,0,0,0-26.291-1.816c-6.012.231-10.377,4.192-10.262,10.26.129,6.836,5.3,9.578,9.889,12.027,9.252,4.934,25.351,13,29.335,14.746.122.036.241.066.356.091a9.666,9.666,0,0,0,4.374,1.03c4.949,0,8.961-3.623,8.961-8.091a7.991,7.991,0,0,0-4.539-7.036" fill="#98d8d3"/>
            <path id="Trazado_231891" data-name="Trazado 231891" d="M227.025,49.867c3.091-8.44-2.4-14.036-5.3-14.773a5.96,5.96,0,0,0-6.526-6.438,13.467,13.467,0,0,0-26.291-1.816c-6.012.231-10.377,4.192-10.262,10.26.129,6.836,5.3,9.578,9.889,12.027,9.252,4.934,25.351,13,29.335,14.746.122.036.241.066.356.091a9.666,9.666,0,0,0,4.374,1.03c4.949,0,8.961-3.623,8.961-8.091a7.991,7.991,0,0,0-4.539-7.036" fill="#a6e6ed"/>
            <path id="Trazado_231892" data-name="Trazado 231892" d="M222.844,55.092c-.26-3.292-2.892-4.773-3.138-4.609-4.386,2.922-7.319,1.5-8.964.659,11.678-.741,9.21-14.063,3.382-15.383a5.283,5.283,0,0,0-5.784-5.707c-.807-5.809-5.8-10.672-11.823-10.283-4.56.3-6.867,4.467-7.606,7.071a10.58,10.58,0,0,0-6.116,1.914,9.511,9.511,0,0,0-4.147,8.346c.13,6.835,5.3,9.578,9.89,12.026,2.673,1.426,5.917,3.114,9.276,4.834,6.048,3.1,12.467,6.306,16.585,8.289q.249.015.5.015c4.388,0,8.256-3.223,7.944-7.172" fill="#ceefec"/>
            <path id="Trazado_231893" data-name="Trazado 231893" d="M190.923,30.253a6.993,6.993,0,0,1,7.155-5.51,11.812,11.812,0,0,1,4.829,1.6,6.807,6.807,0,0,0-6.07-3.722c-3.115,0-6.737,2.455-6.572,6.4-3.04.116-5.509,1.158-5.451,4.226a4.882,4.882,0,0,0,.315,1.662c.613-3.339,3.257-4.557,5.794-4.655" fill="#f5f5f5"/>
            <path id="Trazado_231894" data-name="Trazado 231894" d="M204.357,33.306a5.337,5.337,0,0,1,4.056.183,4.8,4.8,0,1,0-7.473,6.022,5.352,5.352,0,0,1,3.417-6.205" fill="#f5f5f5"/>
            <path id="Trazado_231895" data-name="Trazado 231895" d="M183.316,45.8c-3.826-2.6-4.749-8.326-4.667-8.7-.308,3.6,1.283,9.833,6.024,12.85,5.427,3.454,11.554,2.056,15.66-2.205a11.9,11.9,0,0,0,2.349-3.757c-4.358,5.427-13.486,5.8-19.366,1.809" fill="#a6e6ed"/>
            <path id="Trazado_231896" data-name="Trazado 231896" d="M197.879,56.174a8.588,8.588,0,0,1-5.172-3.37,7.6,7.6,0,0,0,14.561-.958,8.635,8.635,0,0,1-9.389,4.328" fill="#a6e6ed"/>
            <path id="Trazado_231897" data-name="Trazado 231897" d="M37.414,30.424a5.852,5.852,0,1,1-5.852-5.852,5.851,5.851,0,0,1,5.852,5.852" fill="#b3e5e3"/>
            <path id="Trazado_231898" data-name="Trazado 231898" d="M45.932,43.641c6.883,3.441,11.829.572,11.784-4.172-.039-4.138-2.006-6.905-5.314-9.177-.161-4.441-1.107-7.789-4.82-10.41-3.992-2.818-9.9-.518-10.9,2.637a4.02,4.02,0,0,0-3.747.022,3.411,3.411,0,0,0-1.512,2.554,4.187,4.187,0,0,0-4.974,3.135c-.657,2.933,2.367,6.643,5.286,8.124Z" fill="#a6e6ed"/>
            <path id="Trazado_231899" data-name="Trazado 231899" d="M48.092,31.31c1.092-2.912-.583-8.516-3.785-10.263-3.145-1.715-7.026-.414-7.629,1.472a4.017,4.017,0,0,0-3.747.022,3.411,3.411,0,0,0-1.512,2.554,4.188,4.188,0,0,0-4.975,3.135c-.656,2.933,2.368,6.643,5.287,8.124l14.2,7.287c.19.1.38.183.566.269,4.006.186,6.564-2.257,6.531-5.674a7.38,7.38,0,0,0-4.937-6.926" fill="#ceefec"/>
            <path id="Trazado_231900" data-name="Trazado 231900" d="M38.12,25.56a5.086,5.086,0,0,1,3.058,2.377,4.577,4.577,0,1,0-9.136.572A5.105,5.105,0,0,1,38.12,25.56" fill="#f5f5f5"/>
            <path id="Trazado_231901" data-name="Trazado 231901" d="M43.685,29.551a4.236,4.236,0,0,1,2.008,2.112,3.509,3.509,0,0,0-2.031-3.331,3.293,3.293,0,0,0-4.5,1.1,2.607,2.607,0,0,0-.278.987,3.759,3.759,0,0,1,4.8-.867" fill="#f5f5f5"/>
            <path id="Trazado_231902" data-name="Trazado 231902" d="M39.81,39.981a4.672,4.672,0,0,1-2.227-2.323,4.558,4.558,0,0,0,2.357,3.915,5.2,5.2,0,0,0,5.532-.437,3.176,3.176,0,0,0,1.237-2.4,5.94,5.94,0,0,1-6.9,1.247" fill="#a6e6ed"/>
            <path id="Trazado_231903" data-name="Trazado 231903" d="M30.049,35.022a6.607,6.607,0,0,1-3.978-2.592,5.846,5.846,0,0,0,11.2-.737,6.642,6.642,0,0,1-7.222,3.329" fill="#a6e6ed"/>
            <path id="Trazado_231904" data-name="Trazado 231904" d="M45.486,43.2A4.367,4.367,0,0,1,43.4,41.025a4.262,4.262,0,0,0,2.207,3.665,4.867,4.867,0,0,0,5.179-.409,2.97,2.97,0,0,0,1.159-2.249A5.565,5.565,0,0,1,45.486,43.2" fill="#a6e6ed"/>
            <path id="Trazado_231905" data-name="Trazado 231905" d="M6.333,206.269a39.4,39.4,0,0,0,16.124,10.244c9.741,3.023,35.27,6.886,43.331,17.131a44.074,44.074,0,0,0-12.763-5.877c-7.391-2.016-40.31-7.054-46.692-21.5" fill="#35eded"/>
            <path id="Trazado_231906" data-name="Trazado 231906" d="M98.352,197.6a39.4,39.4,0,0,0,16.124,10.244c9.74,3.023,35.27,6.886,43.331,17.131a44.072,44.072,0,0,0-12.764-5.877c-7.391-2.016-40.309-7.054-46.691-21.5" fill="#35eded"/>
            <path id="Trazado_231907" data-name="Trazado 231907" d="M188.306,131.356A39.4,39.4,0,0,0,204.43,141.6c9.741,3.023,35.27,6.886,43.331,17.131A44.058,44.058,0,0,0,235,152.854c-7.391-2.016-40.31-7.054-46.692-21.5" fill="#35eded"/>
            <g id="Grupo_171072" data-name="Grupo 171072" opacity="0.13">
              <g id="Grupo_171071" data-name="Grupo 171071">
                <g id="Grupo_171070-2" data-name="Grupo 171070" clip-path="url(#clip-path-3)">
                  <path id="Trazado_231908" data-name="Trazado 231908" d="M70.8,148.1c-5.771,3.33-5.8,8.734-.067,12.064l55.738,33.967a115.009,115.009,0,0,0,23.312,10.1l57.577,15.316c9.826,1.953,14.843-3.53,17.145-6.4,3.127-3.13.917-12.626-1.664-15.392L199.19,172.006c-4.634-4.973-40.241-31.518-47.128-35.523l-29.552-6.21c-5.737-3.334-15.064-3.334-20.836,0Z" fill="#060606"/>
                </g>
              </g>
            </g>
            <path id="Trazado_231909" data-name="Trazado 231909" d="M56.851,126.077c-5.772,3.33-5.8,8.732-.067,12.064l55.733,33.967a115.142,115.142,0,0,0,23.316,10.1L193.4,197.525c9.828,1.953,18.7,3.793,21.3,1.737,1.3-1.841-1.9-8.676-4.482-11.442l-27.848-32.993A75.611,75.611,0,0,0,165,141.29L108.55,108.252c-5.73-3.335-15.063-3.335-20.834,0Z" fill="#ff5543"/>
            <path id="Trazado_231910" data-name="Trazado 231910" d="M56.3,137.835c.138.1.3.2.482.307l55.732,33.967a115.165,115.165,0,0,0,23.316,10.1L193.4,197.526a19.21,19.21,0,0,0,3.881.768c7.435,1.454,13.828,2.522,16.646,1.388l-7.67,6.293c-4.764,4.117-6.441,6.5-19.109,4.329,0,0-39.788-6.982-61.874-16.242-27.224-11.408-59.343-34.741-59.343-34.741a22.33,22.33,0,0,1-4.284-5.991l-9-19.707a.783.783,0,0,0,.1.051,8.046,8.046,0,0,0,3.555,4.161" fill="#f2f2f2"/>
            <path id="Trazado_231911" data-name="Trazado 231911" d="M189.943,204.453a19.122,19.122,0,0,0,3.876.77,105.382,105.382,0,0,0,11.269,1.772c-3.959,3.464-6.365,5.288-17.935,3.308,0,0-39.788-6.982-61.875-16.242-27.223-11.408-59.342-34.74-59.342-34.74a22.314,22.314,0,0,1-4.284-5.992l-2.014-4.4,49.413,30.111a115.063,115.063,0,0,0,23.318,10.1Z" fill="#ff5543"/>
            <path id="Trazado_231912" data-name="Trazado 231912" d="M60.739,126.707c-5.246,3.028-5.278,7.938-.063,10.963l52.677,32.07a105.048,105.048,0,0,0,21.181,9.176l57,15.8c4.337,1.367,13.644,1.188,15.589-.652,1.736-1.3,2.038-5.656-.31-8.17l-29.139-31.888c-4.207-4.515-10.375-8.63-16.633-12.262l-53.327-31.229c-5.215-3.027-13.688-3.027-18.935,0Z" fill="#e0382b"/>
            <path id="Trazado_231913" data-name="Trazado 231913" d="M59.225,136.663a7.8,7.8,0,0,1-.941-.887s-.009-.005-.009-.009a6.363,6.363,0,0,1-.7-.942c-.04-.066-.075-.13-.116-.193a5.558,5.558,0,0,1-.449-1.008,7.649,7.649,0,0,1,3.726-4.106L88.78,113.327c5.247-3.027,13.72-3.027,18.936,0l53.327,31.225c6.258,3.641,12.425,7.75,16.633,12.269l29.139,31.885a20.558,20.558,0,0,1,1.653,2.118,4.334,4.334,0,0,1-1.344,3.24c-1.945,1.84-11.252,2.019-15.588.652l-57-15.8a105.048,105.048,0,0,1-21.181-9.176L60.676,137.67a11.057,11.057,0,0,1-1.195-.807c-.091-.069-.176-.133-.256-.2" fill="#c1bcbc"/>
            <path id="Trazado_231914" data-name="Trazado 231914" d="M150.772,164.013,106.941,138.35c-4.283-2.488-11.25-2.488-15.562,0L76.1,147.175l36.285,22.112a115.28,115.28,0,0,0,23.315,10.1l44.368,12.145L164.442,174.1c-3.462-3.714-8.529-7.091-13.67-10.084" fill="#838484"/>
            <path id="Trazado_231915" data-name="Trazado 231915" d="M126.834,124.544l0,1.352L83.7,151.808l-1.114-.682Z" fill="#d1d1d1"/>
            <path id="Trazado_231916" data-name="Trazado 231916" d="M115.263,117.736l11.571,6.808L82.582,151.126l-11.293-7Z" fill="#eaeaea"/>
            <path id="Trazado_231917" data-name="Trazado 231917" d="M162.275,145.043l0,1.354L118.616,172.62l-1.222-.615Z" fill="#d1d1d1"/>
            <path id="Trazado_231918" data-name="Trazado 231918" d="M150.705,138.235l11.57,6.808-44.881,26.962s-3.367-1.762-4.483-2.412c-1.8-1.044-7.183-4.359-7.183-4.359Z" fill="#eaeaea"/>
          </g>
        </g>
        <g id="Grupo_171076" data-name="Grupo 171076">
          <g id="Grupo_171075" data-name="Grupo 171075" clip-path="url(#clip-path-4)">
            <path id="Trazado_231919" data-name="Trazado 231919" d="M116.74,161.011s.722,2.441,1.492,3c1.6,1.159,6.384,3.735,6.822,4.005a1.245,1.245,0,0,1,.6,1.242.92.92,0,0,1-.277.542,4.245,4.245,0,0,1-2.763.71c-2.731.093-10.03-3.159-10.231-3.4,0,0-.747-.328-1.016.018a3.411,3.411,0,0,0-.184.674l-2.567-1.48a7.254,7.254,0,0,1-.083-2.071l.893-3.773Z" fill="#231f20"/>
            <path id="Trazado_231920" data-name="Trazado 231920" d="M125.451,169.485a4.272,4.272,0,0,1-2.879.793c-3.273-.015-10.25-3.316-10.25-3.316-.612-.212-.918-.045-1.039.318l-.1.526c.03,0,1-.4.985-.4s6.536,3.191,9.7,3.491a5.062,5.062,0,0,0,3.521-.933,1.027,1.027,0,0,0,.267-.793,3.2,3.2,0,0,1-.2.315" fill="#282827"/>
            <path id="Trazado_231921" data-name="Trazado 231921" d="M108.037,167.73s.968,2.354,1.791,2.83c1.713.989,6.734,3.062,7.2,3.286a1.244,1.244,0,0,1,.72,1.173.915.915,0,0,1-.219.567,4.248,4.248,0,0,1-2.676.991c-2.708.371-10.3-2.115-10.525-2.33,0,0-.776-.249-1.009.121a3.385,3.385,0,0,0-.114.691l-2.7-1.209a7.31,7.31,0,0,1-.3-2.053l.5-3.843Z" fill="#231f20"/>
            <path id="Trazado_231922" data-name="Trazado 231922" d="M117.57,175.267a4.271,4.271,0,0,1-2.783,1.084c-3.257.32-10.535-2.249-10.535-2.249-.63-.148-.918.049-1,.423l-.051.534c.03-.005.954-.5.939-.5s6.828,2.5,10,2.48a5.07,5.07,0,0,0,3.408-1.289,1.032,1.032,0,0,0,.184-.816,3.436,3.436,0,0,1-.165.333" fill="#282827"/>
            <path id="Trazado_231923" data-name="Trazado 231923" d="M119.944,96.33c.252,1.826-5.871,18.192-10.976,19.251-4.041.718-12.489-13.147-12.489-13.147a18.8,18.8,0,0,1-3.112-8.867c-.121-3.439,4.479-2.4,7.109-.426,1.738,1.309,6.366,12.741,7.706,13.124,1.487-1.787,5.234-9.278,5.742-10.714.6-1.686,3.135,2.384,6.02.779" fill="#dfe7ea"/>
            <path id="Trazado_231924" data-name="Trazado 231924" d="M114.109,95.414s-.251-.8.146-1.05,1.323-.694,3.5-.181a5.253,5.253,0,0,1,1.654.793c.276.2.842.755.7,1.142-.1.283-.342.552-1.1.8a5.258,5.258,0,0,1-3.967-.427c-.345-.339-.937-1.081-.937-1.081" fill="#b6c1c6"/>
            <path id="Trazado_231925" data-name="Trazado 231925" d="M118.739,97.173l.7-3.3-3.928.272-.816,2.917Z" fill="#e8c5ac"/>
            <path id="Trazado_231926" data-name="Trazado 231926" d="M114.038,94.849s-.009,1.348,2.487,1.866a5.628,5.628,0,0,0,2.95-.027,1,1,0,0,0,.653-.643l-.2,1.087s-.655.85-2.589.7c-2.866-.215-3.514-1.968-3.514-1.968Z" fill="#dfe7ea"/>
            <path id="Trazado_231927" data-name="Trazado 231927" d="M100.666,123.621S118.432,135.42,119.05,137s-1.733,23.09-1.733,23.09a3.435,3.435,0,0,0,.954,2.165c-.459,2.581-8.845,3.334-9.681,1.379,0,0,2.1-20.17,1.611-21.295s-22.768-12.609-22.768-12.609Z" fill="#1b2935"/>
            <path id="Trazado_231928" data-name="Trazado 231928" d="M95.4,126.6a27.217,27.217,0,0,0,2.015,5.412c1.1,1.856,8.829,11.576,9.455,13.28s2.094,24.553,2.094,24.553c-.117.9-.573,1.174-1.377,1.376-4.637,1.174-6.524-.459-6.524-.459a1.589,1.589,0,0,1-.867-1.58s-1.765-18.759-2.4-20.105-13.591-13.013-14.293-14.162-1.322-7.253-1.322-7.253Z" fill="#2d3e50"/>
            <path id="Trazado_231929" data-name="Trazado 231929" d="M75.426,95.609a13.991,13.991,0,0,1,6.686-3.191c1.921-.4,12.35-1.859,14.378-1.07s7.267,2.429,6.972,9.832c-.237,5.95-1.335,4.336-2.557,22.186-.154,2.25-3.2,5.639-8.463,5.467-4.336-.141-10.33-1.019-10.33-1.019s-.462-.232-.287-1.69c.457-3.759-2.785-15.365-3.351-18.608a111.076,111.076,0,0,0-3.048-11.907" fill="#ebf0f2"/>
            <path id="Trazado_231930" data-name="Trazado 231930" d="M87.456,80.187a1.636,1.636,0,0,1,1.553,1.544l-.217,2.987s-.118.643-.689.718c-.854.11-1.168-.655-1.488-1.494-.02-.047-.416-1.283-.438-1.358-.342-1.047-.129-2.5,1.279-2.4" fill="#ffe8d9"/>
            <path id="Trazado_231931" data-name="Trazado 231931" d="M93.648,99.364a1.777,1.777,0,0,1-.158-.829l.025-1.061L91.7,95.488l-.688.255.024,2.586.878.773c.262.169.341,1.069.38,1.368,0,0,2.012,15.229,1.215,21.609-.048.385,2.621,5.642,2.621,5.642s2.642-4.385,2.563-5.642C98,111.2,93.648,99.364,93.648,99.364" fill="#1672b7"/>
            <path id="Trazado_231932" data-name="Trazado 231932" d="M91.52,96.621c-2.511,3.217-4.636-1.358-6.784-3.332l-.291-9.18,7.6,1.345.176,4.735Z" fill="#e8c5ac"/>
            <path id="Trazado_231933" data-name="Trazado 231933" d="M91.588,95.16a1.061,1.061,0,0,0,.294,1.059l1.671,1.693c.528.5.623-.173.54-.776l-.72-4.364c-.7-2.692-1.168-2.591-1.168-2.591s-.046.328-.079,1.072c-.04.951-.436,3.293-.538,3.907" fill="#fff"/>
            <path id="Trazado_231934" data-name="Trazado 231934" d="M84.627,90.181a5.173,5.173,0,0,0,.461,1.528c1.652,2.371,5.643,3.54,5.643,3.54a1,1,0,0,1,.957,1.041l-.1,3.061c.043.758-.356.741-.7.482,0,0-3.389-2.1-4.364-2.827-2.291-1.72-2.271-3.169-2.2-5.87.017-.759.3-.955.3-.955" fill="#fff"/>
            <path id="Trazado_231935" data-name="Trazado 231935" d="M91.679,75.866v0l-5.758-.178L85.467,86.07a4.083,4.083,0,0,0,.662,2.38,6.4,6.4,0,0,0,1.694,1.383s3.626,1.939,5.78,1.251c.889-.282,1.244-1.332,1.538-1.979a20.774,20.774,0,0,0,.959-3.579l.961-4.939.406-3.965Z" fill="#e8c5ac"/>
            <path id="Trazado_231936" data-name="Trazado 231936" d="M97.376,74.758c.874,1.35.4,2.549.007,4.486-.144.714-.368,1.246-.338,1.275s.044-.928.134-1.742c.223-2.014-1-1.895-1.844-1.825-.026,0-3.758.275-3.776.3-.057.073.619-1.254.372-1.147a3.872,3.872,0,0,0-2.126,1.723,10.86,10.86,0,0,0-1.224,4.438l-.033.906c-.015.472,0,.826-.114.816a1.412,1.412,0,0,1-1.011-1.021,1.732,1.732,0,0,0-1.762-1.123c-1.115.119-.377,2.734-.315,2.868l-.128.737c-.124.51-.771,1.836-.988,1.189-.366-1.1-1.195-3.5-1.459-4.163-2.863-7.333,2.99-13.772,10.248-10.549a20.256,20.256,0,0,1,4.357,2.833" fill="#754c29"/>
            <path id="Trazado_231937" data-name="Trazado 231937" d="M85.778,81.468a1.638,1.638,0,0,1,1.608,1.489l.376,2.353s-.2.841-.769.936c-.855.142-.957.058-1.6-.574a6.842,6.842,0,0,1-.911-1.453c-.37-1.036-.119-2.8,1.292-2.751" fill="#e8c5ac"/>
          </g>
        </g>
        <g id="Grupo_171078" data-name="Grupo 171078">
          <g id="Grupo_171077" data-name="Grupo 171077" clip-path="url(#clip-path)">
            <path id="Trazado_231939" data-name="Trazado 231939" d="M114.875,91.382a.455.455,0,0,1-.078.167c.16-.77-.072-1.771.672-2.241A18.533,18.533,0,0,0,117.14,88.2c.984-.773,1.239,1.429.912,2.019a2.869,2.869,0,0,1-2.624,1.419Z" fill="#e8c5ac"/>
            <path id="Trazado_231940" data-name="Trazado 231940" d="M139.144,68.245a5.458,5.458,0,0,0,6.611,8.672l21.38-14.845a6.613,6.613,0,1,0-8.009-10.51Z" fill="#8e633c"/>
            <path id="Trazado_231941" data-name="Trazado 231941" d="M31.294,149.186a5.457,5.457,0,0,1,6.568,8.7L17.8,174.475a6.614,6.614,0,1,1-7.96-10.549Z" fill="#8e633c"/>
            <path id="Trazado_231942" data-name="Trazado 231942" d="M30.656,148.3a5.457,5.457,0,0,1,6.568,8.7L17.162,173.585A6.614,6.614,0,1,1,9.2,163.036Z" fill="#a97c50"/>
            <path id="Trazado_231943" data-name="Trazado 231943" d="M138.538,66.974a5.458,5.458,0,0,0,6.611,8.672L166.529,60.8a6.614,6.614,0,1,0-8.01-10.51Z" fill="#a97c50"/>
            <path id="Trazado_231944" data-name="Trazado 231944" d="M32.288,154.97a1.021,1.021,0,0,1-.616-1.836l113.3-85.54a1.021,1.021,0,0,1,1.23,1.63L32.9,154.764a1.016,1.016,0,0,1-.614.206" fill="#3c2415"/>
            <path id="Trazado_231945" data-name="Trazado 231945" d="M61.917,133.047l-.346-.862s.01-1.032-.6-1.08-.25-2.987-.25-2.987l3.189.609a2.109,2.109,0,0,0,.737-1.026c.1-.285.283-.785.283-.785s.613-1.521,1.2-.2a11.549,11.549,0,0,0,.584,1.069c.318.522,1.374,1.94,1.735,2.52.468.751-1.368,1.98-1.368,1.98l-1.632,1.177a2.533,2.533,0,0,1-3.528-.415" fill="#e8c5ac"/>
            <path id="Trazado_231946" data-name="Trazado 231946" d="M62.282,128.832a4.325,4.325,0,0,1-1.821-.394s-2.3-14.4.316-20.525c2.664-4.114,15.52-15.728,17.67-13.374,1.907,2.092,2.915,9.667,1.727,10.631-.6.487-9.843,3.258-11.941,6.324-1.791,5.621-1.789,15.148-1.789,15.148s-.5,2.233-4.162,2.19" fill="#edf5f7"/>
            <path id="Trazado_231947" data-name="Trazado 231947" d="M60.736,133.759c.151.012.234.122.367.2s.276.137.4.211c.326.189.714-.024,1.071-.041.384-.018.764-.045,1.146-.084s.85-.049,1.068-.412a.92.92,0,0,0,.021-1.03c-.51-.537-1.306-.292-1.92-.167a3.089,3.089,0,0,0-.956.342,2.454,2.454,0,0,0-.367.262c-.119.1-.221.262-.35.334Z" fill="#e8c5ac"/>
            <path id="Trazado_231948" data-name="Trazado 231948" d="M120.841,88.043a7.351,7.351,0,0,0-1.174-1.873c-.825-.764-2.974,1.171-3.176,2.128a10.273,10.273,0,0,0,.246,2,3.332,3.332,0,0,1-.542,1.1c-.226.347-.508.679-.737,1.042a1.038,1.038,0,0,0-.208.944,2.419,2.419,0,0,0,.593,1.406l1.446.765c.617-.213,1.491-.205,1.873-.835a14.051,14.051,0,0,0,.486-1.589c.2-.607,1.027-2.168,1.37-2.914a3.032,3.032,0,0,0-.177-2.17" fill="#e8c5ac"/>
          </g>
        </g>
        <g id="Grupo_171083" data-name="Grupo 171083">
          <g id="Grupo_171082" data-name="Grupo 171082" clip-path="url(#clip-path-6)">
            <path id="Trazado_231949" data-name="Trazado 231949" d="M156.9,182.564s.721,2.44,1.492,3c1.6,1.159,6.384,3.735,6.821,4a1.242,1.242,0,0,1,.6,1.24.906.906,0,0,1-.277.543,4.24,4.24,0,0,1-2.763.711c-2.73.092-10.03-3.159-10.23-3.395,0,0-.747-.328-1.016.017a3.349,3.349,0,0,0-.184.675l-2.567-1.48a7.259,7.259,0,0,1-.083-2.072l.893-3.772Z" fill="#231f20"/>
            <path id="Trazado_231950" data-name="Trazado 231950" d="M165.614,191.038a4.272,4.272,0,0,1-2.879.793c-3.273-.015-10.25-3.316-10.25-3.316-.612-.212-.918-.045-1.039.318l-.1.526c.03,0,1-.395.985-.4s6.535,3.191,9.7,3.491a5.062,5.062,0,0,0,3.521-.933,1.028,1.028,0,0,0,.266-.793,3.016,3.016,0,0,1-.2.315" fill="#282827"/>
            <path id="Trazado_231951" data-name="Trazado 231951" d="M148.2,189.283s.968,2.354,1.791,2.83c1.713.989,6.733,3.061,7.2,3.286a1.244,1.244,0,0,1,.72,1.173.91.91,0,0,1-.22.567,4.247,4.247,0,0,1-2.675.991c-2.708.371-10.3-2.116-10.525-2.331,0,0-.776-.248-1.009.122a3.376,3.376,0,0,0-.114.69l-2.705-1.208a7.285,7.285,0,0,1-.3-2.053l.5-3.843Z" fill="#231f20"/>
            <path id="Trazado_231952" data-name="Trazado 231952" d="M157.731,196.819a4.271,4.271,0,0,1-2.782,1.084c-3.257.32-10.536-2.249-10.536-2.249-.63-.148-.918.049-1,.423l-.051.534c.03,0,.954-.495.939-.5s6.829,2.5,10,2.48a5.068,5.068,0,0,0,3.408-1.289,1.029,1.029,0,0,0,.183-.817,2.952,2.952,0,0,1-.164.334" fill="#282827"/>
            <path id="Trazado_231953" data-name="Trazado 231953" d="M158.2,108.563c1,1.549,2.355,18.97-1.827,22.085C153.01,133,139.5,124,139.5,124a18.8,18.8,0,0,1-6.564-6.726c-1.561-3.066,3.046-4.071,6.265-3.386,2.129.453,11.149,8.865,12.525,8.646.594-2.248.83-10.62.684-12.136-.171-1.78,3.849.838,5.787-1.834" fill="#dfe7ea"/>
            <path id="Trazado_231954" data-name="Trazado 231954" d="M152.52,110.194s-.568-.623-.31-1.014.9-1.187,3.1-1.641a5.274,5.274,0,0,1,1.834.021c.334.062,1.082.33,1.117.74.026.3-.076.645-.655,1.192a5.263,5.263,0,0,1-3.777,1.287c-.456-.162-1.306-.585-1.306-.585" fill="#b6c1c6"/>
            <path id="Trazado_231955" data-name="Trazado 231955" d="M157.46,109.834l-.759-3.288-3.446,1.9.491,2.989Z" fill="#e8c5ac"/>
            <path id="Trazado_231956" data-name="Trazado 231956" d="M152.216,109.711s.561,1.226,3.043.642a5.616,5.616,0,0,0,2.662-1.269,1.006,1.006,0,0,0,.321-.858l.278,1.068s-.234,1.048-2.05,1.731c-2.689,1.014-4.016-.3-4.016-.3Z" fill="#dfe7ea"/>
            <path id="Trazado_231957" data-name="Trazado 231957" d="M140.828,145.174s17.766,11.8,18.384,13.376-1.733,23.09-1.733,23.09a3.436,3.436,0,0,0,.953,2.165c-.458,2.581-8.844,3.334-9.68,1.379,0,0,2.1-20.17,1.612-21.295S127.6,151.28,127.6,151.28Z" fill="#141413"/>
            <path id="Trazado_231958" data-name="Trazado 231958" d="M135.566,148.152a27.218,27.218,0,0,0,2.015,5.413c1.1,1.855,8.829,11.575,9.455,13.279S149.13,191.4,149.13,191.4c-.116.9-.573,1.174-1.377,1.376-4.636,1.175-6.524-.459-6.524-.459a1.588,1.588,0,0,1-.866-1.58s-1.765-18.759-2.4-20.1-13.591-13.013-14.293-14.162-1.323-7.253-1.323-7.253Z" fill="#383736"/>
            <path id="Trazado_231959" data-name="Trazado 231959" d="M115.588,117.161a13.99,13.99,0,0,1,6.685-3.191c1.922-.4,12.35-1.859,14.379-1.07s7.267,2.429,6.972,9.832c-.237,5.95-1.335,4.336-2.557,22.186-.154,2.25-3.2,5.639-8.463,5.467-4.336-.141-10.331-1.019-10.331-1.019s-.461-.232-.286-1.69c.457-3.759-2.785-15.365-3.351-18.608a111.076,111.076,0,0,0-3.048-11.907" fill="#ebf0f2"/>
            <path id="Trazado_231960" data-name="Trazado 231960" d="M127.619,101.739a1.637,1.637,0,0,1,1.553,1.544l-.218,2.987s-.117.643-.687.718c-.855.11-1.169-.655-1.489-1.494-.02-.047-.416-1.284-.438-1.359-.342-1.046-.129-2.5,1.279-2.4" fill="#ffe8d9"/>
            <path id="Trazado_231961" data-name="Trazado 231961" d="M133.81,120.916a1.777,1.777,0,0,1-.158-.829l.024-1.061-1.818-1.986-.688.255.024,2.586.878.773c.262.169.341,1.07.38,1.368,0,0,2.012,15.23,1.214,21.609-.047.385,2.621,5.642,2.621,5.642s2.643-4.385,2.564-5.642c-.684-10.88-5.041-22.715-5.041-22.715" fill="#2d3e50"/>
            <path id="Trazado_231962" data-name="Trazado 231962" d="M131.683,118.174c-2.512,3.217-4.636-1.358-6.784-3.332l-.291-9.18,7.6,1.345.176,4.735Z" fill="#e8c5ac"/>
            <path id="Trazado_231963" data-name="Trazado 231963" d="M126.749,96.631l0,0-5.318,2.215,3.871,9.642a4.084,4.084,0,0,0,1.586,1.894,6.407,6.407,0,0,0,2.114.56s4.1.269,5.78-1.247c.694-.624.584-1.727.585-2.437a20.858,20.858,0,0,0-.6-3.656L133.6,98.709l-1.269-3.779Z" fill="#e8c5ac"/>
            <path id="Trazado_231964" data-name="Trazado 231964" d="M131.48,93.27c1.353.869,1.416,2.157,1.859,4.083.164.71.179,1.286.218,1.3s-.343-.863-.6-1.641c-.629-1.927-1.693-1.314-2.434-.9-.022.012-3.308,1.8-3.315,1.831-.022.09.047-1.4-.135-1.2a3.871,3.871,0,0,0-1.225,2.447,10.876,10.876,0,0,0,.718,4.547l.344.839c.181.437.337.754.233.791a1.413,1.413,0,0,1-1.342-.513,1.734,1.734,0,0,0-2.069-.3c-.966.569.785,2.646.9,2.743l.187.724c.1.515.056,1.99-.409,1.49-.786-.847-2.532-2.69-3.047-3.189-5.636-5.5-2.963-13.778,4.978-13.839a20.3,20.3,0,0,1,5.138.782" fill="#332107"/>
            <path id="Trazado_231965" data-name="Trazado 231965" d="M123.688,104.17a1.638,1.638,0,0,1,2.079.692l1.313,1.989s.162.849-.313,1.169c-.72.483-.848.448-1.691.137a6.911,6.911,0,0,1-1.43-.948c-.764-.791-1.264-2.5.042-3.039" fill="#e8c5ac"/>
            <path id="Trazado_231966" data-name="Trazado 231966" d="M131.75,116.712a1.061,1.061,0,0,0,.294,1.059l1.671,1.693c.528.5.623-.173.54-.776l-.72-4.364c-.7-2.692-1.167-2.591-1.167-2.591s-.047.328-.08,1.072c-.04.951-.436,3.293-.538,3.907" fill="#fff"/>
            <path id="Trazado_231967" data-name="Trazado 231967" d="M124.789,111.734a5.141,5.141,0,0,0,.461,1.528c1.651,2.371,5.643,3.54,5.643,3.54a1,1,0,0,1,.957,1.041l-.1,3.061c.043.758-.356.741-.7.482,0,0-3.388-2.1-4.363-2.827-2.291-1.72-2.271-3.169-2.2-5.87.017-.759.3-.955.3-.955" fill="#fff"/>
            <path id="Trazado_231968" data-name="Trazado 231968" d="M151.482,106.116a.453.453,0,0,1,0,.184c-.18-.765-.812-1.575-.336-2.315a18.218,18.218,0,0,0,1.046-1.71c.566-1.116,1.727.772,1.679,1.445a2.869,2.869,0,0,1-1.78,2.394Z" fill="#e8c5ac"/>
            <path id="Trazado_231969" data-name="Trazado 231969" d="M170.46,78.051a5.457,5.457,0,0,0,8.348,7.015L196.422,65.9a6.613,6.613,0,1,0-10.115-8.5Z" fill="#8e633c"/>
            <path id="Trazado_231970" data-name="Trazado 231970" d="M82.934,180.629a5.457,5.457,0,0,1,8.313,7.056L75.3,208.258a6.614,6.614,0,1,1-10.075-8.552Z" fill="#8e633c"/>
            <path id="Trazado_231971" data-name="Trazado 231971" d="M82.116,179.9a5.458,5.458,0,0,1,8.313,7.057L74.482,207.528a6.614,6.614,0,1,1-10.075-8.551Z" fill="#a97c50"/>
            <path id="Trazado_231972" data-name="Trazado 231972" d="M169.59,76.943a5.457,5.457,0,0,0,8.348,7.015l17.615-19.164a6.614,6.614,0,1,0-10.116-8.5Z" fill="#a97c50"/>
            <path id="Trazado_231973" data-name="Trazado 231973" d="M85.168,186.055a1.022,1.022,0,0,1-1-1.658L176,76.141a1.021,1.021,0,0,1,1.557,1.321L85.722,185.719a1.022,1.022,0,0,1-.554.336" fill="#3c2415"/>
            <path id="Trazado_231974" data-name="Trazado 231974" d="M110.079,157.139l-.557-.743s-.257-1-.86-.887-1.014-2.821-1.014-2.821l3.238-.237a2.1,2.1,0,0,0,.446-1.181c.027-.3.07-.832.07-.832s.2-1.628,1.106-.5a11.527,11.527,0,0,0,.841.881c.442.422,1.829,1.518,2.328,1.985.645.6-.81,2.268-.81,2.268l-1.272,1.558a2.535,2.535,0,0,1-3.516.511" fill="#e8c5ac"/>
            <path id="Trazado_231975" data-name="Trazado 231975" d="M109.343,152.974a4.326,4.326,0,0,1-1.861.09s-5.945-13.312-5-19.909c1.51-4.663,12.361-18.557,15.046-16.839,2.383,1.528,5.315,8.584,4.418,9.823-.458.627-10.1,5.044-11.335,8.547-.278,5.894,2.187,15.1,2.187,15.1s.091,2.286-3.454,3.191" fill="#edf5f7"/>
            <path id="Trazado_231976" data-name="Trazado 231976" d="M109.122,158.133c.149-.027.258.058.406.1s.3.061.445.1c.365.1.684-.207,1.025-.316.365-.117.727-.241,1.086-.377s.807-.267.924-.675a.917.917,0,0,0-.246-1c-.631-.387-1.337.056-1.9.335a3.073,3.073,0,0,0-.835.578,2.324,2.324,0,0,0-.286.347,2.611,2.611,0,0,1-.253.414Z" fill="#e8c5ac"/>
            <path id="Trazado_231977" data-name="Trazado 231977" d="M155.482,100.571a7.366,7.366,0,0,0-1.855-1.2c-1.071-.344-2.2,2.317-1.981,3.269a10.226,10.226,0,0,0,1.066,1.707,3.37,3.37,0,0,1-.028,1.226c-.059.409-.174.83-.229,1.256a1.034,1.034,0,0,0,.21.942,2.42,2.42,0,0,0,1.131,1.025l1.634.084c.469-.454,1.265-.815,1.346-1.548a13.993,13.993,0,0,0-.231-1.645c-.078-.634.018-2.4.014-3.221a3.041,3.041,0,0,0-1.077-1.892" fill="#e8c5ac"/>
            <path id="Trazado_231978" data-name="Trazado 231978" d="M188.725,109.237s-2.548,3.035,1.123,6.275c3.242,2.86,17.061,6.866,17.061,6.866s2.838.561,4.193-1.623a109.248,109.248,0,0,0,6.6-13.422s.056-1.342-2.069-2.461c-1.754-.923-3.771-1.017-4.251.056-3.97,8.892-5.368,9.172-5.368,9.172s-6.767-3.577-11.069-5.984c-2.505-1.4-4.8.019-6.22,1.121" fill="#141413"/>
            <path id="Trazado_231979" data-name="Trazado 231979" d="M211.857,104.762s-.123-.73.253-.9,1.232-.441,3.061.267a4.555,4.555,0,0,1,1.343.889c.213.2.638.755.469,1.073-.124.235-.362.438-1.052.564a4.605,4.605,0,0,1-3.39-.846c-.262-.336-.684-1.051-.684-1.051" fill="#cadee0"/>
            <path id="Trazado_231980" data-name="Trazado 231980" d="M221.589,97.378s-2.258,4.683-2.573,5.2a4.047,4.047,0,0,1-2.516,1.845L215.437,107s-3.069-.3-3.356-1.733a22.869,22.869,0,0,1,1.175-3.02l.335-.448,1.9-4.026Z" fill="#e8c5ac"/>
            <path id="Trazado_231981" data-name="Trazado 231981" d="M211.846,104.309s-.016,1.107,2.09,1.858a3.89,3.89,0,0,0,2.276.3,1.592,1.592,0,0,0,.777-.38l-.3.919a2.583,2.583,0,0,1-2.334.3c-2.461-.534-2.677-2.2-2.677-2.2Z" fill="#f5f5f5"/>
            <path id="Trazado_231982" data-name="Trazado 231982" d="M197.583,104s-1.121-.007-1.9-2.181a2.161,2.161,0,0,0-1.688-1.559,5.564,5.564,0,0,1,1.692-.791c.7.028,1.072,1.538,1.6,1.834.292.162,1.325-.117,1.325-.117l.24,2.7Z" fill="#e8c5ac"/>
            <path id="Trazado_231983" data-name="Trazado 231983" d="M170.4,184.872a22.686,22.686,0,0,0-.9,5.032c-.153,2.43.513,6.3,4.075,6.933l1.455.259c1.114.2,2.616-.408,2.623-4.112,0-.609.015-2.631,0-3.979a16.622,16.622,0,0,0-.121-2.467Z" fill="#231f20"/>
            <path id="Trazado_231984" data-name="Trazado 231984" d="M203.109,145.306a7.707,7.707,0,0,0-5.987-2.628c-3.842.113-3.878-1.006-3.878-1.006l1.063-16.078s8.052,10.5,8.742,13.029.06,6.683.06,6.683" fill="#141413"/>
            <path id="Trazado_231985" data-name="Trazado 231985" d="M209.283,187.384l.667.957s7.289,3.424,7.712,3.579a1.093,1.093,0,0,1,.731.96.791.791,0,0,1-.141.512,3.718,3.718,0,0,1-2.244,1.1c-2.33.565-9.171-.932-9.386-1.1,0,0-.7-.149-.869.195a3.035,3.035,0,0,0-.038.612l-2.465-.813a6.379,6.379,0,0,1-.44-1.764l-.443-3.486Z" fill="#231f20"/>
            <path id="Trazado_231986" data-name="Trazado 231986" d="M218.264,193.11a3.745,3.745,0,0,1-2.331,1.192c-2.812.568-9.386-1.025-9.386-1.025-.565-.075-.8.122-.836.457l0,.468c.024,0,.787-.516.776-.519s6.173,1.579,8.941,1.272a4.426,4.426,0,0,0,2.859-1.422.9.9,0,0,0,.084-.729,1.892,1.892,0,0,1-.111.306" fill="#282827"/>
            <path id="Trazado_231987" data-name="Trazado 231987" d="M199.359,140.945s13.531,18.175,14.573,19.707-3.551,26.242-3.551,26.242a2.227,2.227,0,0,1-.8,1.957c-1.255,1.2-6.881,2.883-7.614,1.169,0,0,1.948-24.186,1.353-26.011s-17.44-18.966-17.44-18.966Z" fill="#141413"/>
            <path id="Trazado_231988" data-name="Trazado 231988" d="M194.914,143.063l-17.059,44.153a2.367,2.367,0,0,1-1.533,2,5.453,5.453,0,0,1-6.087-1.573,2.26,2.26,0,0,1-.86-1.775l13.366-45.183Z" fill="#383736"/>
            <path id="Trazado_231989" data-name="Trazado 231989" d="M180,114.6s1.274-3.531,2.816-4.454,6.887-1.536,6.887-1.536,3.845,5.753,3.943,6.173,5.878,6.4,5.71,26.165c-.032,3.746-12.754,4.951-12.754,4.951Z" fill="#dadee0"/>
            <path id="Trazado_231990" data-name="Trazado 231990" d="M177.995,150.565s.9-9.4-.112-16.555a47.388,47.388,0,0,0-3.617-10.812c-2.647-6.078-.782-7.382-.782-7.382.969-1.716,8.314-6.077,8.314-6.077a17.692,17.692,0,0,0,2.437,5.631c.775,1.108,3.663,9.978,5,14,0,0,2.014,12.974,1.062,21.811-.2,1.837-.838,1.789-1.957,1.845a30.108,30.108,0,0,1-5.872-.279c-3.3-.585-4.139-1.734-4.474-2.181" fill="#282827"/>
            <path id="Trazado_231991" data-name="Trazado 231991" d="M192.506,114.1c-3.08-4.763-4.424-5.337-4.983-5.77a35.123,35.123,0,0,1,5.5-.753c1.03.781,3.13,3.315,5.119,9.327,2.515,7.6,5.805,25.216,5.805,25.216a3.1,3.1,0,0,1-.286,2.759,13.558,13.558,0,0,1-2.4,2.611s-1.884-22.754-8.754-33.39" fill="#282827"/>
            <path id="Trazado_231992" data-name="Trazado 231992" d="M188.26,108.826l-.866-1.14s.309.1.795.236a11.025,11.025,0,0,1,2.411,1.524l2.5,1.94c.357.561,1.058.857.862,2.051l-.3,2.271,1.691,1.006c.721.318,1.441,1.087,1.708,2.82l.784,8s-3.216-9-4.427-11.159a45.286,45.286,0,0,0-5.155-7.547" fill="#7a797a"/>
            <path id="Trazado_231993" data-name="Trazado 231993" d="M180.94,108.62l-.775,1.462s-.293.712-.343.849a2.388,2.388,0,0,0,0,1.566l1.3,4.791a1.465,1.465,0,0,0,1.566,1.007l2.125.335-1.174,1.678c-.407.45-.391,1.151.616,2.573l5.424,8s-2.294-10.048-4.46-14.17c-1.8-3.431-4.283-8.088-4.283-8.088" fill="#7a797a"/>
            <path id="Trazado_231994" data-name="Trazado 231994" d="M189.88,116.477a4.614,4.614,0,0,1-.364-1.229l-.14-1.51-1.817-1.581-.588.266.056,2.349,1.427,1.118a2.389,2.389,0,0,1,.558.923,30.629,30.629,0,0,1-2.675,19.292c-.034.064-.176,5.959-.176,5.959s4.362-3.24,4.808-4.251c4.5-10.177-1.089-21.336-1.089-21.336" fill="#ea2606"/>
            <path id="Trazado_231995" data-name="Trazado 231995" d="M187.669,111.751c-.727,1.9-4.047.434-6.2-.949l-.714-7.919,8.413-.211-1.7,4.334Z" fill="#e8c5ac"/>
            <path id="Trazado_231996" data-name="Trazado 231996" d="M187.445,111.877c-.214.41.069.687.318.91l1.561,1.384c.491.408.536-.189.428-.712l-.886-3.775c-.749-2.854-1.163-1.971-1.163-1.971s-.372-.126-.258.515a8.159,8.159,0,0,1,0,3.649" fill="#fff"/>
            <path id="Trazado_231997" data-name="Trazado 231997" d="M181.208,107.867a3.511,3.511,0,0,0,.35,1.374c1.584,1.979,5.422,2.834,5.422,2.834.426.058.454.256.545.939l.168,2.532c.082.656-.266.668-.582.46,0,0-3.087-1.636-3.982-2.219-2.1-1.369-2.171-2.636-2.27-5a1.033,1.033,0,0,1,.349-.917" fill="#fff"/>
            <path id="Trazado_231998" data-name="Trazado 231998" d="M185.658,94.241h0l-5.369,1.021L182,104.971a3.877,3.877,0,0,0,1.1,2.067,6.092,6.092,0,0,0,1.855.933s3.757,1.051,5.612-.031c.765-.444.875-1.491,1.016-2.15a19.793,19.793,0,0,0,.152-3.513l-.125-4.771-.44-3.755Z" fill="#e8c5ac"/>
            <path id="Trazado_231999" data-name="Trazado 231999" d="M188.988,90.646a8.726,8.726,0,0,1,1.716,1.4c1.089,1.069.9,2.278.932,4.152.013.691-.036,1.648-.005,1.669s-.2-1.287-.281-2.061c-.208-1.91-1.593-1.673-2.084-1.31-.021.016-3.566,1.659-3.578,1.685-.038.08.46-1.92.251-1.769a3.659,3.659,0,0,0-1.613,2.036,10.3,10.3,0,0,0-.22,4.361l.156.845c.082.441.167.765.062.781a1.35,1.35,0,0,1-1.148-.738,1.65,1.65,0,0,0-1.865-.681c-1.006.342.217,2.612.3,2.725l.034.707c-.011.5-.339,1.859-.673,1.305-.563-.938-1.824-2.99-2.2-3.555-4.163-6.2.261-12.714,7.318-11.881.042,0,.577-.1-.008-.46a13.761,13.761,0,0,1,3.03,1.434c.508.335-.12-.642-.12-.642" fill="#77541c"/>
            <path id="Trazado_232000" data-name="Trazado 232000" d="M181.346,100.642a1.554,1.554,0,0,1,1.8,1.05l.832,2.1s-.017.821-.52,1.024c-.761.308-.874.251-1.6-.2a6.482,6.482,0,0,1-1.143-1.16c-.558-.883-.685-2.572.632-2.816" fill="#e8c5ac"/>
            <path id="Trazado_232001" data-name="Trazado 232001" d="M200.993,108.159l.77-4.741-4.417-.167-1.734,5.7Z" fill="#e8c5ac"/>
            <path id="Trazado_232002" data-name="Trazado 232002" d="M202.213,96.826l-14.036,2.039a1.287,1.287,0,0,0,.173,2.546.671.671,0,0,0,.118.01l13.745-.436Z" fill="#242e35"/>
            <path id="Trazado_232003" data-name="Trazado 232003" d="M214.6,94.352l-13.172,1.935a2.684,2.684,0,0,0,.482,5.19,1.889,1.889,0,0,0,.188-.03l13.117-.475Z" fill="#374149"/>
            <path id="Trazado_232004" data-name="Trazado 232004" d="M213.914,97.741c.188,2.023-.946,3.782-2.532,3.93s-3.023-1.373-3.21-3.4.945-3.781,2.53-3.928,3.025,1.373,3.212,3.395" fill="#4d565e"/>
            <path id="Trazado_232005" data-name="Trazado 232005" d="M210.7,94.347l18.6-2.733.869,9.344-19.08.692Z" fill="#4d565e"/>
            <path id="Trazado_232006" data-name="Trazado 232006" d="M233.383,95.947c.239,2.581-1.2,4.823-3.216,5.01s-3.845-1.751-4.085-4.332,1.2-4.824,3.216-5.012,3.845,1.753,4.085,4.334" fill="#70777c"/>
            <path id="Trazado_232007" data-name="Trazado 232007" d="M232.669,96.014c.193,2.076-.966,3.88-2.588,4.032s-3.093-1.411-3.286-3.486.967-3.882,2.588-4.033,3.093,1.411,3.286,3.487" fill="#273944"/>
            <path id="Trazado_232008" data-name="Trazado 232008" d="M232.669,96.014c.193,2.076-.966,3.88-2.588,4.032s-3.093-1.411-3.286-3.486.967-3.882,2.588-4.033,3.093,1.411,3.286,3.487" fill="#000102"/>
            <path id="Trazado_232009" data-name="Trazado 232009" d="M231.884,96.086c-.182-1.969-1.577-3.449-3.116-3.307a2.345,2.345,0,0,0-.366.071,4.2,4.2,0,0,0,.656,7.058,2.2,2.2,0,0,0,.372,0c1.539-.144,2.637-1.855,2.454-3.824" fill="#273944"/>
            <g id="Grupo_171081" data-name="Grupo 171081" opacity="0.74">
              <g id="Grupo_171080" data-name="Grupo 171080">
                <g id="Grupo_171079" data-name="Grupo 171079" clip-path="url(#clip-path-7)">
                  <path id="Trazado_232010" data-name="Trazado 232010" d="M229.381,95.189a.6.6,0,1,1-.648-.686.681.681,0,0,1,.648.686" fill="#f5f5f5"/>
                </g>
              </g>
            </g>
            <path id="Trazado_232011" data-name="Trazado 232011" d="M199.606,104.227s1.667.175,2.083-.18a2.653,2.653,0,0,0,.532-1.225l.958-4.681c.159-1.329.949-1.469,1.116-1.914.16-.426-.532-.64-.532-.64-.44-.14-1.65.453-2.34.586a11.255,11.255,0,0,0-1.915.425c-1.33.586-1.841,2.606-1.841,2.606l-.316,1.859c-.214,1.488,1.19,2.458,2.255,3.164" fill="#e8c5ac"/>
            <path id="Trazado_232012" data-name="Trazado 232012" d="M196.283,106.047l.447-1.734a3.267,3.267,0,0,1,2.629-.223,6.846,6.846,0,0,1,2.8,1.566l.28.391-.337,1.118Z" fill="#f5f5f5"/>
            <path id="Trazado_232013" data-name="Trazado 232013" d="M173.409,115.89s-2.425,1.988.671,5.816c2.734,3.381,16.778,4.419,16.778,4.419s4.306.391,5.369-1.622c3.2-6.064,6.1-17.114,6.1-17.114a3.458,3.458,0,0,0-1.846-2.069c-1.594-.767-3.846-.888-4.25.224-.448,1.23-1.79,5.369-2.684,7.494a29.034,29.034,0,0,1-2.8,5.09s-3.132-.112-10.029-2.76c-2.425-.93-6.525-.82-7.308.522" fill="#383736"/>
            <path id="Trazado_232014" data-name="Trazado 232014" d="M215.551,103.66c.753-1-.253-2.535-1.482-3.6-.077-.067,2.4-2.86.5-3.356,0,0-.818.9-1.657,1.736a2.352,2.352,0,0,0-.906,1.786c.081,1.105.453,3.642,1.193,4.029a1.774,1.774,0,0,0,2.35-.6" fill="#e8c5ac"/>
          </g>
        </g>
      </g>
    </g>
  </g>
</svg>
