<svg xmlns="http://www.w3.org/2000/svg" xmlns:xlink="http://www.w3.org/1999/xlink" width="258" height="235" viewBox="0 0 258 235">
  <defs>
    <clipPath id="clip-path">
      <rect id="Rectángulo_100493" data-name="Rectángulo 100493" width="258" height="235" fill="none"/>
    </clipPath>
    <clipPath id="clip-path-3">
      <rect id="Rectángulo_100490" data-name="Rectángulo 100490" width="159.849" height="92.59" transform="translate(39.496 135.199)" fill="none"/>
    </clipPath>
    <clipPath id="clip-path-4">
      <rect id="Rectángulo_100491" data-name="Rectángulo 100491" width="154.055" height="92.59" transform="translate(63.299 89.572)" fill="none"/>
    </clipPath>
  </defs>
  <g id="Grupo_175427" data-name="Grupo 175427" transform="translate(2249 4478)">
    <g id="Grupo_174504" data-name="Grupo 174504" transform="translate(-2249 -4478)">
      <g id="Grupo_174512" data-name="Grupo 174512" clip-path="url(#clip-path)">
        <g id="Grupo_174511" data-name="Grupo 174511">
          <g id="Grupo_174510" data-name="Grupo 174510" clip-path="url(#clip-path)">
            <g id="Grupo_174506" data-name="Grupo 174506" opacity="0.15" style="mix-blend-mode: multiply;isolation: isolate">
              <g id="Grupo_174505" data-name="Grupo 174505">
                <g id="Grupo_174504-2" data-name="Grupo 174504" clip-path="url(#clip-path-3)">
                  <path id="Trazado_234020" data-name="Trazado 234020" d="M143.416,227.789,39.5,167.49,95.425,135.2l103.92,60.3Z"/>
                </g>
              </g>
            </g>
            <g id="Grupo_174509" data-name="Grupo 174509" opacity="0.15" style="mix-blend-mode: multiply;isolation: isolate">
              <g id="Grupo_174508" data-name="Grupo 174508">
                <g id="Grupo_174507" data-name="Grupo 174507" clip-path="url(#clip-path-4)">
                  <path id="Trazado_234021" data-name="Trazado 234021" d="M167.219,182.162,63.3,121.863l55.929-32.291,95.229,55.257a5.816,5.816,0,0,1-.011,10.067Z"/>
                </g>
              </g>
            </g>
            <path id="Trazado_234022" data-name="Trazado 234022" d="M176.778,131.686a1.724,1.724,0,0,0,.844-1.74L171.964,90.9c-.5-3.435-3.288-4.572-6.57-2.678l-15.83,9.14a14.851,14.851,0,0,0-6.57,10.264l-5.482,44.163a1.389,1.389,0,0,0,2.073,1.374,1.76,1.76,0,0,0,.91-1.326l5.292-44.958a10.443,10.443,0,0,1,4.627-7.266l14.272-8.24c2.313-1.336,4.278-.53,4.623,1.9l5.324,37.457a1.389,1.389,0,0,0,2.07,1.007Z" fill="#7589e3"/>
            <path id="Trazado_234023" data-name="Trazado 234023" d="M184.241,45.667c.239,1.233.12,1.713-1.553,4.324s-2.778,8.9-3.226,12.83c-.659,5.78-2.059,15.3-2.623,19.088-.121.811-.83,1.618-1.414,1.611l-1.213-.013c-.384,0-.6-.37-.519-.9.7-4.871,4.052-28.1,5.257-31.005,1.348-3.246,5.052-7.167,5.291-5.934" fill="#592a16"/>
            <path id="Trazado_234024" data-name="Trazado 234024" d="M207.417,105.814c1.937-1.119-30.838-17.785-32.394-19.069-.589-.486-2.032-1.15-2.849-.659-2.448,1.474-29.868,16.558-33.094,19.107s-7.408,12.5-5.735,13.045,32.366,24.972,35.338,19.128c4.35-8.552,31.689-27.483,38.734-31.552" fill="#08295e"/>
            <path id="Trazado_234025" data-name="Trazado 234025" d="M209.594,101.822l-1.731.513s-2.076-7.549-12.147-13.067a45.576,45.576,0,0,0-20.292-5.747,2.058,2.058,0,0,1-1.731-.914l7.123-32.8,3.424-4.144a74.588,74.588,0,0,1,20.582,6.35A32.3,32.3,0,0,1,218.41,65.4s-6.763,13.111-6.452,15.457-2.364,20.969-2.364,20.969" fill="#08295e"/>
            <path id="Trazado_234026" data-name="Trazado 234026" d="M218.411,65.395c.239,1.233.12,1.713-1.553,4.324s-2.778,8.9-3.226,12.83c-.659,5.78-2.059,15.3-2.623,19.088-.121.811-.83,1.618-1.414,1.611l-1.213-.013c-.384,0-.6-.37-.519-.9.695-4.871,4.052-28.1,5.257-31,1.348-3.246,5.052-7.167,5.291-5.934" fill="#02224f"/>
            <path id="Trazado_234027" data-name="Trazado 234027" d="M204.586,112.447c1.937-1.119,3.464-4.007,3.094-5.975-.142-.75-.521-1.15-1.337-.659-2.448,1.474-29.868,16.558-33.094,19.107s-7.408,12.5-5.735,13.045,1.656-3.906,7.049-7.634c4.35-3.007,22.978-13.815,30.023-17.884" fill="#02224f"/>
            <path id="Trazado_234028" data-name="Trazado 234028" d="M211.448,151.124a.869.869,0,0,0,.426-.878l-5.74-39.623c-.5-3.435-3.289-4.572-6.571-2.677l-15.83,9.139a14.854,14.854,0,0,0-6.57,10.264L171.621,172a1.145,1.145,0,0,0,1.709,1.133l.855-.494a.871.871,0,0,0,.429-.652l5.343-45.383a10.441,10.441,0,0,1,4.626-7.267l14.273-8.24c2.312-1.335,4.278-.529,4.622,1.9l5.375,37.815a1.144,1.144,0,0,0,1.706.83Z" fill="#7589e3"/>
            <path id="Trazado_234029" data-name="Trazado 234029" d="M171.641,52.76s-4.84-2.228-5.992.307-1,6.069-1.613,8.911-2.151,10.754-2.151,10.754l-4.512,2.606c-.884.51-7.087,2.848-7.625,3s-2.074.768-2.074.768-4.455-.537-4.571-.537-4.11,1.344-4.3,2.342a11.477,11.477,0,0,1-1.382,2.8s.038.807.729.577a5.869,5.869,0,0,0,.958-.385s-.609.922-.305,1.114a1.832,1.832,0,0,0,1.575-.345,4.093,4.093,0,0,0,.768-.769l.5-.883h2.074s2.842.768,3.265.768h.729l.346.845s-.23.96-.23,1.1-1.037.71-.961,1.287.267,1.059.729.952.846-.914,1.269-1.145.622-.345.622-.345a12.725,12.725,0,0,1,1.106-2.151,9.2,9.2,0,0,0,.192-2.266s.768-.077,4.878-.423,9.986,0,11.676-3.034,2.926-13.981,3.48-15.825,3.128-8.693.822-10.024" fill="#ea9c70"/>
            <path id="Trazado_234030" data-name="Trazado 234030" d="M155.413,149.934s-.058.423-1.556,1.287a15.859,15.859,0,0,1-3.622,1.362s-.385-.221-.669-.431c-1.037,1-1.41,3.439-3.429,4.773-2.265,1.5-6.356,1.8-8.448,2.074-3.881.5-.883-3.04.036-4.533,1.422-2.3,2.114-1.458,6.953-1.767,3.19-.2,4.148-2.842,5.916-4.225a12.338,12.338,0,0,0,3.263-3.956,1.247,1.247,0,0,0,.014-1.123c.092.148.189.291.295.431,1.353,1.793,1.844,2.694,1.544,4.224Z" fill="#5d2f1b"/>
            <path id="Trazado_234031" data-name="Trazado 234031" d="M155.549,148.053c-.576,1.959-4.187,2.457-5.57,3.148s-1.575,3.573-3.841,5.071-6.356,2.073-8.45,2.343c-3.879.5-.883-3.039.039-4.533,1.421-2.3,4.228-4.054,4.878-4.63-.118.173-2.766,2.9,2.074,2.6,3.19-.2,4.148-2.842,5.915-4.225a12.345,12.345,0,0,0,3.264-3.956,1.254,1.254,0,0,0,.014-1.123c.092.148.188.291.294.431,1.535,2.035,1.959,2.92,1.383,4.879" fill="#c35a1f"/>
            <path id="Trazado_234032" data-name="Trazado 234032" d="M153.654,158.492c-.027.007.171-.189.171-.189-.033.037-.09.1-.171.189" fill="#ea9c70"/>
            <path id="Trazado_234033" data-name="Trazado 234033" d="M168.818,158.806c-.4.961-2.783,2.844-2.783,2.844l-.657-.463a24.417,24.417,0,0,1-3.558,4.3c-2.711,2.6-10.461,2.247-10.9,1.268s1.141-3.079,2.25-4.342a4.213,4.213,0,0,1,4.716-1.035c1.86.807,3.84-.156,5.338-1.634a26.369,26.369,0,0,0,4.188-6.24,2.029,2.029,0,0,0,.007-.888c.562,1.284,1.366,1.876,1.562,2.925.007.067.025.27.045.555a7.59,7.59,0,0,1-.213,2.708" fill="#5d2f1b"/>
            <path id="Trazado_234034" data-name="Trazado 234034" d="M169.03,156.079c-.018-.266-.037-.47-.044-.523a2.537,2.537,0,0,1,.044.523" fill="#5d2f1b"/>
            <path id="Trazado_234035" data-name="Trazado 234035" d="M168.184,86.483l-3.082,1.78s-7.773,4.295-12.759,9.819-7.013,7.707-7.013,7.707,1.082-1.868,7.013,1.2,12.768,4.609,14.69,7.3,1.675,6.193.9,6.926l-.771.733s12.566-5.406,15-8.043,8.987-4.379,12.06-10.14-.488-13.495-.488-13.495Z" fill="#1a1a1a"/>
            <path id="Trazado_234036" data-name="Trazado 234036" d="M168.818,154.927c-.03,1.931-2.017,3.687-2.91,4.551s-1.384,3.026-4.088,5.616-10.461,2.215-10.9,1.235,1.345-3.227,2.453-4.489a22.886,22.886,0,0,1,3.284-2.938,5.219,5.219,0,0,0,.6-.638c-.459.751-.763,1.82.625,2.424,1.86.807,3.84-.157,5.338-1.634a26.369,26.369,0,0,0,4.188-6.24,2.029,2.029,0,0,0,.007-.888c.65,1.487,1.417,1.588,1.394,3" fill="#c35a1f"/>
            <path id="Trazado_234037" data-name="Trazado 234037" d="M187.428,94.56c-3-.68-9.679-.011-9.679-.011-8.066.345-10.5-7.17-10.5-7.17s2.664-6.081,2.664-7-1.781-5.065-1.781-5.065-.408-.236-1.906-1.273-2.19-4.954-1.124-6.452,2.622-8.066,2.622-8.066l2.189-7.029.807-.486L172.7,51.1l6.477-2.968s1.571.79,1.571,1.972c0,.807,1.177,1.464,2.512,2.077.624.288,1.281.564,1.866.841,1.844.876,4.264,3.5,6.107,5.348s-1.037,11.523-2.3,15.2,0,9.808.576,10.614,3.881,5.264,4.236,6.093-3.314,4.969-6.31,4.289" fill="#fc502d"/>
            <path id="Trazado_234038" data-name="Trazado 234038" d="M181.839,58.713a52.439,52.439,0,0,1-5.934,8.008,34.787,34.787,0,0,0-2.823,3.112s-.98-3.112-1.5-4.782-1.152-6.107-.461-8.642c.348-1.277,1.018-3.492,1.574-5.312l6.478-2.968s1.569.79,1.569,1.972c0,.807,1.178,1.463,2.512,2.077,1.482,1.359-.668,4.98-1.417,6.535" fill="#ea9c70"/>
            <path id="Trazado_234039" data-name="Trazado 234039" d="M168.588,33.018c-2.444.327-5.934,4.955-5.992,7.835s2.506,5.253,2.506,5.253,1.009-3.928,3.428-5.829,3.688,1.844,4.149,2.017,7.316,6.055,7.316,6.055l.847,1.377a12.567,12.567,0,0,0,1.112-2.42,8.509,8.509,0,0,0,.346-2.189,2.853,2.853,0,0,1,.576,1.786,3.509,3.509,0,0,0,.026,1.5,10.012,10.012,0,0,0,1.645-3.4,17.307,17.307,0,0,0,0-3.168s1.1-3.681.4-5.5-8.3-7.637-11.638-5.678-2.717,2-2.717,2-1.63.31-2.007.361" fill="#000c24"/>
            <path id="Trazado_234040" data-name="Trazado 234040" d="M165.1,40.68s-.829,4.436-.515,5.128.774,1.785.774,1.785.116,2.651.576,3.169a34.992,34.992,0,0,1,2.708,4.667c.173.576.916,1,1.423,1.3s4.081-.664,5.318-1.932,3.254-3.111,3.788-4.378a5.526,5.526,0,0,0,.533-1.687s1.383-1.655,1.1-2.692-.807-2.3-2.247-1.671a3.851,3.851,0,0,0-1.9,2.305s-2.132-5.531-5.243-7.144S165.1,40.68,165.1,40.68" fill="#f1ab85"/>
            <path id="Trazado_234041" data-name="Trazado 234041" d="M165.477,37.051s-.691,4.667.922,6.568a25.337,25.337,0,0,0,3.975,3.745c.173.057-.634-1.9-.634-1.9a19.939,19.939,0,0,0,2.939,3.917,10.931,10.931,0,0,0,2.995,1.729s-1.325-1.5-1.67-2.017a4.771,4.771,0,0,1-.4-1.786s2.417,3.5,3.693,3.8a13.714,13.714,0,0,0,2.7.3s-2.467-1.25-2.7-2.417-.528-2.632-.528-2.632.811-7.695-3.4-9.308a11.232,11.232,0,0,0-7.893,0" fill="#00143b"/>
            <path id="Trazado_234042" data-name="Trazado 234042" d="M187.043,63.668a12.9,12.9,0,0,0-.115,7.714c1.267,4.116,1.152,5.345.845,6.612s-1,5.3-1,5.3-.979,3.341,1.2,3.649,2.87,1.1,4.292-1.085,2.612-11.02,1.958-13.741,1.575-8.8-.23-11.484-2.5-2.65-3.709-2.305-3.243,5.339-3.243,5.339" fill="#ea9c70"/>
            <path id="Trazado_234043" data-name="Trazado 234043" d="M187.927,83.41a12.087,12.087,0,0,0-5.953-.115,49.4,49.4,0,0,1-9.388.768,21.43,21.43,0,0,1-4.44-1.114c-.153-.153-3.3-.384-3.84.154a32.276,32.276,0,0,1-3.611,2.189s-1.92,1.152-1.075,1.344a3.347,3.347,0,0,0,1.728-.153s-.768,1.037,0,1.075a6.686,6.686,0,0,0,1.729-.221s-1,.605-.192.836a13.007,13.007,0,0,0,2.65.23c.192,0,3.226-1.066,3.226-1.066a15.3,15.3,0,0,0,3.226,0,2.47,2.47,0,0,0,.769-.662s7.067,2.684,12.252,2.3,6.374.115,6.951-1.4-1.3-3.709-4.032-4.166" fill="#ea9c70"/>
            <path id="Trazado_234044" data-name="Trazado 234044" d="M55.869,172.815l-6.981-4.248V108.153l6.981,4.248Z" fill="#b2bffa"/>
            <path id="Trazado_234045" data-name="Trazado 234045" d="M108.46,142.418l-52.649,30.4V112.4L108.46,82Z" fill="#7589e3"/>
            <path id="Trazado_234046" data-name="Trazado 234046" d="M55.975,112.306l-6.982-4.248,52.321-30.207L108.3,82.1Z" fill="#a3aee5"/>
            <path id="Trazado_234047" data-name="Trazado 234047" d="M142.809,223.677l-6.982-4.248V159.015l6.982,4.248Z" fill="#b2bffa"/>
            <path id="Trazado_234048" data-name="Trazado 234048" d="M195.4,193.281l-52.649,30.4V163.263l52.649-30.4Z" fill="#8d9fec"/>
            <path id="Trazado_234049" data-name="Trazado 234049" d="M142.945,158.365l-6.982-4.248,52.321-30.207,6.981,4.248Z" fill="#a3aee5"/>
            <path id="Trazado_234050" data-name="Trazado 234050" d="M142.761,178.272l-93.874-54.2V106.633l93.874,54.2Z" fill="#b2bffa"/>
            <path id="Trazado_234051" data-name="Trazado 234051" d="M144.493,163.572l-103.92-60.3v-4.4l103.92,60.3Z" fill="#a6b4f5"/>
            <path id="Trazado_234052" data-name="Trazado 234052" d="M200.712,131.079l-56.28,32.493v-4.4l56.28-32.494Z" fill="#99aaf1"/>
            <path id="Trazado_234053" data-name="Trazado 234053" d="M144.607,159.07l-103.92-60.3L96.616,66.48l103.92,60.3Z" fill="#bec9fe"/>
            <path id="Trazado_234054" data-name="Trazado 234054" d="M161.522,111.845H159.24l-40.3-23.3a2.481,2.481,0,0,0-2.231.093L92.4,102.668H90.27v1.5a.658.658,0,0,0,.386.707l42.2,24.395c.573.33,2.434.756,3.1.375l25.026-15.415c.437-.252.614-.59.52-.885.026,0,.026-1.5.026-1.5" fill="#b7c5fb"/>
            <path id="Trazado_234055" data-name="Trazado 234055" d="M132.855,127.6,90.655,103.2c-.572-.33-.5-.907.161-1.288L116.7,86.969a2.483,2.483,0,0,1,2.232-.093l42.2,24.4c.572.33.5.907-.16,1.289l-25.026,15.414c-.66.381-2.522-.045-3.094-.375" fill="#7589e3"/>
            <path id="Trazado_234056" data-name="Trazado 234056" d="M133.636,125.645,94.758,103.168c-.49-.282-.428-.776.137-1.1L111.8,92.353a2.124,2.124,0,0,1,1.909-.079l38.878,22.477c.489.283.428.776-.137,1.1l-16.909,9.713a2.121,2.121,0,0,1-1.909.079" fill="#8d9fec"/>
            <path id="Trazado_234057" data-name="Trazado 234057" d="M135.329,103.285l-6.591-3.8,5.23-3.019,6.591,3.805Z" fill="#bec9fe"/>
            <path id="Trazado_234058" data-name="Trazado 234058" d="M127.944,99.022,126.1,97.956c-.542-.313-.474-.86.152-1.221l2.964-1.711a2.35,2.35,0,0,1,2.114-.088L133.174,96Z" fill="#bec9fe"/>
            <path id="Trazado_234059" data-name="Trazado 234059" d="M136.124,103.744l1.847,1.066a2.35,2.35,0,0,0,2.114-.087l2.964-1.712c.625-.361.694-.907.152-1.22l-1.847-1.067Z" fill="#bec9fe"/>
            <path id="Trazado_234060" data-name="Trazado 234060" d="M136.77,124.17l-1.578.911a1.677,1.677,0,0,1-1.507.062l-1.814-1.047c-.386-.223-.338-.613.108-.87l1.578-.911a1.674,1.674,0,0,1,1.507-.063l1.814,1.048c.387.223.338.612-.108.87" fill="#7589e3"/>
            <path id="Trazado_234061" data-name="Trazado 234061" d="M133.151,122.08l-1.578.911a1.677,1.677,0,0,1-1.507.062l-1.814-1.047c-.387-.223-.338-.613.108-.87l1.577-.911a1.676,1.676,0,0,1,1.508-.063l1.814,1.048c.387.223.338.612-.108.87" fill="#7589e3"/>
            <path id="Trazado_234062" data-name="Trazado 234062" d="M129.532,119.991l-1.578.911a1.677,1.677,0,0,1-1.507.062l-1.814-1.047c-.387-.223-.338-.613.108-.871l1.578-.91a1.674,1.674,0,0,1,1.507-.063l1.814,1.048c.387.223.338.612-.108.87" fill="#7589e3"/>
            <path id="Trazado_234063" data-name="Trazado 234063" d="M125.914,117.9l-1.578.911a1.677,1.677,0,0,1-1.507.062l-1.814-1.047c-.387-.223-.338-.613.108-.87l1.578-.911a1.674,1.674,0,0,1,1.507-.063l1.814,1.048c.387.223.338.612-.108.87" fill="#7589e3"/>
            <path id="Trazado_234064" data-name="Trazado 234064" d="M122.295,115.812l-1.578.911a1.677,1.677,0,0,1-1.507.062l-1.814-1.047c-.387-.223-.338-.613.108-.87l1.578-.911a1.674,1.674,0,0,1,1.507-.063l1.814,1.048c.387.223.338.612-.108.87" fill="#7589e3"/>
            <path id="Trazado_234065" data-name="Trazado 234065" d="M118.676,113.723l-1.578.911a1.673,1.673,0,0,1-1.507.062l-1.814-1.047c-.387-.223-.338-.613.108-.87l1.578-.911a1.674,1.674,0,0,1,1.507-.063l1.814,1.048c.387.223.338.612-.108.87" fill="#7589e3"/>
            <path id="Trazado_234066" data-name="Trazado 234066" d="M115.057,111.634l-1.578.911a1.677,1.677,0,0,1-1.507.062l-1.814-1.047c-.387-.223-.338-.613.108-.87l1.578-.911a1.674,1.674,0,0,1,1.507-.063l1.814,1.048c.387.223.338.612-.108.87" fill="#7589e3"/>
            <path id="Trazado_234067" data-name="Trazado 234067" d="M111.438,109.544l-1.578.911a1.677,1.677,0,0,1-1.507.062l-1.814-1.047c-.387-.223-.338-.613.108-.871l1.578-.91a1.674,1.674,0,0,1,1.507-.063l1.814,1.048c.387.223.338.612-.108.87" fill="#7589e3"/>
            <path id="Trazado_234068" data-name="Trazado 234068" d="M107.819,107.455l-1.577.911a1.679,1.679,0,0,1-1.508.062l-1.814-1.047c-.386-.223-.338-.613.108-.87l1.578-.911a1.674,1.674,0,0,1,1.507-.063l1.814,1.048c.387.223.338.612-.108.87" fill="#7589e3"/>
            <path id="Trazado_234069" data-name="Trazado 234069" d="M104.2,105.365l-1.577.911a1.682,1.682,0,0,1-1.508.063L99.3,105.291c-.386-.223-.338-.613.108-.87l1.578-.911a1.674,1.674,0,0,1,1.507-.063l1.814,1.048c.387.223.338.612-.108.87" fill="#7589e3"/>
            <path id="Trazado_234070" data-name="Trazado 234070" d="M100.582,103.276,99,104.187a1.673,1.673,0,0,1-1.507.062L95.683,103.2c-.387-.223-.338-.613.108-.87l1.578-.911a1.674,1.674,0,0,1,1.507-.063l1.814,1.048c.387.223.338.612-.108.87" fill="#7589e3"/>
            <path id="Trazado_234071" data-name="Trazado 234071" d="M140.452,122.044l-1.578.911a1.677,1.677,0,0,1-1.507.062l-2.892-1.669c-.386-.223-.338-.613.108-.87l1.578-.911a1.674,1.674,0,0,1,1.507-.063l2.892,1.67c.387.223.338.612-.108.87" fill="#7589e3"/>
            <path id="Trazado_234072" data-name="Trazado 234072" d="M136.067,119.512l-1.577.911a1.676,1.676,0,0,1-1.508.062l-1.814-1.047c-.386-.223-.338-.613.108-.87l1.578-.911a1.674,1.674,0,0,1,1.507-.063l1.814,1.048c.387.223.338.613-.108.87" fill="#7589e3"/>
            <path id="Trazado_234073" data-name="Trazado 234073" d="M132.868,117.665l-1.578.911a1.676,1.676,0,0,1-1.507.062l-1.814-1.047c-.387-.223-.338-.613.108-.871l1.578-.91a1.674,1.674,0,0,1,1.507-.063l1.814,1.048c.387.223.338.612-.108.87" fill="#7589e3"/>
            <path id="Trazado_234074" data-name="Trazado 234074" d="M129.668,115.818l-1.578.911a1.677,1.677,0,0,1-1.507.062l-1.814-1.047c-.386-.223-.338-.613.108-.87l1.578-.911a1.674,1.674,0,0,1,1.507-.063l1.814,1.048c.387.223.338.612-.108.87" fill="#7589e3"/>
            <path id="Trazado_234075" data-name="Trazado 234075" d="M126.469,113.97l-1.578.912a1.679,1.679,0,0,1-1.507.061L121.57,113.9c-.387-.222-.338-.612.108-.87l1.578-.911a1.674,1.674,0,0,1,1.507-.063l1.814,1.048c.387.223.338.612-.108.87" fill="#7589e3"/>
            <path id="Trazado_234076" data-name="Trazado 234076" d="M123.27,112.124l-1.578.911a1.677,1.677,0,0,1-1.507.062l-1.814-1.047c-.386-.223-.338-.613.108-.871l1.578-.91a1.674,1.674,0,0,1,1.507-.063l1.814,1.048c.387.223.338.612-.108.87" fill="#7589e3"/>
            <path id="Trazado_234077" data-name="Trazado 234077" d="M120.07,110.276l-1.578.911a1.677,1.677,0,0,1-1.507.062l-1.814-1.047c-.387-.223-.338-.613.108-.87l1.578-.911a1.674,1.674,0,0,1,1.507-.063l1.814,1.048c.387.223.338.612-.108.87" fill="#7589e3"/>
            <path id="Trazado_234078" data-name="Trazado 234078" d="M116.871,108.429l-1.578.911a1.677,1.677,0,0,1-1.507.062l-1.814-1.047c-.387-.223-.338-.613.108-.87l1.577-.911a1.676,1.676,0,0,1,1.508-.063l1.814,1.048c.386.223.338.612-.108.87" fill="#7589e3"/>
            <path id="Trazado_234079" data-name="Trazado 234079" d="M113.672,106.582l-1.578.911a1.677,1.677,0,0,1-1.507.062l-1.814-1.047c-.387-.223-.338-.613.108-.871l1.578-.91a1.674,1.674,0,0,1,1.507-.063l1.814,1.048c.387.223.338.612-.108.87" fill="#7589e3"/>
            <path id="Trazado_234080" data-name="Trazado 234080" d="M110.473,104.735l-1.577.911a1.679,1.679,0,0,1-1.508.062l-1.814-1.047c-.386-.223-.338-.613.108-.87l1.578-.911a1.674,1.674,0,0,1,1.507-.063l1.814,1.048c.387.223.338.612-.108.87" fill="#7589e3"/>
            <path id="Trazado_234081" data-name="Trazado 234081" d="M107.273,102.888l-1.578.911a1.677,1.677,0,0,1-1.507.062l-1.814-1.047c-.387-.223-.338-.613.108-.87l1.578-.911a1.674,1.674,0,0,1,1.507-.063l1.814,1.048c.387.223.338.612-.108.87" fill="#7589e3"/>
            <path id="Trazado_234082" data-name="Trazado 234082" d="M139.027,116.969l-1.577.911a1.679,1.679,0,0,1-1.508.062l-1.814-1.047c-.387-.223-.338-.613.108-.87l1.578-.911a1.674,1.674,0,0,1,1.507-.063l1.814,1.048c.387.223.338.612-.108.87" fill="#7589e3"/>
            <path id="Trazado_234083" data-name="Trazado 234083" d="M135.852,115.136l-1.577.911a1.676,1.676,0,0,1-1.508.062l-1.814-1.047c-.387-.223-.338-.613.108-.87l1.578-.911a1.674,1.674,0,0,1,1.507-.063l1.814,1.048c.387.223.338.613-.108.87" fill="#7589e3"/>
            <path id="Trazado_234084" data-name="Trazado 234084" d="M132.678,113.3l-1.578.911a1.673,1.673,0,0,1-1.507.062l-1.814-1.047c-.387-.223-.338-.613.108-.87l1.578-.911a1.674,1.674,0,0,1,1.507-.063l1.814,1.048c.387.223.338.613-.108.87" fill="#7589e3"/>
            <path id="Trazado_234085" data-name="Trazado 234085" d="M129.5,111.47l-1.578.911a1.677,1.677,0,0,1-1.507.062L124.6,111.4c-.387-.223-.338-.613.108-.87l1.578-.911a1.674,1.674,0,0,1,1.507-.063l1.814,1.048c.387.223.338.612-.108.87" fill="#7589e3"/>
            <path id="Trazado_234086" data-name="Trazado 234086" d="M126.328,109.637l-1.577.912a1.682,1.682,0,0,1-1.508.061l-1.814-1.047c-.387-.223-.338-.612.108-.87l1.578-.911a1.674,1.674,0,0,1,1.507-.063l1.814,1.048c.387.223.338.612-.108.87" fill="#7589e3"/>
            <path id="Trazado_234087" data-name="Trazado 234087" d="M123.154,107.805l-1.578.911a1.677,1.677,0,0,1-1.507.062l-1.814-1.047c-.387-.223-.338-.613.108-.87l1.578-.911a1.674,1.674,0,0,1,1.507-.063l1.814,1.048c.387.223.338.612-.108.87" fill="#7589e3"/>
            <path id="Trazado_234088" data-name="Trazado 234088" d="M119.979,105.972l-1.578.911a1.677,1.677,0,0,1-1.507.062L115.08,105.9c-.387-.223-.338-.613.108-.871l1.578-.91a1.674,1.674,0,0,1,1.507-.063l1.814,1.047c.387.224.338.613-.108.871" fill="#7589e3"/>
            <path id="Trazado_234089" data-name="Trazado 234089" d="M116.8,104.139l-1.577.911a1.679,1.679,0,0,1-1.508.062l-1.814-1.047c-.387-.223-.338-.613.108-.87l1.578-.911a1.674,1.674,0,0,1,1.507-.063l1.814,1.048c.387.223.338.612-.108.87" fill="#7589e3"/>
            <path id="Trazado_234090" data-name="Trazado 234090" d="M141.122,113.927l-1.578.911a1.673,1.673,0,0,1-1.507.062l-1.814-1.047c-.386-.223-.338-.613.108-.87l1.578-.911a1.674,1.674,0,0,1,1.507-.063l1.814,1.048c.387.223.338.613-.108.87" fill="#7589e3"/>
            <path id="Trazado_234091" data-name="Trazado 234091" d="M137.947,112.094l-1.578.911a1.677,1.677,0,0,1-1.507.062l-1.814-1.047c-.387-.223-.338-.613.108-.87l1.578-.911a1.674,1.674,0,0,1,1.507-.063l1.814,1.048c.387.223.338.612-.108.87" fill="#7589e3"/>
            <path id="Trazado_234092" data-name="Trazado 234092" d="M134.772,110.261l-1.578.911a1.677,1.677,0,0,1-1.507.062l-1.814-1.047c-.386-.223-.338-.613.108-.87l1.578-.911a1.674,1.674,0,0,1,1.507-.063l1.814,1.048c.387.223.338.612-.108.87" fill="#7589e3"/>
            <path id="Trazado_234093" data-name="Trazado 234093" d="M151.558,115.7l-1.578.911a1.676,1.676,0,0,1-1.507.062l-1.814-1.047c-.386-.223-.338-.613.108-.871l1.578-.91a1.674,1.674,0,0,1,1.507-.063l1.814,1.047c.386.224.338.613-.108.871" fill="#7589e3"/>
            <path id="Trazado_234094" data-name="Trazado 234094" d="M148.384,113.868l-1.577.911a1.679,1.679,0,0,1-1.508.062l-1.814-1.047c-.387-.223-.338-.613.108-.871l1.578-.91a1.674,1.674,0,0,1,1.507-.063L148.492,113c.387.223.338.612-.108.87" fill="#7589e3"/>
            <path id="Trazado_234095" data-name="Trazado 234095" d="M145.209,112.035l-1.578.911a1.677,1.677,0,0,1-1.507.062l-1.814-1.047c-.387-.223-.338-.613.108-.871l1.578-.91a1.674,1.674,0,0,1,1.507-.063l1.814,1.048c.387.223.338.612-.108.87" fill="#7589e3"/>
            <path id="Trazado_234096" data-name="Trazado 234096" d="M121.659,98.439l-1.577.911a1.679,1.679,0,0,1-1.508.062l-1.814-1.047c-.387-.223-.338-.613.108-.87l1.578-.911a1.674,1.674,0,0,1,1.507-.063l1.814,1.048c.387.223.338.612-.108.87" fill="#7589e3"/>
            <path id="Trazado_234097" data-name="Trazado 234097" d="M118.485,96.605l-1.578.911a1.674,1.674,0,0,1-1.507.063l-1.814-1.048c-.387-.222-.338-.612.108-.87l1.577-.91a1.67,1.67,0,0,1,1.508-.063l1.814,1.048c.387.222.338.612-.108.869" fill="#7589e3"/>
            <path id="Trazado_234098" data-name="Trazado 234098" d="M115.31,94.773l-1.577.911a1.676,1.676,0,0,1-1.508.062L110.411,94.7c-.387-.223-.338-.613.108-.87l1.578-.911a1.674,1.674,0,0,1,1.507-.063l1.814,1.048c.387.223.338.613-.108.87" fill="#7589e3"/>
            <path id="Trazado_234099" data-name="Trazado 234099" d="M131.6,108.428l-1.578.911a1.677,1.677,0,0,1-1.507.062l-1.814-1.047c-.387-.223-.338-.613.108-.871l1.578-.91a1.674,1.674,0,0,1,1.507-.063l1.814,1.048c.387.223.338.612-.108.87" fill="#7589e3"/>
            <path id="Trazado_234100" data-name="Trazado 234100" d="M128.423,106.6l-1.577.911a1.679,1.679,0,0,1-1.508.062l-1.814-1.047c-.386-.223-.338-.613.108-.871l1.578-.91a1.674,1.674,0,0,1,1.507-.063l1.815,1.047c.386.224.337.613-.109.871" fill="#7589e3"/>
            <path id="Trazado_234101" data-name="Trazado 234101" d="M125.248,104.762l-1.578.911a1.677,1.677,0,0,1-1.507.062l-1.814-1.047c-.387-.223-.338-.613.108-.87l1.578-.911a1.674,1.674,0,0,1,1.507-.063l1.814,1.048c.387.223.338.612-.108.87" fill="#7589e3"/>
            <path id="Trazado_234102" data-name="Trazado 234102" d="M122.074,102.929l-1.578.911a1.677,1.677,0,0,1-1.507.062l-1.814-1.047c-.387-.223-.338-.613.108-.871l1.578-.91a1.674,1.674,0,0,1,1.507-.063l1.814,1.048c.387.223.338.612-.108.87" fill="#7589e3"/>
            <path id="Trazado_234103" data-name="Trazado 234103" d="M118.9,101.1l-1.577.911a1.679,1.679,0,0,1-1.508.062L114,101.022c-.386-.223-.338-.613.108-.87l1.578-.911a1.674,1.674,0,0,1,1.507-.063l1.814,1.048c.387.223.338.612-.108.87" fill="#7589e3"/>
            <path id="Trazado_234104" data-name="Trazado 234104" d="M113.63,102.306l-1.579.911a1.674,1.674,0,0,1-1.506.062l-1.815-1.047c-.387-.223-.337-.613.109-.871l1.577-.91a1.676,1.676,0,0,1,1.508-.063l1.814,1.048c.387.223.338.612-.108.87" fill="#7589e3"/>
            <path id="Trazado_234105" data-name="Trazado 234105" d="M104.264,101.15l-1.578.911a1.673,1.673,0,0,1-1.507.062l-1.814-1.047c-.387-.223-.338-.613.108-.87l1.578-.911a1.674,1.674,0,0,1,1.507-.063l1.814,1.048c.387.223.338.612-.108.87" fill="#7589e3"/>
            <path id="Trazado_234106" data-name="Trazado 234106" d="M144.134,119.918l-1.577.911a1.679,1.679,0,0,1-1.508.062l-3.691-2.131c-.386-.223-.338-.612.108-.87l1.578-.911a1.677,1.677,0,0,1,1.507-.062l3.691,2.131c.387.223.338.612-.108.87" fill="#7589e3"/>
            <path id="Trazado_234107" data-name="Trazado 234107" d="M115.526,99.149l-1.578.911a1.677,1.677,0,0,1-1.507.062l-5.712-3.3c-.386-.223-.338-.613.108-.871l1.578-.911a1.677,1.677,0,0,1,1.507-.062l5.712,3.3c.387.223.338.612-.108.87" fill="#7589e3"/>
            <path id="Trazado_234108" data-name="Trazado 234108" d="M141.813,110.074l-1.578.911a1.67,1.67,0,0,1-1.507.062l-18.5-10.684c-.387-.223-.338-.612.108-.87l1.578-.911a1.677,1.677,0,0,1,1.507-.062L141.921,109.2c.387.223.338.613-.108.87" fill="#7589e3"/>
            <path id="Trazado_234109" data-name="Trazado 234109" d="M147.816,117.792l-1.578.911a1.677,1.677,0,0,1-1.507.062l-4.863-2.807c-.386-.223-.338-.613.109-.871l1.577-.91a1.676,1.676,0,0,1,1.508-.063l4.862,2.808c.387.223.338.612-.108.87" fill="#7589e3"/>
            <path id="Trazado_234110" data-name="Trazado 234110" d="M110.433,100.461l-1.577.911a1.679,1.679,0,0,1-1.508.062l-4.3-2.483c-.387-.223-.339-.613.108-.871l1.577-.91a1.676,1.676,0,0,1,1.508-.063l4.3,2.484c.387.223.338.612-.108.87" fill="#7589e3"/>
            <path id="Trazado_234111" data-name="Trazado 234111" d="M135.04,122.134l1.786,1.031c.285.165.249.453-.081.643l-1.608.929a1.239,1.239,0,0,1-1.114.046l-1.785-1.031c-.286-.165-.25-.453.08-.644l1.608-.928a1.239,1.239,0,0,1,1.114-.046" fill="#bec9fe"/>
            <path id="Trazado_234112" data-name="Trazado 234112" d="M131.421,120.044l1.785,1.031c.286.165.25.453-.08.643l-1.607.929a1.241,1.241,0,0,1-1.115.046l-1.786-1.031c-.285-.165-.25-.453.081-.643l1.608-.929a1.239,1.239,0,0,1,1.114-.046" fill="#bec9fe"/>
            <path id="Trazado_234113" data-name="Trazado 234113" d="M127.8,117.955l1.786,1.031c.285.165.249.453-.08.643l-1.609.929a1.239,1.239,0,0,1-1.114.046L125,119.573c-.286-.165-.25-.453.08-.643l1.608-.929a1.239,1.239,0,0,1,1.114-.046" fill="#bec9fe"/>
            <path id="Trazado_234114" data-name="Trazado 234114" d="M124.183,115.865l1.786,1.031c.285.165.249.453-.08.643l-1.609.929a1.239,1.239,0,0,1-1.114.046l-1.785-1.031c-.286-.165-.25-.453.08-.643l1.608-.929a1.239,1.239,0,0,1,1.114-.046" fill="#bec9fe"/>
            <path id="Trazado_234115" data-name="Trazado 234115" d="M120.564,113.776l1.786,1.031c.285.165.249.453-.08.643l-1.608.929a1.244,1.244,0,0,1-1.115.046l-1.785-1.031c-.286-.165-.25-.453.08-.644l1.608-.928a1.239,1.239,0,0,1,1.114-.046" fill="#bec9fe"/>
            <path id="Trazado_234116" data-name="Trazado 234116" d="M116.945,111.687l1.786,1.031c.285.165.249.453-.081.643l-1.608.929a1.239,1.239,0,0,1-1.114.046l-1.785-1.031c-.286-.165-.25-.453.08-.644l1.608-.928a1.239,1.239,0,0,1,1.114-.046" fill="#bec9fe"/>
            <path id="Trazado_234117" data-name="Trazado 234117" d="M113.326,109.6l1.786,1.031c.285.165.25.453-.08.643l-1.608.929a1.241,1.241,0,0,1-1.115.046l-1.785-1.031c-.286-.165-.25-.453.08-.643l1.608-.929a1.239,1.239,0,0,1,1.114-.046" fill="#bec9fe"/>
            <path id="Trazado_234118" data-name="Trazado 234118" d="M109.707,107.508l1.786,1.031c.285.165.25.453-.08.643l-1.609.929a1.239,1.239,0,0,1-1.114.046l-1.785-1.031c-.286-.165-.25-.453.08-.643l1.608-.929a1.239,1.239,0,0,1,1.114-.046" fill="#bec9fe"/>
            <path id="Trazado_234119" data-name="Trazado 234119" d="M106.089,105.419l1.786,1.031c.285.165.249.453-.08.643l-1.608.929a1.241,1.241,0,0,1-1.115.046l-1.785-1.031c-.286-.165-.25-.453.08-.643l1.608-.929a1.239,1.239,0,0,1,1.114-.046" fill="#bec9fe"/>
            <path id="Trazado_234120" data-name="Trazado 234120" d="M102.47,103.33l1.786,1.031c.285.165.249.453-.081.643l-1.608.929a1.242,1.242,0,0,1-1.114.046l-1.785-1.031c-.286-.165-.25-.453.08-.644l1.608-.928a1.239,1.239,0,0,1,1.114-.046" fill="#bec9fe"/>
            <path id="Trazado_234121" data-name="Trazado 234121" d="M98.851,101.24l1.786,1.031c.285.165.249.453-.081.643l-1.608.929a1.239,1.239,0,0,1-1.114.046l-1.785-1.031c-.286-.165-.25-.453.079-.644l1.609-.928a1.239,1.239,0,0,1,1.114-.046" fill="#bec9fe"/>
            <path id="Trazado_234122" data-name="Trazado 234122" d="M137.644,119.385l2.863,1.653c.286.165.25.454-.08.643l-1.608.929a1.239,1.239,0,0,1-1.114.046L134.842,121c-.286-.164-.25-.453.08-.644l1.608-.928a1.242,1.242,0,0,1,1.114-.046" fill="#bec9fe"/>
            <path id="Trazado_234123" data-name="Trazado 234123" d="M134.336,117.476l1.785,1.031c.286.165.25.453-.08.643l-1.608.929a1.239,1.239,0,0,1-1.114.046l-1.786-1.031c-.285-.165-.249-.453.08-.643l1.609-.929a1.239,1.239,0,0,1,1.114-.046" fill="#bec9fe"/>
            <path id="Trazado_234124" data-name="Trazado 234124" d="M131.137,115.629l1.786,1.031c.285.165.249.453-.081.643l-1.608.929a1.239,1.239,0,0,1-1.114.046l-1.785-1.031c-.286-.165-.25-.453.08-.643l1.608-.929a1.239,1.239,0,0,1,1.114-.046" fill="#bec9fe"/>
            <path id="Trazado_234125" data-name="Trazado 234125" d="M127.938,113.782l1.786,1.031c.285.165.249.453-.08.643l-1.608.929a1.241,1.241,0,0,1-1.115.046l-1.785-1.031c-.286-.165-.25-.453.08-.644l1.608-.928a1.239,1.239,0,0,1,1.114-.046" fill="#bec9fe"/>
            <path id="Trazado_234126" data-name="Trazado 234126" d="M124.738,111.935l1.786,1.031c.285.165.25.453-.08.643l-1.608.929a1.239,1.239,0,0,1-1.114.046l-1.786-1.031c-.286-.165-.25-.453.08-.643l1.608-.929a1.239,1.239,0,0,1,1.114-.046" fill="#bec9fe"/>
            <path id="Trazado_234127" data-name="Trazado 234127" d="M121.539,110.087l1.786,1.031c.285.165.249.453-.081.643l-1.608.929a1.239,1.239,0,0,1-1.114.046l-1.785-1.031c-.286-.165-.25-.453.08-.643l1.608-.929a1.239,1.239,0,0,1,1.114-.046" fill="#bec9fe"/>
            <path id="Trazado_234128" data-name="Trazado 234128" d="M118.34,108.24l1.786,1.031c.285.165.25.453-.08.643l-1.609.929a1.239,1.239,0,0,1-1.114.046l-1.785-1.031c-.286-.165-.25-.453.08-.644l1.608-.928a1.239,1.239,0,0,1,1.114-.046" fill="#bec9fe"/>
            <path id="Trazado_234129" data-name="Trazado 234129" d="M115.141,106.393l1.786,1.031c.285.165.249.453-.08.643l-1.608.929a1.241,1.241,0,0,1-1.115.046l-1.785-1.031c-.286-.165-.25-.453.08-.643l1.608-.929a1.239,1.239,0,0,1,1.114-.046" fill="#bec9fe"/>
            <path id="Trazado_234130" data-name="Trazado 234130" d="M111.941,104.546l1.786,1.031c.285.165.249.453-.08.643l-1.609.929a1.239,1.239,0,0,1-1.114.046l-1.785-1.031c-.286-.165-.25-.453.08-.643l1.608-.929a1.239,1.239,0,0,1,1.114-.046" fill="#bec9fe"/>
            <path id="Trazado_234131" data-name="Trazado 234131" d="M108.742,102.7l1.786,1.031c.285.165.249.453-.081.643l-1.608.929a1.239,1.239,0,0,1-1.114.046l-1.785-1.031c-.286-.165-.25-.453.08-.644l1.608-.928a1.239,1.239,0,0,1,1.114-.046" fill="#bec9fe"/>
            <path id="Trazado_234132" data-name="Trazado 234132" d="M105.543,100.852l1.786,1.031c.285.165.25.453-.08.643l-1.609.929a1.239,1.239,0,0,1-1.114.046l-1.785-1.031c-.286-.165-.25-.453.08-.643l1.608-.929a1.239,1.239,0,0,1,1.114-.046" fill="#bec9fe"/>
            <path id="Trazado_234133" data-name="Trazado 234133" d="M137.3,114.933l1.786,1.031c.285.165.249.453-.08.643l-1.609.929a1.239,1.239,0,0,1-1.114.046l-1.785-1.031c-.286-.165-.25-.453.08-.643l1.608-.929a1.239,1.239,0,0,1,1.114-.046" fill="#bec9fe"/>
            <path id="Trazado_234134" data-name="Trazado 234134" d="M134.122,113.1l1.786,1.031c.285.165.25.453-.081.643l-1.607.929a1.241,1.241,0,0,1-1.115.046l-1.785-1.031c-.286-.165-.25-.453.08-.643l1.608-.929a1.239,1.239,0,0,1,1.114-.046" fill="#bec9fe"/>
            <path id="Trazado_234135" data-name="Trazado 234135" d="M130.947,111.267l1.786,1.031c.285.165.249.453-.08.643l-1.608.929a1.241,1.241,0,0,1-1.115.046l-1.785-1.031c-.286-.165-.25-.453.08-.643l1.608-.929a1.239,1.239,0,0,1,1.114-.046" fill="#bec9fe"/>
            <path id="Trazado_234136" data-name="Trazado 234136" d="M127.772,109.434l1.786,1.031c.285.165.249.453-.081.643l-1.608.929a1.239,1.239,0,0,1-1.114.046l-1.785-1.031c-.286-.165-.25-.453.08-.643l1.608-.929a1.239,1.239,0,0,1,1.114-.046" fill="#bec9fe"/>
            <path id="Trazado_234137" data-name="Trazado 234137" d="M124.6,107.6l1.786,1.03c.285.166.249.454-.081.644l-1.608.928a1.236,1.236,0,0,1-1.114.047l-1.785-1.032c-.286-.164-.25-.452.08-.643l1.608-.929a1.242,1.242,0,0,1,1.114-.045" fill="#bec9fe"/>
            <path id="Trazado_234138" data-name="Trazado 234138" d="M121.423,105.768l1.786,1.031c.285.165.25.453-.08.643l-1.608.929a1.239,1.239,0,0,1-1.114.046l-1.786-1.031c-.286-.165-.25-.453.08-.643l1.608-.929a1.242,1.242,0,0,1,1.114-.046" fill="#bec9fe"/>
            <path id="Trazado_234139" data-name="Trazado 234139" d="M118.248,103.936l1.786,1.031c.285.165.249.453-.081.643l-1.608.929a1.239,1.239,0,0,1-1.114.046l-1.785-1.031c-.286-.165-.25-.453.079-.643l1.609-.929a1.239,1.239,0,0,1,1.114-.046" fill="#bec9fe"/>
            <path id="Trazado_234140" data-name="Trazado 234140" d="M115.073,102.1l1.786,1.031c.285.165.25.453-.08.643l-1.609.929a1.239,1.239,0,0,1-1.114.046l-1.785-1.031c-.286-.165-.25-.453.08-.643l1.608-.929a1.239,1.239,0,0,1,1.114-.046" fill="#bec9fe"/>
            <path id="Trazado_234141" data-name="Trazado 234141" d="M139.391,111.891l1.785,1.031c.286.165.25.453-.08.643l-1.608.929a1.239,1.239,0,0,1-1.114.046l-1.786-1.031c-.285-.165-.249-.453.08-.643l1.608-.929a1.241,1.241,0,0,1,1.115-.046" fill="#bec9fe"/>
            <path id="Trazado_234142" data-name="Trazado 234142" d="M136.216,110.058,138,111.089c.285.165.25.453-.081.643l-1.608.929a1.239,1.239,0,0,1-1.114.046l-1.785-1.031c-.286-.165-.25-.453.08-.643l1.608-.929a1.239,1.239,0,0,1,1.114-.046" fill="#bec9fe"/>
            <path id="Trazado_234143" data-name="Trazado 234143" d="M133.042,108.225l1.786,1.031c.285.165.249.453-.08.643l-1.608.929a1.241,1.241,0,0,1-1.115.046l-1.785-1.031c-.286-.165-.25-.453.08-.643l1.608-.929a1.239,1.239,0,0,1,1.114-.046" fill="#bec9fe"/>
            <path id="Trazado_234144" data-name="Trazado 234144" d="M149.828,113.665l1.786,1.031c.285.165.25.453-.08.643l-1.608.929a1.241,1.241,0,0,1-1.115.046l-1.785-1.031c-.286-.165-.25-.453.08-.643l1.608-.929a1.239,1.239,0,0,1,1.114-.046" fill="#bec9fe"/>
            <path id="Trazado_234145" data-name="Trazado 234145" d="M146.653,111.832l1.786,1.031c.285.165.249.453-.08.643l-1.609.929a1.239,1.239,0,0,1-1.114.046l-1.785-1.031c-.286-.165-.25-.453.08-.643l1.608-.929a1.239,1.239,0,0,1,1.114-.046" fill="#bec9fe"/>
            <path id="Trazado_234146" data-name="Trazado 234146" d="M143.478,110l1.786,1.031c.285.165.249.453-.081.643l-1.608.929a1.239,1.239,0,0,1-1.114.046l-1.785-1.031c-.286-.165-.25-.453.08-.644l1.608-.928a1.239,1.239,0,0,1,1.114-.046" fill="#bec9fe"/>
            <path id="Trazado_234147" data-name="Trazado 234147" d="M119.929,96.4l1.786,1.031c.285.165.25.453-.08.643l-1.608.929a1.241,1.241,0,0,1-1.115.046l-1.785-1.031c-.286-.165-.25-.453.08-.643l1.608-.929a1.239,1.239,0,0,1,1.114-.046" fill="#bec9fe"/>
            <path id="Trazado_234148" data-name="Trazado 234148" d="M116.754,94.57,118.54,95.6c.285.165.25.453-.08.643l-1.608.929a1.239,1.239,0,0,1-1.114.046l-1.786-1.031c-.286-.165-.25-.453.08-.643l1.608-.929a1.239,1.239,0,0,1,1.114-.046" fill="#bec9fe"/>
            <path id="Trazado_234149" data-name="Trazado 234149" d="M113.579,92.737l1.786,1.031c.285.165.249.453-.08.643l-1.608.929a1.241,1.241,0,0,1-1.115.046l-1.785-1.031c-.286-.165-.25-.453.08-.643l1.608-.929a1.239,1.239,0,0,1,1.114-.046" fill="#bec9fe"/>
            <path id="Trazado_234150" data-name="Trazado 234150" d="M129.867,106.392l1.786,1.031c.285.165.249.453-.08.643l-1.609.929a1.239,1.239,0,0,1-1.114.046l-1.785-1.031c-.286-.165-.25-.453.08-.643l1.608-.929a1.239,1.239,0,0,1,1.114-.046" fill="#bec9fe"/>
            <path id="Trazado_234151" data-name="Trazado 234151" d="M126.692,104.559l1.786,1.031c.285.165.249.453-.081.643l-1.608.929a1.239,1.239,0,0,1-1.114.046l-1.785-1.031c-.286-.165-.25-.453.08-.643l1.608-.929a1.239,1.239,0,0,1,1.114-.046" fill="#bec9fe"/>
            <path id="Trazado_234152" data-name="Trazado 234152" d="M123.517,102.726l1.786,1.031c.285.165.25.453-.08.643l-1.608.929a1.241,1.241,0,0,1-1.115.046l-1.785-1.031c-.286-.165-.25-.453.08-.643l1.608-.929a1.239,1.239,0,0,1,1.114-.046" fill="#bec9fe"/>
            <path id="Trazado_234153" data-name="Trazado 234153" d="M120.343,100.893l1.786,1.031c.285.165.249.453-.081.643l-1.608.929a1.239,1.239,0,0,1-1.114.046l-1.785-1.031c-.286-.165-.25-.453.079-.643l1.609-.929a1.239,1.239,0,0,1,1.114-.046" fill="#bec9fe"/>
            <path id="Trazado_234154" data-name="Trazado 234154" d="M117.168,99.06l1.786,1.031c.285.165.249.453-.08.643l-1.609.929a1.239,1.239,0,0,1-1.114.046l-1.785-1.031c-.286-.165-.25-.453.08-.643l1.608-.929a1.239,1.239,0,0,1,1.114-.046" fill="#bec9fe"/>
            <path id="Trazado_234155" data-name="Trazado 234155" d="M111.9,100.27l1.786,1.031c.285.165.25.453-.08.643l-1.608.929a1.241,1.241,0,0,1-1.115.046l-1.785-1.031c-.286-.165-.25-.453.08-.643l1.608-.929a1.239,1.239,0,0,1,1.114-.046" fill="#bec9fe"/>
            <path id="Trazado_234156" data-name="Trazado 234156" d="M102.533,99.115l1.786,1.031c.285.165.249.452-.081.642l-1.608.929a1.239,1.239,0,0,1-1.114.047l-1.785-1.032c-.286-.164-.25-.453.08-.643l1.608-.928a1.239,1.239,0,0,1,1.114-.046" fill="#bec9fe"/>
            <path id="Trazado_234157" data-name="Trazado 234157" d="M140.527,116.8l3.662,2.113c.286.165.25.454-.079.645l-1.609.927a1.239,1.239,0,0,1-1.114.047l-3.662-2.114c-.286-.165-.25-.453.08-.645l1.608-.928a1.239,1.239,0,0,1,1.114-.045" fill="#bec9fe"/>
            <path id="Trazado_234158" data-name="Trazado 234158" d="M109.9,94.863l5.683,3.281c.286.165.25.453-.08.643l-1.608.929a1.239,1.239,0,0,1-1.114.046L107.1,96.481c-.286-.165-.25-.453.08-.643l1.608-.929a1.239,1.239,0,0,1,1.114-.046" fill="#bec9fe"/>
            <path id="Trazado_234159" data-name="Trazado 234159" d="M123.392,98.4l18.476,10.668c.286.164.25.452-.08.643l-1.608.928a1.233,1.233,0,0,1-1.114.046L120.59,100.02c-.286-.165-.25-.453.08-.643l1.608-.929a1.239,1.239,0,0,1,1.114-.046" fill="#bec9fe"/>
            <path id="Trazado_234160" data-name="Trazado 234160" d="M143.037,114l4.834,2.791c.286.165.25.453-.08.643l-1.608.929a1.239,1.239,0,0,1-1.114.046l-4.834-2.791c-.286-.165-.25-.453.08-.643l1.608-.929a1.239,1.239,0,0,1,1.114-.046" fill="#bec9fe"/>
            <path id="Trazado_234161" data-name="Trazado 234161" d="M106.215,96.989l4.273,2.467c.286.165.25.453-.08.643l-1.608.929a1.239,1.239,0,0,1-1.114.046l-4.273-2.467c-.286-.165-.25-.453.08-.644l1.608-.928a1.239,1.239,0,0,1,1.114-.046" fill="#bec9fe"/>
            <path id="Trazado_234162" data-name="Trazado 234162" d="M131.479,128.275,89.445,102.9a1.607,1.607,0,0,1-.73-1.259l-.9-25.883c0-.462,1.223-1.068,1.626-.835l42.681,24.71a1.607,1.607,0,0,1,.73,1.259v26.3c0,.463-.974,1.312-1.377,1.079" fill="#b2bffa"/>
            <path id="Trazado_234163" data-name="Trazado 234163" d="M131.217,128.181l-42.681-24.71a1.609,1.609,0,0,1-.73-1.259V75.91c0-.463.327-.65.73-.417l42.681,24.71a1.61,1.61,0,0,1,.73,1.259v26.3c0,.462-.327.649-.73.416" fill="#8d9fec"/>
            <path id="Trazado_234164" data-name="Trazado 234164" d="M134.235,74.368l-16.088,9.289V70.684L134.235,61.4Z" fill="#f2594c"/>
            <path id="Trazado_234165" data-name="Trazado 234165" d="M113.675,66.767l-6.163,3.558c-1.893,1.093-3.427-.067-3.427-2.59a8.2,8.2,0,0,1,3.427-6.547l6.163-3.559c1.893-1.092,3.427.068,3.427,2.591a8.2,8.2,0,0,1-3.427,6.547" fill="#ee453a"/>
            <path id="Trazado_234166" data-name="Trazado 234166" d="M106.088,69.253l-1,5.339,3.205-5.871Z" fill="#ee453a"/>
            <path id="Trazado_234167" data-name="Trazado 234167" d="M122.522,39.376l-8.846,5.107c-2.716,1.568-4.918-.1-4.918-3.717s2.2-7.828,4.918-9.4l8.846-5.107c2.716-1.568,4.918.1,4.918,3.718s-2.2,7.83-4.918,9.4" fill="#ee453a"/>
            <path id="Trazado_234168" data-name="Trazado 234168" d="M111.632,42.943,110.2,50.606l4.6-8.427Z" fill="#ee453a"/>
            <path id="Trazado_234169" data-name="Trazado 234169" d="M160.069,34.848l-5.257,3.035c-1.615.933-2.923-.057-2.923-2.209a7,7,0,0,1,2.923-5.585l5.257-3.036c1.614-.932,2.923.058,2.923,2.21a7,7,0,0,1-2.923,5.585" fill="#ee453a"/>
            <path id="Trazado_234170" data-name="Trazado 234170" d="M153.6,36.968l-.854,4.554,2.733-5.008Z" fill="#ee453a"/>
            <path id="Trazado_234171" data-name="Trazado 234171" d="M143.161,14.9c-2.384,1.375-4.883,5.951-4.883,9.016,0,1.236.442,2.192,1.828,1.392a9.914,9.914,0,0,0,3.382-4.511c0,.111-.056.585-.056.717,0,.772.25,1.688,1.057,1.219a9.237,9.237,0,0,0,2.558-2.886,15.988,15.988,0,0,1-6.308,7.9c-2.923,1.688-4.769.658-4.769-2.914a16.08,16.08,0,0,1,7.251-12.632c3.016-1.743,4.788-.581,4.788,2.836a13.108,13.108,0,0,1-.482,3.367,6.889,6.889,0,0,1-2.366,2.8c-.691.4-.711-.36-.711-.757a49.407,49.407,0,0,1,1.059-5.727,2.182,2.182,0,0,0-2.348.186m1.059,1.22c-.366,2.569-2.269,6.668-3.559,7.413-.594.343-.844-.174-.844-.924a9.25,9.25,0,0,1,3.365-6.377c.306-.176.883-.509,1.038-.112" fill="#ee453a"/>
            <path id="Trazado_234172" data-name="Trazado 234172" d="M96.35,65.083A6.177,6.177,0,0,0,93.963,69.5c0,.6.216,1.072.892.684a4.869,4.869,0,0,0,1.657-2.209c0,.054-.029.286-.029.353,0,.375.123.823.517.6a4.521,4.521,0,0,0,1.25-1.412,7.812,7.812,0,0,1-3.084,3.863c-1.43.825-2.334.321-2.334-1.427a7.878,7.878,0,0,1,3.547-6.185c1.477-.852,2.342-.281,2.342,1.392a6.439,6.439,0,0,1-.235,1.648,3.4,3.4,0,0,1-1.156,1.371c-.339.194-.349-.179-.349-.373a24.222,24.222,0,0,1,.518-2.8,1.066,1.066,0,0,0-1.149.09m.518.6c-.179,1.26-1.109,3.269-1.74,3.633-.292.166-.414-.088-.414-.454a4.515,4.515,0,0,1,1.647-3.121c.151-.087.432-.25.507-.058" fill="#ee453a"/>
            <path id="Trazado_234173" data-name="Trazado 234173" d="M143.065,55.261A8.166,8.166,0,0,0,139.9,61.1c0,.8.286,1.421,1.183.9a6.415,6.415,0,0,0,2.19-2.921c0,.071-.037.379-.037.464,0,.5.16,1.092.683.79a5.978,5.978,0,0,0,1.656-1.868,10.341,10.341,0,0,1-4.082,5.111c-1.893,1.094-3.086.426-3.086-1.887a10.415,10.415,0,0,1,4.691-8.176c1.954-1.127,3.1-.376,3.1,1.837a8.523,8.523,0,0,1-.31,2.178,4.448,4.448,0,0,1-1.529,1.812c-.451.26-.463-.232-.463-.492a32.165,32.165,0,0,1,.685-3.7,1.409,1.409,0,0,0-1.518.118m.684.79c-.236,1.663-1.468,4.317-2.3,4.8-.385.221-.548-.112-.548-.6a5.985,5.985,0,0,1,2.178-4.126c.2-.116.573-.333.672-.075" fill="#ee453a"/>
            <path id="Trazado_234174" data-name="Trazado 234174" d="M171.516,23.213c-.081-1.146-.081-1.251-.081-1.357,0-3.309,3.351-7.175,3.351-10.035,0-1.694-1.181-1.779-2.708-.9a8.937,8.937,0,0,0-3.324,3.64l-.75-2A10.9,10.9,0,0,1,172.293,8.2c3.831-2.211,5.628-.337,5.628,1.781,0,3.2-4.155,7.771-4.155,11.583v.345Zm-.536,5.6V25.534l3.322-1.918V26.9Z" fill="#005adb"/>
            <path id="Trazado_234175" data-name="Trazado 234175" d="M126.576,72.526l7.66-11.131V74.368l-16.089,9.289V70.684Z" fill="#ee453a"/>
            <path id="Trazado_234176" data-name="Trazado 234176" d="M138.817,46.627l-10.408,6.009V44.244l10.408-6.01Z" fill="#f2594c"/>
            <path id="Trazado_234177" data-name="Trazado 234177" d="M133.862,45.435l4.955-7.2v8.393l-10.408,6.009V44.243Z" fill="#ee453a"/>
            <path id="Trazado_234178" data-name="Trazado 234178" d="M104.308,50.917,93.9,56.926V48.534l10.408-6.009Z" fill="#f2594c"/>
            <path id="Trazado_234179" data-name="Trazado 234179" d="M99.353,49.725l4.955-7.2v8.393L93.9,56.926V48.533Z" fill="#ee453a"/>
            <path id="Trazado_234180" data-name="Trazado 234180" d="M114.927,60.745l-8.248,4.762v-1.3l8.248-4.762Z" fill="#f2594c"/>
            <path id="Trazado_234181" data-name="Trazado 234181" d="M114.927,63.4l-8.248,4.762v-1.3l8.248-4.762Z" fill="#f2594c"/>
            <path id="Trazado_234182" data-name="Trazado 234182" d="M124.081,30.963,113.33,37.17v-1.7l10.751-6.207Z" fill="#f2594c"/>
            <path id="Trazado_234183" data-name="Trazado 234183" d="M124.081,34.429,113.33,40.636v-1.7l10.751-6.207Z" fill="#f2594c"/>
            <path id="Trazado_234184" data-name="Trazado 234184" d="M161.051,30.053l-7.222,4.17V33.082l7.222-4.169Z" fill="#f2594c"/>
            <path id="Trazado_234185" data-name="Trazado 234185" d="M161.051,32.381l-7.222,4.169V35.41l7.222-4.169Z" fill="#f2594c"/>
          </g>
        </g>
      </g>
    </g>
  </g>
</svg>
